<svg width="70" height="22" fill="none" xmlns="http://www.w3.org/2000/svg"><path d="M66.44.5H3.86A2.92 2.92 0 00.94 3.42v14.84a2.92 2.92 0 002.92 2.92h62.58a2.92 2.92 0 002.92-2.92V3.42A2.92 2.92 0 0066.44.5z" fill="#000"/><path d="M66.44.5H3.86A2.92 2.92 0 00.94 3.42v14.84a2.92 2.92 0 002.92 2.92h62.58a2.92 2.92 0 002.92-2.92V3.42A2.92 2.92 0 0066.44.5z" stroke="#A6A5A5"/><path fill-rule="evenodd" clip-rule="evenodd" d="M14.34 11.15c.01-.9.48-1.73 1.25-2.2a2.682 2.682 0 00-2.12-1.14c-.89-.09-1.75.53-2.21.53-.46 0-1.16-.52-1.91-.51-.99.03-1.89.58-2.37 1.45-1.03 1.78-.26 4.39.72 5.82.49.7 1.07 1.49 1.82 1.46.74-.03 1.01-.47 1.9-.47.89 0 1.14.47 1.9.45.79-.01 1.29-.71 1.76-1.42.35-.5.62-1.05.81-1.64a2.54 2.54 0 01-1.55-2.33zM12.9 6.86c.43-.52.64-1.18.59-1.85-.66.07-1.26.38-1.7.88a2.47 2.47 0 00-.61 1.78c.67 0 1.3-.29 1.72-.81z" fill="#fff"/><path d="M22.72 7.54V4.9h.76c.21 0 .39.03.53.09s.26.14.35.26c.09.11.16.25.2.41.04.16.06.34.06.54s-.02.39-.07.54c-.04.15-.1.27-.16.37a.72.72 0 01-.23.23c-.08.06-.17.1-.25.13-.09.03-.17.05-.24.06h-.94l-.01.01zm-.46-3.02v3.41h1.17c.28 0 .53-.04.74-.12.21-.08.38-.19.51-.34.13-.15.23-.34.3-.56.06-.22.1-.48.1-.76 0-.55-.14-.95-.42-1.22-.28-.27-.69-.4-1.21-.4h-1.17l-.02-.01zm3.69 2.17c0-.15.02-.28.06-.4.04-.12.1-.22.17-.3a.69.69 0 01.24-.18c.1-.04.2-.06.3-.06.1 0 .2.02.3.06.1.04.18.1.25.18.07.08.12.18.16.3.04.11.06.25.06.4 0 .15-.02.28-.06.4-.04.11-.09.21-.16.29a.73.73 0 01-.55.24.69.69 0 01-.54-.24.925.925 0 01-.17-.29c-.04-.12-.06-.25-.06-.4zm-.43 0c0 .18.03.35.08.51.05.16.13.29.23.41.1.11.23.21.38.27.15.06.32.1.52.1s.37-.03.52-.1c.15-.07.28-.16.38-.27.1-.12.18-.25.23-.41a1.652 1.652 0 000-1.02c-.05-.16-.13-.3-.23-.41-.1-.12-.23-.21-.38-.28-.15-.07-.32-.1-.52-.1s-.37.03-.52.1c-.15.07-.28.16-.38.28-.1.11-.18.25-.23.41-.05.16-.08.32-.08.51zm5.41 1.24l.79-2.47h-.42l-.55 2.02-.52-2.02h-.44l-.5 2.02-.56-2.02h-.45l.79 2.47h.44l.5-1.96.5 1.96h.43-.01zm1.27-2.47v2.47h.41V6.54c0-.11.01-.21.04-.31s.08-.18.14-.25c.06-.07.14-.12.22-.16.09-.04.2-.06.32-.06.16 0 .28.04.37.13.09.09.13.21.13.36v1.67h.41V6.3c0-.13-.01-.25-.04-.36a.713.713 0 00-.14-.29.731.731 0 00-.26-.19c-.11-.04-.24-.07-.41-.07-.37 0-.63.15-.8.45v-.39h-.38l-.01.01zm2.77-.94v3.41h.41V4.52h-.41zm1.43 2.17c0-.15.02-.28.06-.4.04-.12.1-.22.17-.3a.69.69 0 01.24-.18c.1-.04.2-.06.3-.06.1 0 .2.02.3.06.1.04.18.1.25.18.07.08.12.18.16.3.04.11.06.25.06.4 0 .15-.02.28-.06.4-.04.11-.09.21-.16.29a.73.73 0 01-.55.24.69.69 0 01-.54-.24.925.925 0 01-.17-.29c-.04-.12-.06-.25-.06-.4zm-.43 0c0 .18.03.35.08.51.05.16.13.29.23.41.1.11.23.21.38.27.15.06.32.1.52.1s.37-.03.52-.1c.15-.07.28-.16.38-.27.1-.12.18-.25.23-.41a1.652 1.652 0 000-1.02c-.05-.16-.13-.3-.23-.41-.1-.12-.23-.21-.38-.28-.15-.07-.32-.1-.52-.1s-.37.03-.52.1c-.15.07-.28.16-.38.28-.1.11-.18.25-.23.41-.05.16-.08.32-.08.51zm5.16 1.23c-.07.04-.17.06-.29.06-.11 0-.19-.03-.25-.09s-.09-.16-.09-.29c-.11.13-.24.23-.39.29-.15.06-.31.09-.48.09-.11 0-.22-.01-.32-.04s-.18-.07-.26-.12a.531.531 0 01-.18-.21.794.794 0 01-.06-.32c0-.14.02-.25.07-.34.05-.09.11-.16.19-.21.08-.06.17-.1.27-.13s.21-.05.31-.07c.11-.02.22-.04.32-.05.1-.01.19-.03.27-.05a.38.38 0 00.18-.09c.04-.04.07-.1.07-.18 0-.09-.02-.16-.05-.21a.254.254 0 00-.13-.12.478.478 0 00-.18-.06c-.06 0-.13-.01-.19-.01-.17 0-.32.03-.43.1-.11.06-.18.19-.19.37h-.41c0-.15.04-.28.1-.39a.62.62 0 01.23-.25c.1-.07.2-.11.32-.14.12-.03.26-.04.4-.04.11 0 .22 0 .33.02.11.02.21.05.3.1s.16.12.21.21c.05.09.08.21.08.35v1.27c0 .1 0 .17.01.21.01.04.05.07.11.07.04 0 .08 0 .12-.02v.32l.01-.03zm-.66-1.27c-.05.04-.12.07-.2.09-.08.02-.17.03-.26.04-.09 0-.18.02-.27.04-.09.01-.18.04-.25.07-.07.03-.13.08-.18.14-.04.06-.07.14-.07.24 0 .07.01.12.04.17a.395.395 0 00.26.17c.06.01.12.02.18.02.13 0 .25-.02.34-.05.1-.04.17-.08.23-.14a.51.51 0 00.17-.37v-.42h.01zm1.43.06a1.342 1.342 0 01.16-.66c.05-.09.13-.16.23-.21.1-.05.21-.08.35-.08.14 0 .26.03.36.08.1.05.18.12.24.21s.11.19.14.3c.03.11.04.23.04.35 0 .11-.01.23-.04.34-.03.11-.07.21-.13.3s-.14.16-.23.21c-.1.05-.21.08-.35.08-.14 0-.25-.03-.34-.08a.611.611 0 01-.24-.21.975.975 0 01-.14-.29c-.03-.11-.04-.22-.04-.34h-.01zm1.9 1.22V4.52h-.41v1.27a.581.581 0 00-.17-.18.72.72 0 00-.21-.12c-.07-.03-.15-.05-.22-.07-.07-.01-.14-.02-.21-.02-.19 0-.35.04-.5.11-.14.07-.26.16-.35.28-.09.11-.16.25-.21.41-.04.16-.07.32-.07.5s.02.34.07.5c.05.16.12.29.21.41a1.058 1.058 0 00.85.39c.17 0 .33-.03.47-.09.14-.06.25-.16.32-.3v.33h.41l.02-.01zm2.44-1.24c0-.15.02-.28.06-.4.04-.12.1-.22.17-.3a.69.69 0 01.24-.18c.1-.04.2-.06.3-.06.1 0 .2.02.3.06.1.04.18.1.25.18.07.08.12.18.16.3.04.11.06.25.06.4 0 .15-.02.28-.06.4-.04.11-.09.21-.16.29a.73.73 0 01-.55.24.69.69 0 01-.54-.24.925.925 0 01-.17-.29c-.04-.12-.06-.25-.06-.4zm-.43 0c0 .18.03.35.08.51.05.16.13.29.23.41.1.11.23.21.38.27.15.06.32.1.52.1s.37-.03.52-.1c.15-.07.28-.16.38-.27.1-.12.18-.25.23-.41a1.652 1.652 0 000-1.02c-.05-.16-.13-.3-.23-.41-.1-.12-.23-.21-.38-.28-.15-.07-.32-.1-.52-.1s-.37.03-.52.1c-.15.07-.28.16-.38.28-.1.11-.18.25-.23.41-.05.16-.08.32-.08.51zm2.97-1.23v2.47h.41V6.54c0-.11.01-.21.04-.31s.08-.18.14-.25c.06-.07.14-.12.22-.16.09-.04.2-.06.32-.06.16 0 .28.04.37.13.09.09.13.21.13.36v1.67h.41V6.3c0-.13-.01-.25-.04-.36a.713.713 0 00-.14-.29.731.731 0 00-.26-.19c-.11-.04-.24-.07-.41-.07-.37 0-.63.15-.8.45v-.39h-.38l-.01.01zm4.74 0v-.74h-.41v.74h-.42v.36h.42v1.57c0 .11.01.21.03.28.02.07.06.12.1.16.05.04.11.07.18.08.08.01.17.02.27.02H54v-.36h-.35c-.04 0-.07-.02-.09-.03a.18.18 0 01-.05-.07V5.83H54v-.36h-.49l.01-.01zm1.04-.94v3.41h.41V6.54c0-.11.01-.21.04-.31s.08-.18.14-.25c.06-.07.14-.12.22-.16.09-.04.2-.06.32-.06.16 0 .28.04.37.13.09.09.13.21.13.36v1.67h.41V6.3c0-.13-.01-.25-.04-.36a.713.713 0 00-.14-.29.731.731 0 00-.26-.19c-.11-.04-.24-.07-.41-.07-.07 0-.15 0-.23.02-.08.02-.15.04-.22.08-.07.03-.13.07-.19.13-.06.05-.1.11-.13.19v-1.3h-.41l-.01.01zm4.46 1.93H57.6c0-.1.03-.18.06-.27.04-.09.08-.16.14-.22a.8.8 0 01.21-.15c.09-.04.18-.06.29-.06.11 0 .19.02.28.06.09.04.16.08.22.15.06.06.11.13.15.22.04.09.06.18.07.27zm.39.69h-.4c-.04.16-.11.28-.22.36-.11.08-.25.12-.42.12-.13 0-.25-.02-.35-.07-.1-.04-.18-.1-.24-.18a.816.816 0 01-.14-.26c-.03-.1-.04-.2-.04-.31h1.85c0-.15 0-.31-.04-.47a1.23 1.23 0 00-.18-.46c-.09-.14-.2-.25-.35-.34a.983.983 0 00-.54-.14c-.17 0-.32.03-.47.1-.14.06-.26.15-.37.27-.1.11-.18.25-.24.41-.06.16-.09.33-.09.52s.03.36.08.52c.05.16.13.3.22.41.09.11.22.2.36.27.15.06.32.1.52.1.28 0 .51-.07.7-.21.19-.14.3-.35.36-.63v-.01zm-28.54 4.75c1.22 0 2.02.96 2.02 2.45 0 1.49-.8 2.45-2 2.45-.62.03-1.21-.29-1.51-.84h-.02v2.38h-.99v-6.39h.95v.8h.02c.31-.54.9-.87 1.53-.85zm5.28 0c1.22 0 2.02.96 2.02 2.45 0 1.49-.8 2.45-2 2.45-.62.03-1.21-.29-1.51-.84h-.02v2.38h-.99v-6.39h.95v.8h.02c.31-.54.9-.87 1.53-.85zm7.08-1.84c1.39 0 2.35.78 2.38 1.92h-.99c-.06-.66-.6-1.05-1.4-1.05-.8 0-1.34.4-1.34.99 0 .47.35.74 1.2.95l.73.18c1.35.32 1.91.86 1.91 1.83 0 1.23-.98 2-2.54 2-1.46 0-2.45-.75-2.51-1.94h1.01c.07.65.71 1.08 1.57 1.08.86 0 1.43-.43 1.43-1.02 0-.51-.36-.82-1.21-1.03l-.85-.21c-1.21-.29-1.77-.86-1.77-1.78 0-1.14.99-1.92 2.4-1.92h-.02zm8.33 1.83c1.39 0 2.28.95 2.28 2.46s-.88 2.46-2.28 2.46-2.28-.95-2.28-2.46.89-2.46 2.28-2.46zm7.98 0c1.33 0 2.16.91 2.16 2.37v.34h-3.39v.06c-.03.36.09.71.34.97s.59.4.95.39c.48.04.93-.23 1.11-.68h.94c-.13.87-.98 1.47-2.07 1.47-1.4 0-2.26-.94-2.26-2.44s.87-2.48 2.22-2.48zm-11.7-1.08v1.14h.91v.78h-.91v2.65c0 .41.18.6.58.6.11 0 .22 0 .32-.02v.78c-.18.03-.36.05-.55.05-.97 0-1.35-.37-1.35-1.3v-2.75h-.7v-.78h.7v-1.14h.99l.01-.01zm-22.47-.64l2.38 6.59h-1.08l-.6-1.78h-2.51l-.6 1.78H21.9l2.38-6.59h1.1-.01zm31.39 1.73c.11 0 .23.01.34.04v.92c-.14-.04-.29-.06-.44-.06-.29-.01-.57.1-.77.32-.2.21-.29.5-.26.79v2.85h-.99v-4.8h.94v.82h.02c.13-.53.61-.89 1.16-.87v-.01zm-5.2.8c-.8 0-1.27.62-1.27 1.65 0 1.03.47 1.65 1.27 1.65s1.27-.61 1.27-1.65-.47-1.65-1.27-1.65zm-20.95.04c-.75 0-1.26.65-1.26 1.61 0 .96.51 1.62 1.26 1.62s1.27-.63 1.27-1.62c0-.99-.5-1.61-1.27-1.61zm5.28 0c-.75 0-1.26.65-1.26 1.61 0 .96.51 1.62 1.26 1.62s1.27-.63 1.27-1.62c0-.99-.5-1.61-1.27-1.61zm-11.06-1.48h-.03l-.98 2.89h1.99l-.98-2.89zm34.71 1.43c-.32 0-.64.13-.87.35-.23.23-.36.54-.36.86h2.4c.02-.32-.1-.64-.32-.87-.22-.23-.53-.36-.86-.35l.01.01z" fill="#fff"/></svg>