<svg width="70" height="23" fill="none" xmlns="http://www.w3.org/2000/svg"><path d="M66.44 1.28H3.86A2.92 2.92 0 00.94 4.2v14.84a2.92 2.92 0 002.92 2.92h62.58a2.92 2.92 0 002.92-2.92V4.2a2.92 2.92 0 00-2.92-2.92z" fill="#000"/><path d="M66.44 1.28H3.86A2.92 2.92 0 00.94 4.2v14.84a2.92 2.92 0 002.92 2.92h62.58a2.92 2.92 0 002.92-2.92V4.2a2.92 2.92 0 00-2.92-2.92z" stroke="#A6A5A5"/><path fill-rule="evenodd" clip-rule="evenodd" d="M5.68 5.02c-.15.16-.25.42-.25.74v11.72c0 .33.09.58.25.74l.04.04 6.57-6.57v-.15L5.72 4.97l-.04.04v.01z" fill="#4AC6EC"/><path fill-rule="evenodd" clip-rule="evenodd" d="M14.47 13.89l-2.19-2.19v-.15l2.19-2.19 2.64 1.5c.74.42.74 1.11 0 1.53l-2.59 1.47-.05.03z" fill="url(#paint0_linear_9244_27962)"/><path fill-rule="evenodd" clip-rule="evenodd" d="M14.52 13.86l-2.24-2.24-6.6 6.6c.24.26.65.29 1.1.03l7.74-4.4v.01z" fill="url(#paint1_linear_9244_27962)"/><path fill-rule="evenodd" clip-rule="evenodd" d="M14.52 9.38l-7.74-4.4c-.45-.26-.86-.23-1.1.03l6.6 6.6 2.24-2.24v.01z" fill="url(#paint2_linear_9244_27962)"/><path fill-rule="evenodd" clip-rule="evenodd" d="M55.78 17.43h.99V10.8h-.99v6.63zm8.91-4.24l-1.13 2.87h-.03l-1.18-2.87h-1.07l1.77 4.02-1.01 2.23h1.03l2.72-6.25h-1.1zm-5.61 3.49c-.32 0-.78-.16-.78-.56 0-.51.56-.71 1.05-.71.44 0 .64.09.9.22a1.21 1.21 0 01-1.18 1.05h.01zm.12-3.64c-.72 0-1.46.32-1.77 1.02l.88.37c.19-.37.54-.49.9-.49.51 0 1.03.31 1.04.85v.07a2.2 2.2 0 00-1.03-.26c-.95 0-1.91.52-1.91 1.49 0 .89.78 1.46 1.65 1.46.67 0 1.03-.3 1.26-.65h.03v.51h.96v-2.54c0-1.18-.88-1.83-2.01-1.83zm-6.12.96h-1.41v-2.27h1.41c.74 0 1.16.61 1.16 1.14 0 .53-.42 1.14-1.16 1.14V14zm-.02-3.2h-2.37v6.63h.99v-2.51h1.38c1.1 0 2.18-.79 2.18-2.06s-1.08-2.06-2.18-2.06zm-12.93 5.88c-.68 0-1.26-.57-1.26-1.36 0-.79.57-1.38 1.26-1.38.69 0 1.2.58 1.2 1.38 0 .8-.53 1.36-1.2 1.36zm1.13-3.12h-.03c-.22-.26-.65-.5-1.19-.5-1.13 0-2.16.99-2.16 2.26 0 1.27 1.03 2.25 2.16 2.25.54 0 .97-.24 1.19-.51h.03v.32c0 .86-.46 1.32-1.2 1.32-.61 0-.98-.44-1.14-.8l-.86.36c.25.6.91 1.33 2 1.33 1.16 0 2.14-.68 2.14-2.35v-4.05h-.94v.37zm1.63 3.87h.99V10.8h-.99v6.63zm2.45-2.19c-.03-.87.68-1.32 1.18-1.32.39 0 .73.2.84.48l-2.02.84zm3.08-.75c-.19-.5-.76-1.44-1.93-1.44s-2.13.91-2.13 2.26c0 1.26.96 2.26 2.24 2.26 1.03 0 1.63-.63 1.88-1l-.77-.51c-.26.38-.61.62-1.11.62-.5 0-.86-.23-1.09-.68l3.02-1.25-.1-.26h-.01zm-24.03-.74v.96h2.29c-.07.54-.25.93-.52 1.2-.33.33-.85.7-1.77.7-1.41 0-2.51-1.14-2.51-2.55s1.1-2.55 2.51-2.55c.76 0 1.32.3 1.73.68l.68-.68c-.57-.55-1.33-.97-2.4-.97-1.93 0-3.55 1.57-3.55 3.5s1.62 3.5 3.55 3.5c1.04 0 1.83-.34 2.44-.98.63-.63.83-1.52.83-2.24 0-.22-.02-.43-.05-.6H24.4l-.01.03zm5.87 2.93c-.68 0-1.27-.56-1.27-1.37s.59-1.37 1.27-1.37 1.27.56 1.27 1.37-.59 1.37-1.27 1.37zm0-3.62c-1.25 0-2.26.95-2.26 2.26 0 1.31 1.02 2.26 2.26 2.26 1.24 0 2.26-.96 2.26-2.26 0-1.3-1.02-2.26-2.26-2.26zm4.94 3.62c-.68 0-1.27-.56-1.27-1.37s.59-1.37 1.27-1.37 1.27.56 1.27 1.37-.59 1.37-1.27 1.37zm0-3.62c-1.25 0-2.26.95-2.26 2.26 0 1.31 1.02 2.26 2.26 2.26 1.24 0 2.26-.96 2.26-2.26 0-1.3-1.02-2.26-2.26-2.26z" fill="#fff"/><path d="M23.73 7.99c-.11.16-.28.29-.48.37-.21.08-.44.12-.72.12-.28 0-.52-.06-.74-.19a1.4 1.4 0 01-.5-.55c-.12-.24-.18-.52-.18-.83v-.3c0-.51.12-.91.36-1.19.24-.28.57-.42 1.01-.42.35 0 .64.09.86.27.22.18.35.44.4.77h-.45c-.08-.45-.35-.67-.8-.67-.3 0-.53.11-.68.32-.15.21-.23.51-.23.91v.28c0 .38.09.68.26.91.17.22.41.34.71.34.17 0 .31-.02.44-.06.13-.04.23-.1.31-.19v-.76h-.79v-.36h1.23V8l-.01-.01zm2.52-1.12h-1.47v1.2h1.71v.37h-2.16V5.05h2.13v.37h-1.69v1.09h1.47v.37l.01-.01zm3.05-1.46h-1.09v3.03h-.45V5.41h-1.09v-.37h2.62v.37h.01zm1.78 3.03h-.45V5.05h.45v3.39zm2.96-3.03h-1.09v3.03h-.45V5.41h-1.09v-.37h2.62v.37h.01zm3.91 1.44c0 .33-.06.62-.17.87-.11.25-.27.44-.48.57-.21.13-.44.2-.72.2-.28 0-.5-.07-.71-.2-.21-.13-.37-.32-.48-.56-.11-.24-.17-.53-.17-.85v-.24c0-.33.06-.61.17-.86.11-.25.27-.44.48-.57.21-.13.45-.2.71-.2.26 0 .51.07.72.2.21.13.37.32.48.57.11.25.17.54.17.87v.21-.01zm-.44-.22c0-.4-.08-.71-.24-.92-.16-.22-.39-.32-.68-.32-.29 0-.51.11-.67.32-.16.21-.24.51-.25.89v.25c0 .39.08.7.24.92.16.22.39.33.68.33.29 0 .51-.11.67-.32.16-.21.24-.51.24-.91v-.25l.01.01zm3.58 1.81h-.45l-1.71-2.62v2.62h-.45V5.05h.45l1.71 2.63V5.05h.45v3.39z" fill="#fff"/><defs><linearGradient id="paint0_linear_9244_27962" x1="16.63" y1="11.62" x2="12.29" y2="11.62" gradientUnits="userSpaceOnUse"><stop stop-color="#FDBB11"/><stop offset="1" stop-color="#FDD900"/></linearGradient><linearGradient id="paint1_linear_9244_27962" x1="12.86" y1="13.19" x2="7.19" y2="17.87" gradientUnits="userSpaceOnUse"><stop stop-color="#E22453"/><stop offset="1" stop-color="#EE3F49"/></linearGradient><linearGradient id="paint2_linear_9244_27962" x1="7.29" y1="5.12" x2="11.07" y2="8.45" gradientUnits="userSpaceOnUse"><stop stop-color="#4CB970"/><stop offset="1" stop-color="#66BD68"/></linearGradient></defs></svg>