<svg width="49" height="49" fill="none" xmlns="http://www.w3.org/2000/svg"><path d="M38.16.5H10.02C4.486.5 0 4.986 0 10.52v28.14c0 5.534 4.486 10.02 10.02 10.02h28.14c5.534 0 10.02-4.486 10.02-10.02V10.52C48.18 4.986 43.694.5 38.16.5z" fill="url(#paint0_linear_206_88)"/><path d="M11 30.96V32c0 2.36 5.86 4.28 13.09 4.28 7.23 0 13.09-1.91 13.09-4.28v-1.04c-2.49 2.03-7.37 3.37-13.09 3.37s-10.61-1.35-13.1-3.37H11z" fill="#fff"/><path d="M24.09 33.69c5.79 0 10.91-1.51 13.09-3.61V15.32l-6.07 8.58L33 27.17l-.41.58-2.09-3.62h.01L24.1 12.9l-6.4 11.23-2.09 3.63-.41-.59 1.89-3.27-6.07-8.58v14.76c2.19 2.1 7.3 3.62 13.09 3.62l-.02-.01z" fill="#fff"/><defs><linearGradient id="paint0_linear_206_88" x1="0" y1="24.59" x2="48.18" y2="24.59" gradientUnits="userSpaceOnUse"><stop stop-color="#D91F27"/><stop offset="1" stop-color="#ED3331"/></linearGradient></defs></svg>