<svg width="320" height="79" fill="none" xmlns="http://www.w3.org/2000/svg"><g clip-path="url(#clip0_2_84)"><mask id="a" style="mask-type:luminance" maskUnits="userSpaceOnUse" x="0" y="0" width="320" height="79"><path d="M319.723 0H0v78.927h319.723V0z" fill="#fff"/></mask><g mask="url(#a)" fill="#fff"><path d="M44.311 31.214c0 2.627-2.14 4.759-4.777 4.759s-4.777-2.132-4.777-4.759c0-2.627 2.14-4.758 4.777-4.758 2.638 0 4.777 2.131 4.777 4.758zm0 22.731c0 2.627-2.14 4.758-4.777 4.758s-4.777-2.13-4.777-4.758c0-2.627 2.14-4.758 4.777-4.758 2.638 0 4.777 2.13 4.777 4.758zM28.122 37.824c2.638 0 4.777 2.13 4.777 4.758 0 2.627-2.14 4.758-4.777 4.758s-4.777-2.13-4.777-4.758c0-2.627 2.14-4.758 4.777-4.758zm22.824 0c2.638 0 4.777 2.13 4.777 4.758 0 2.627-2.14 4.758-4.777 4.758s-4.777-2.13-4.777-4.758c0-2.627 2.14-4.758 4.777-4.758z"/><path d="M39.534.28C21.118.28 5.51 12.185 0 28.683 6.414 15.253 20.16 5.966 36.085 5.966c22.06 0 39.94 17.812 39.94 39.785 0 13.857-7.114 26.047-17.895 33.17C71.802 72.116 81.2 58.048 81.2 41.784 81.199 18.863 62.548.28 39.534.28zm52.33 20.48c0-1.437-.078-6.177-.115-6.797-.12-2.255-.743-2.333-2.03-2.333H88.47c-.276 0-.276-.042-.276-.35v-.89c0-.235.041-.35.313-.35.507 0 2.38.115 6.082.115 1.25 0 3.587-.115 6.239-.115 2.808 0 5.302.271 6.667 1.048 2.223 1.203 3.002 2.99 3.002 5.281 0 2.563-1.559 5.053-5.695 6.408v.078c4.837 1.245 7.373 3.578 7.373 7.693 0 2.1-1.171 4.974-3.043 5.902-1.6.818-4.33 1.438-9.167 1.438-.35 0-1.364-.078-2.457-.115a49.464 49.464 0 00-3.08-.115c-1.95 0-3.237.037-4.095.037-.82.041-1.25.078-1.522.078-.391 0-.428-.115-.428-.427v-.854c0-.235.037-.313.392-.313h1.364c1.172 0 1.365-.468 1.522-1.63.115-.896.194-6.022.194-9.205V20.76h.009zm5.694 1.59c1.6.156 4.095-.074 5.229-1.089 1.287-1.125 1.872-2.875 1.872-4.584 0-1.479-.47-3.031-1.6-3.927-1.323-1.047-3.236-1.396-3.665-1.396-.817 0-1.679.037-1.716.661-.078.777-.12 4.157-.12 7.381v2.954zm0 9.011c0 3.693.858 5.209 2.928 5.209 2.767 0 5.381-1.36 5.381-6.215 0-3.146-1.401-5.204-3.508-6.021-1.951-.74-3.823-.662-4.796-.662v7.694l-.005-.005zm23.313-17.747c0-1.36-.276-1.98-1.092-1.98h-1.836c-.23 0-.272-.078-.272-.349v-.932c0-.235.042-.308.351-.308.387 0 2.301.115 6.395.115 3.431 0 5.303-.115 5.732-.115.313 0 .355.078.355.308v1.01c0 .193-.042.271-.314.271h-1.323c-1.323 0-1.987.735-2.066 1.516-.037.427-.078 3.068-.078 5.048v2.563c0 2.057.157 6.99.193 8.235.042 1.787.392 3.532 1.25 4.62 1.286 1.553 3.122 2.173 4.874 2.173 1.443 0 3.55-.74 4.601-1.709 1.564-1.4 2.458-3.536 2.458-6.333v-5.98c0-3.266-.392-7.538-.549-8.429-.156-1.01-.779-1.708-1.443-1.708h-1.249c-.236 0-.277-.115-.277-.313v-1.01c0-.193.037-.271.277-.271.392 0 2.185.115 4.832.115 2.107 0 3.357-.115 3.702-.115.346 0 .392.156.392.349v.854c0 .234-.041.39-.235.39h-1.208c-1.48 0-1.6 1.09-1.678 1.475-.079.542-.079 5.902-.079 6.448 0 .547-.078 7.345-.193 8.856-.235 3.187-1.287 5.63-3.316 7.418-1.715 1.515-4.366 2.406-6.902 2.406-1.831 0-4.33-.27-5.967-.969-1.872-.817-3.587-2.64-4.523-5.126-.664-1.667-.821-4.271-.821-9.36v-9.168l.009.005zm41.176-1.672h-1.365c-1.249 0-3.587.037-5.224.62-.862.62-2.573 2.99-3.55 4.386-.115.198-.235.313-.392.276l-.858-.313c-.157-.04-.193-.234-.157-.349.429-1.63 1.72-6.756 1.877-7.532.115-.505.309-.662.586-.662.276 0 .392.157.742.584.429.542 1.167.895 2.573.974 2.07.114 3.707.23 7.76.23h2.264c4.252 0 5.93-.157 7.567-.23.857-.042 2.379-.506 2.849-.974.388-.386.618-.584.895-.584s.392.157.466.62c.115.855.857 5.673 1.166 7.73.042.157-.032.308-.152.35l-.821.312c-.152.037-.23-.078-.387-.35-.858-1.4-2.384-3.416-3.357-4.349-.977-.583-4.445-.734-5.339-.734h-1.287V22.63c0 .542 0 11.418.042 12.001.078.97.392 1.553 1.328 1.553h1.756c.351 0 .392.115.392.39v.891c0 .193-.041.313-.392.313-.396 0-1.636-.115-5.966-.115s-5.773.115-6.317.115c-.314 0-.351-.157-.351-.464v-.74c0-.27.037-.39.272-.39h1.988c.779 0 1.249-.469 1.328-1.167.074-.817.074-12.74.074-13.48v-9.595h-.01zm33.49 0h-1.365c-1.25 0-3.588.037-5.224.62-.863.62-2.578 2.99-3.546 4.386-.116.198-.235.313-.392.276l-.858-.313c-.157-.04-.194-.234-.157-.349.429-1.63 1.716-6.756 1.872-7.532.116-.505.309-.662.586-.662.277 0 .387.157.742.584.425.542 1.167.895 2.573.974 2.061.114 3.698.23 7.756.23h2.259c4.252 0 5.935-.157 7.571-.23.853-.042 2.37-.506 2.841-.974.396-.386.622-.584.899-.584s.387.157.466.62c.115.855.862 5.673 1.166 7.73.037.157-.037.308-.152.35l-.821.312c-.152.037-.23-.078-.392-.35-.857-1.4-2.374-3.416-3.352-4.349-.973-.583-4.449-.734-5.339-.734h-1.287V22.63c0 .542 0 11.418.037 12.001.079.97.387 1.553 1.323 1.553h1.753c.355 0 .396.115.396.39v.891c0 .193-.037.313-.396.313-.388 0-1.633-.115-5.967-.115s-5.768.115-6.312.115c-.314 0-.351-.157-.351-.464v-.74c0-.27.037-.39.272-.39h1.992c.779 0 1.245-.469 1.324-1.167.073-.817.073-12.74.073-13.48v-9.595h.01zm28.232 23.773c-2.771-1.672-5.736-5.865-5.736-11.537 0-2.37.628-6.059 3.625-9.673 3.435-4.157 7.838-4.933 11.347-4.933 3.237 0 6.239.505 9.517 3.068 2.96 2.329 5.344 6.256 5.344 11.616 0 2.834-.899 5.787-2.923 8.506-2.536 3.146-5.851 5.475-12.012 5.475-2.692 0-6.086-.62-9.166-2.526l.004.004zm17.974-11.147c0-8.506-5.616-13.168-8.89-13.168-.779 0-2.73-.193-5.109 2.099-2.296 2.177-3.467 6.251-3.467 9.439 0 9.944 5.731 13.476 8.973 13.476 7.211 0 8.498-8.663 8.498-11.846h-.005zm37.118 1.782c0-3.454-.037-5.36-.111-7.303-.036-1.51-.23-5.319-.355-5.902-.23-.969-1.166-1.515-2.065-1.515h-1.245c-.194 0-.235-.115-.235-.35v-.973c0-.193.041-.271.35-.271.429 0 1.678.115 4.565.115 2.338 0 3.274-.115 3.702-.115.351 0 .392.078.392.308v.932c0 .193-.041.349-.193.349h-1.098c-.659 0-1.051.661-1.162 2.058-.276 2.604-.903 11.381-.903 16.507v6.641c0 .584-.037 1.282-.581 1.282a2.072 2.072 0 01-1.522-.62c-.664-.62-2.573-2.683-4.911-5.438-2.808-3.303-5.929-7.032-6.672-7.886-.659-.777-6.045-7.455-6.939-8.741h-.318v7.85c0 3.224.355 8 .396 9.475.074 2.255.78 3.417 2.416 3.417h.978c.272 0 .309.115.309.35v.931c0 .23-.037.313-.309.313-.392 0-2.73-.115-4.565-.115-1.213 0-3.901.115-4.288.115-.157 0-.194-.078-.194-.35v-1.01c0-.115.037-.23.231-.23h1.369c.853 0 1.476-1.244 1.669-3.844.042-.74.351-6.954.351-12.704v-3.495c0-2.292-1.402-4.465-3.348-4.506l-.973-.041c-.198 0-.235-.157-.235-.271v-1.048c0-.156.042-.234.235-.234.194 0 .508.037 1.245.037.784.037 2.029.078 4.058.078 1.323 0 2.494-.078 2.96-.078.507 0 .821.156 1.134.505.194.234 7.876 9.595 9.043 11.033.548.661 6.238 7.771 6.672 8.272h.152V26.34l-.005.01zm24.526 2.724c.152 0 .272.037.272.312.074 1.204.622 2.875 1.558 4.387 1.135 1.786 3.039 2.64 4.916 2.64 1.876 0 4.873-1.244 4.873-4.312 0-3.225-.622-4.157-5.69-6.059-1.171-.427-3.661-1.671-5.653-3.38-1.364-1.203-1.955-3.261-1.955-5.516 0-2.37.591-3.964 2.928-5.714 1.753-1.323 3.233-1.865 5.612-1.865 2.845 0 4.366.469 5.187.777.392.156.669.078.899-.193l.503-.506a.801.801 0 01.585-.234c.273 0 .351.427.388.662l.627 6.641c0 .156-.078.193-.194.23l-.857.275c-.199.078-.392 0-.508-.275-.428-1.126-1.092-2.641-2.42-4.038-.969-1.088-2.144-1.63-3.897-1.63-2.928 0-4.136 2.526-4.136 3.537 0 1.437.037 2.6 1.01 3.573 1.019 1.047 3.237 1.98 5.151 2.521 1.872.547 3.389 1.516 4.993 2.954 1.517 1.36 2.144 3.068 2.144 5.787 0 4.735-3.389 8.584-8.539 8.584-3.509 0-5.34-.583-6.976-1.672-.471-.312-.706-.427-.895-.427-.235 0-.392.271-.627.657-.231.427-.429.469-.696.469-.425 0-.591-.193-.544-.625l.617-7.381c.037-.271.157-.271.319-.271l1.014.078-.009.014zM89 53.394v-9.848h1.587V47.7h5.316v-4.153h1.586v9.848h-1.586v-4.648h-5.316v4.648H89zm11.367 0v-9.848h6.243v1.043h-4.662v3.16h3.906v1.033h-3.906v3.565h4.985v1.047h-6.571.005zm7.068 0l4.431-9.848h1.573l4.362 9.848h-1.711l-1.213-2.724h-4.74l-1.236 2.724h-1.47.004zm3.154-3.766h3.827l-1.909-4.254-1.913 4.254h-.005zm11.486 3.766v-8.805h-3.966v-1.043h9.513v1.043h-3.966v8.805h-1.586.005zm7.11 0v-9.848h1.586v9.848h-1.586zm4.463 0v-9.848h1.554l5.626 7.607v-7.607h1.36v9.848h-1.545l-5.63-7.602v7.602h-1.365zm19.818-.267c-1.351.34-2.531.515-3.541.515-1.775 0-3.14-.446-4.085-1.337-.95-.886-1.425-2.168-1.425-3.835 0-1.667.48-2.916 1.443-3.817.964-.9 2.32-1.355 4.067-1.355 1.121 0 2.296.152 3.527.446v1.29c-1.54-.459-2.72-.693-3.541-.693-1.208 0-2.144.363-2.812 1.08-.664.72-1.001 1.736-1.001 3.05 0 1.313.355 2.31 1.07 3.035.71.721 1.715 1.084 3.001 1.084a6.62 6.62 0 001.711-.248v-3.206h1.586v3.992zm14.244.267l-.554-.583c-.825.55-1.789.83-2.891.83-1.166 0-2.13-.298-2.882-.895-.751-.597-1.129-1.355-1.129-2.278 0-1.516.908-2.544 2.725-3.086-.503-.804-.752-1.475-.752-2.003 0-.579.258-1.07.784-1.474.521-.4 1.167-.602 1.918-.602.752 0 1.323.188 1.794.565.47.372.705.85.705 1.428 0 .983-.821 1.842-2.457 2.568a20.184 20.184 0 002.623 3.28c.457-.593.683-1.425.683-2.504v-.477h1.48c0 1.455-.494 2.71-1.48 3.766.456.505.973.996 1.549 1.47h-2.112l-.004-.005zm-1.204-1.341a30.174 30.174 0 01-3.016-3.895c-1.166.409-1.747 1.07-1.747 1.989 0 .698.267 1.29.802 1.777.535.487 1.19.73 1.96.73.696 0 1.365-.197 1.996-.601h.005zm-2.079-5.025c1.069-.432 1.609-1.001 1.609-1.713 0-.313-.106-.56-.323-.744-.217-.189-.498-.28-.844-.28s-.632.096-.839.284c-.212.189-.314.437-.314.749 0 .45.236 1.024.711 1.709v-.005zm11.07 6.366l4.436-9.848h1.573l4.361 9.848h-1.706l-1.217-2.724h-4.74l-1.231 2.724h-1.476zm3.159-3.766h3.822l-1.909-4.254-1.913 4.254zm8.816 3.766v-9.848h1.591v9.848h-1.591zm4.468 0v-9.848h3.38c1.074 0 1.9.207 2.467.625.567.418.853 1.024.853 1.819 0 .625-.199 1.185-.595 1.672-.392.487-.945.863-1.66 1.125l3.726 4.611h-1.946l-3.182-4.165h-1.475v4.166h-1.573l.005-.005zm1.572-5.209h.512c.978 0 1.729-.174 2.236-.523.503-.354.761-.864.761-1.539 0-1.02-.834-1.53-2.508-1.53h-1.001v3.592zm21.492 4.704c-1.102.5-2.305.753-3.615.753-1.734 0-3.08-.45-4.021-1.346-.945-.895-1.42-2.172-1.42-3.821 0-1.65.48-2.921 1.443-3.826.964-.9 2.324-1.355 4.081-1.355.996 0 2.167.142 3.518.436v1.31c-1.535-.465-2.716-.699-3.541-.699-1.222 0-2.153.363-2.817 1.084-.669.721-.996 1.74-.996 3.059 0 1.318.35 2.25 1.06 2.976.71.726 1.683 1.084 2.914 1.084 1.056 0 2.181-.29 3.394-.859v1.204zm6.875.753c-1.586 0-2.85-.469-3.804-1.406-.95-.936-1.42-2.195-1.42-3.761 0-1.566.475-2.825 1.42-3.767.95-.936 2.218-1.405 3.804-1.405 1.586 0 2.854.469 3.799 1.406.95.936 1.425 2.195 1.425 3.766 0 1.57-.475 2.825-1.425 3.761-.945.937-2.213 1.406-3.799 1.406zm0-1.047c1.111 0 1.983-.363 2.605-1.093.627-.73.936-1.746.936-3.046 0-1.3-.309-2.3-.936-3.026-.622-.726-1.494-1.089-2.605-1.089s-1.983.363-2.605 1.089c-.623.725-.936 1.736-.936 3.026 0 1.291.313 2.315.936 3.046.622.73 1.494 1.093 2.605 1.093zm7.442.799v-9.848h1.554l5.625 7.607v-7.607h1.361v9.848h-1.545l-5.635-7.602v7.602h-1.36zm11.421 0v-9.848h3.717c1.106 0 2.001.106 2.683.327a4.12 4.12 0 011.771 1.102c.793.822 1.185 1.91 1.185 3.26 0 1.526-.461 2.757-1.393 3.698a4.323 4.323 0 01-1.747 1.121c-.664.225-1.489.34-2.476.34h-3.744.004zm1.587-1.047h2.033c1.452 0 2.476-.345 3.08-1.034.646-.73.978-1.713.978-2.949 0-1.157-.323-2.066-.959-2.728a2.973 2.973 0 00-1.388-.827c-.535-.146-1.347-.224-2.43-.224h-1.31v7.757l-.004.005zm9.996 1.047v-9.848h1.582v9.848h-1.582zm7.115 0v-8.805h-3.966v-1.043h9.513v1.043h-3.961v8.805h-1.586zm7.114 0v-9.848h1.582v9.848h-1.582zm9.029.248c-1.591 0-2.854-.469-3.804-1.406-.946-.936-1.425-2.195-1.425-3.761 0-1.566.479-2.825 1.425-3.767.95-.936 2.213-1.405 3.804-1.405 1.59 0 2.854.469 3.804 1.406.945.936 1.42 2.195 1.42 3.766 0 1.57-.475 2.825-1.42 3.761-.95.937-2.223 1.406-3.804 1.406zm0-1.047c1.111 0 1.982-.363 2.605-1.093.622-.73.931-1.746.931-3.046 0-1.3-.309-2.3-.931-3.026-.623-.726-1.494-1.089-2.605-1.089-1.112 0-1.983.363-2.605 1.089-.628.725-.937 1.736-.937 3.026 0 1.291.309 2.315.937 3.046.622.73 1.489 1.093 2.605 1.093zm7.446.799v-9.848h1.554l5.626 7.607v-7.607h1.364v9.848h-1.549l-5.634-7.602v7.602h-1.361zm11.417 0v-9.848h1.591v9.848h-1.591zm4.464 0v-9.848h1.553l5.626 7.607v-7.607h1.365v9.848h-1.55l-5.634-7.602v7.602h-1.36zm19.817-.267c-1.355.34-2.536.515-3.541.515-1.775 0-3.14-.446-4.09-1.337-.945-.886-1.42-2.168-1.42-3.835 0-1.667.48-2.916 1.443-3.817.964-.9 2.32-1.355 4.067-1.355 1.121 0 2.301.152 3.523.446v1.29c-1.536-.459-2.721-.693-3.537-.693-1.208 0-2.148.363-2.812 1.08-.669.72-1.001 1.736-1.001 3.05 0 1.313.355 2.31 1.07 3.035.714.721 1.71 1.084 3.002 1.084.525 0 1.097-.083 1.71-.248v-3.206h1.586v3.992zM295.318 0s-5.769 4.125-.757 10.458c0 0 3.436 4.529 1.278 7.9 0 0 5.487-4.593.415-10.109 0 0-4.261-4.648-.936-8.249z"/><path d="M291.371 4.207s4.454 3.179.585 8.061c0 0-2.651 3.49-.987 6.09 0 0-4.228-3.54-.318-7.794 0 0 3.283-3.583.72-6.357zM116.237 64.61s-.493 1.02-.733 1.525c-.479 1.033-.926 1.892-.751 3.054a1.05 1.05 0 01-.429.11c-.447 0-.687-.316-.687-.748 0-.588.512-1.46.798-1.97 1.387-2.384 2.808-5.071 3.96-7.267-.064-.367-.096-.574-.285-.89.161-.047.304-.079.461-.079.558 0 .797.368.862.873l.336 2.64c.111.814.24 1.608.351 2.417.207 1.4.369 3.642 1.037 4.928-.193.046-.369.096-.558.096-.83 0-.926-.49-.991-1.207-.097-1.162-.272-2.306-.429-3.482h-2.942zm2.873-.542c-.161-1.258-.35-2.577-.609-3.849l-2.01 3.85h2.619zm9.402 1.911c-.609 1.065-1.148 2.13-1.531 3.293-.065.014-.143.014-.207.014-.24 0-.448-.11-.526-.35-.175-.573-.208-1.446-.272-2.034-.079-.78-.222-1.557-.351-2.338-.636.97-2.042 3.72-2.3 4.708-.079.014-.162.014-.24.014-.766 0-.637-1.654-.637-2.113 0-1.415-.129-3.564-.608-4.896.175-.046.369-.11.558-.11.161 0 .35 0 .479.096.337.239.337 1.525.351 1.892l.193 3.385c.655-1.226 1.31-2.654 2.061-3.784-.096-.524-.207-.956-.428-1.433.207-.097.35-.143.576-.143.558 0 .784.368.83.873.046.51.097 1.034.161 1.543a68.39 68.39 0 00.402 3.197c.318-.556.557-1.144.843-1.718.415-.84 1.005-1.704 1.005-2.673 0-.46-.046-.67-.368-1.001.207-.239.368-.317.687-.317.525 0 .751.27.751.78 0 .892-1.07 2.5-1.42 3.12l-.009-.005zm6.414 1.718c0 .523.143.955.336 1.446-.193.032-.382.079-.576.079-.544 0-.733-.336-.733-.827 0-.271.046-.556.097-.827-.369.813-1.07 1.731-2.062 1.731-1.198 0-1.756-1.079-1.756-2.144 0-2.145 1.18-5.103 3.735-5.103.654 0 1.374.16 1.945.46-.304 1.432-.991 3.797-.991 5.185h.005zm-1.024-5.025c-2.043 0-2.697 2.83-2.697 4.45 0 .634.175 1.48.973 1.48 1.821 0 2.443-4.438 2.568-5.788-.286-.078-.544-.142-.849-.142h.005zm7.248.652c-.143-.064-.304-.129-.461-.129-.843 0-1.646 1.144-1.945 1.828-.383.873-.752 2.61-.752 3.56 0 .207.014.4.046.606-.129.019-.24.033-.369.033-.383 0-.622-.143-.622-.542 0-.253.032-.51.097-.75.272-1.143.751-3.054.751-4.211 0-.606-.046-.873-.383-1.383.143-.064.319-.128.48-.128.655 0 .765.652.765 1.176 0 .335-.046.652-.11.969.401-.62 1.355-2.274 2.236-2.274.318 0 .526.285.526.588 0 .24-.129.46-.254.652l-.005.005zm5.524.271c-.318 1.318-.636 2.641-.636 4.005 0 .684 0 .956.337 1.557-.208.032-.415.097-.623.097-.765 0-.687-.873-.687-1.401-.544.78-1.116 1.414-2.121 1.414-1.166 0-1.724-.969-1.724-2.034 0-1.925 1.212-5.168 3.545-5.168.545 0 .798.13 1.199.478a7.894 7.894 0 00.254-2.02c0-.906-.032-1.59-.369-2.435.161-.046.337-.11.512-.11.876 0 .94.937.94 1.607 0 1.35-.318 2.687-.622 4.005l-.005.005zm-1.881-.937c-1.724 0-2.508 3.1-2.508 4.405 0 .652.129 1.447.94 1.447 1.66 0 2.172-2.72 2.393-3.96.065-.335.13-.684.13-1.02 0-.541-.448-.872-.96-.872h.005zm17.891-.657c-.798 1.828-1.628 3.675-2.315 5.535-.208.556-.383 1.13-.59 1.704h-.194c-.401 0-.493-.225-.576-.574-.591-2.526-.959-5.09-1.55-7.615-1.438 2.654-2.872 5.424-3.896 8.267h-.161c-.623 0-.687-.78-.733-1.24-.065-.666-.111-1.337-.176-2.003-.175-1.75-.415-3.5-.641-5.25-.11-.845-.161-1.465-.576-2.227.194-.078.383-.143.59-.143.766 0 .895.607.959 1.24.24 2.61.48 5.186.849 7.777a48.54 48.54 0 012.301-4.864c.428-.813.894-1.622 1.291-2.449-.143-.555-.318-1.02-.623-1.51.194-.13.401-.24.641-.24.701 0 .927.75 1.005 1.319.111.698.189 1.4.318 2.099.337 1.846.734 3.688 1.167 5.516.844-1.847 2.776-6.283 2.776-8.222a1.76 1.76 0 00-.111-.638c.162-.046.318-.11.494-.11.479 0 .7.367.7.813 0 .698-.668 2.177-.959 2.815h.01zm2.342 3.817c-.221.905-.429 1.814-.429 2.751 0 .207.032.414.046.62-.129.032-.24.065-.369.065-.447 0-.654-.253-.654-.685 0-.574.189-1.24.336-1.796.272-1.097.544-2.273.544-3.403 0-.381-.046-.749-.11-1.13.11-.014.221-.032.336-.032.512 0 .72.4.72.859 0 .923-.208 1.828-.415 2.751h-.005zm.701-4.832c-.429 0-.844-.303-.844-.762 0-.35.24-.588.59-.588.72 0 .461.813.701 1.272a1.43 1.43 0 01-.447.078zm5.957 4.74c-.11.606-.175 1.208-.175 1.828 0 .666.014.97.286 1.576a1.216 1.216 0 01-.526.142c-.655 0-.784-.666-.784-1.194 0-.717.143-1.415.305-2.118.143-.698.286-1.4.286-2.112 0-.556-.222-1.02-.844-1.02-2.043 0-2.748 4.96-2.555 6.393a2.882 2.882 0 01-.401.033c-.401 0-.655-.24-.655-.556 0-.285.097-.717.162-1.001.253-1.112.622-2.687.622-3.817 0-.588-.064-1.02-.336-1.544.193-.064.382-.128.59-.128.908 0 .641.937.641 1.525.429-.827 1.037-1.672 2.061-1.672 1.023 0 1.646.78 1.646 1.764 0 .633-.194 1.272-.318 1.892l-.005.01zm6.912 0a10.073 10.073 0 00-.175 1.828c0 .666.014.97.286 1.576a1.216 1.216 0 01-.526.142c-.655 0-.784-.666-.784-1.194 0-.717.143-1.415.304-2.118.143-.698.286-1.4.286-2.112 0-.556-.221-1.02-.843-1.02-2.043 0-2.749 4.96-2.555 6.393a2.882 2.882 0 01-.401.033c-.401 0-.655-.24-.655-.556 0-.285.097-.717.162-1.001.253-1.112.622-2.687.622-3.817 0-.588-.065-1.02-.337-1.544.189-.064.383-.128.591-.128.908 0 .641.937.641 1.525.428-.827 1.037-1.672 2.061-1.672 1.023 0 1.646.78 1.646 1.764 0 .633-.194 1.272-.318 1.892l-.005.01zm3.08.092c-.221.905-.429 1.814-.429 2.751 0 .207.033.414.046.62-.129.032-.239.065-.369.065-.447 0-.654-.253-.654-.685 0-.574.193-1.24.336-1.796.272-1.097.544-2.273.544-3.403 0-.381-.046-.749-.11-1.13.11-.014.221-.032.336-.032.512 0 .72.4.72.859 0 .923-.208 1.828-.415 2.751h-.005zm.701-4.832c-.429 0-.844-.303-.844-.762 0-.35.24-.588.59-.588.72 0 .461.813.701 1.272a1.43 1.43 0 01-.447.078zm5.953 4.74a10.074 10.074 0 00-.176 1.828c0 .666.014.97.286 1.576a1.208 1.208 0 01-.525.142c-.655 0-.784-.666-.784-1.194 0-.717.143-1.415.304-2.118.143-.698.286-1.4.286-2.112 0-.556-.221-1.02-.848-1.02-2.043 0-2.744 4.96-2.555 6.393a2.882 2.882 0 01-.401.033c-.401 0-.655-.24-.655-.556 0-.285.097-.717.162-1.001.253-1.112.622-2.687.622-3.817 0-.588-.064-1.02-.336-1.544.189-.064.382-.128.59-.128.908 0 .641.937.641 1.525.428-.827 1.037-1.672 2.061-1.672 1.023 0 1.646.78 1.646 1.764 0 .633-.194 1.272-.318 1.892v.01zm6.607 1.525c-.415 2.434-1.438 5.535-4.454 5.535-.48 0-1.499-.161-1.499-.813 0-.253.111-.427.254-.62.512.427 1.024.652 1.692.652 2.283 0 2.633-2.26 2.937-4.01-.511.717-1.102 1.227-2.028 1.227-1.278 0-1.725-1.066-1.725-2.178 0-2.099 1.199-4.992 3.67-4.992.734 0 1.471.193 2.14.477-.447 1.544-.719 3.133-.991 4.722h.004zm-1.277-4.58c-1.932 0-2.555 2.945-2.555 4.438 0 .606.351 1.382 1.056 1.382.766 0 1.485-.923 1.739-1.557.461-1.144.719-2.83.876-4.07-.401-.11-.701-.192-1.116-.192zm11.573-2.117c-.415-.858-1.115-1.492-2.121-1.492-.94 0-1.581.716-1.581 1.64 0 2.163 3.449 2.608 3.449 5.341 0 1.782-1.499 3.243-3.274 3.243-.908 0-2.568-.666-2.568-1.75 0-.492.415-.666.83-.749.253 1.052 1.023 1.75 2.121 1.75 1.18 0 1.978-.923 1.978-2.067 0-2.416-3.417-2.737-3.417-5.36 0-1.589 1.264-2.687 2.827-2.687.701 0 2.393.51 2.393 1.401 0 .381-.337.574-.641.73h.004zm1.992 4.966a5.09 5.09 0 00-.253 1.543c0 .813.207 1.607 1.166 1.607.623 0 1.199-.349 1.628-.78.111.11.161.225.161.38 0 .685-1.517 1.08-2.075 1.08-1.291 0-1.853-.905-1.853-2.099 0-1.814 1.277-5.277 3.481-5.277.701 0 1.323.367 1.323 1.13 0 1.607-2.328 2.209-3.573 2.415h-.005zm2.029-2.972c-1.005 0-1.614 1.672-1.853 2.416.83-.143 2.457-.698 2.457-1.764 0-.317-.272-.652-.608-.652h.004zm6.128.776c-.143-.064-.304-.129-.461-.129-.844 0-1.646 1.144-1.946 1.828-.382.873-.751 2.61-.751 3.56 0 .207.013.4.046.606-.129.019-.24.033-.369.033-.383 0-.623-.143-.623-.542 0-.253.033-.51.097-.75.272-1.143.752-3.054.752-4.211 0-.606-.046-.873-.383-1.383.143-.064.318-.128.48-.128.654 0 .765.652.765 1.176 0 .335-.046.652-.111.969.402-.62 1.356-2.274 2.237-2.274.318 0 .525.285.525.588 0 .24-.129.46-.253.652l-.005.005zm5.284 1.254c-.719 1.08-1.452 2.145-2.061 3.293-.253.478-.461.937-.655 1.433-.064 0-.129.014-.193.014-.48 0-.512-.4-.544-.78-.143-1.576-.429-4.93-1.038-6.252.194-.064.383-.11.59-.11.176 0 .383.014.512.142.162.143.222.524.286.956.221 1.414.337 2.86.526 4.294.636-1.08 2.268-3.325 2.268-4.69 0-.303-.078-.413-.272-.638.208-.096.415-.193.655-.193.415 0 .752.285.752.717 0 .62-.494 1.318-.83 1.814h.004zm2.315 1.24c-.221.905-.429 1.814-.429 2.751 0 .207.032.414.046.62-.129.032-.24.065-.369.065-.447 0-.654-.253-.654-.685 0-.574.193-1.24.336-1.796.272-1.097.544-2.273.544-3.403 0-.381-.046-.749-.11-1.13.11-.014.221-.032.336-.032.512 0 .72.4.72.859 0 .923-.208 1.828-.415 2.751h-.005zm.701-4.832c-.429 0-.844-.303-.844-.762 0-.35.24-.588.59-.588.72 0 .461.813.701 1.272a1.43 1.43 0 01-.447.078zm5.076 2.494c-.336-.4-.622-.652-1.166-.652-1.517 0-2.236 3.054-2.236 4.244 0 .78.207 1.543 1.134 1.543.59 0 .844-.22 1.245-.62.097.11.194.239.194.381 0 .653-1.342.956-1.854.956-1.181 0-1.692-.86-1.692-1.957 0-1.86 1.199-5.342 3.513-5.342.447 0 1.056.193 1.056.73 0 .253-.097.492-.194.717zm1.531 2.04a5.09 5.09 0 00-.253 1.543c0 .813.207 1.607 1.166 1.607.623 0 1.199-.349 1.628-.78.111.11.161.225.161.38 0 .685-1.517 1.08-2.075 1.08-1.291 0-1.853-.905-1.853-2.099 0-1.814 1.277-5.277 3.481-5.277.701 0 1.323.367 1.323 1.13 0 1.607-2.328 2.209-3.573 2.415h-.005zm2.029-2.972c-1.005 0-1.614 1.672-1.853 2.416.83-.143 2.457-.698 2.457-1.764 0-.317-.272-.652-.608-.652h.004zm10.407-1.994c-.415-.858-1.116-1.492-2.121-1.492-.941 0-1.582.716-1.582 1.64 0 2.163 3.449 2.608 3.449 5.341 0 1.782-1.498 3.243-3.273 3.243-.909 0-2.569-.666-2.569-1.75 0-.492.415-.666.83-.749.254 1.052 1.024 1.75 2.121 1.75 1.181 0 1.979-.923 1.979-2.067 0-2.416-3.417-2.737-3.417-5.36 0-1.589 1.263-2.687 2.826-2.687.701 0 2.393.51 2.393 1.401 0 .381-.336.574-.641.73h.005zm2.2 5.264c-.222.905-.429 1.814-.429 2.751 0 .207.032.414.046.62-.129.032-.24.065-.369.065-.447 0-.655-.253-.655-.685 0-.574.189-1.24.337-1.796.272-1.097.544-2.273.544-3.403 0-.381-.046-.749-.111-1.13.111-.014.222-.032.337-.032.512 0 .719.4.719.859 0 .923-.207 1.828-.415 2.751h-.004zm.7-4.832c-.428 0-.843-.303-.843-.762 0-.35.239-.588.59-.588.719 0 .461.813.701 1.272a1.43 1.43 0 01-.448.078zm5.958 4.74a10.074 10.074 0 00-.176 1.828c0 .666.014.97.286 1.576a1.208 1.208 0 01-.525.142c-.655 0-.784-.666-.784-1.194 0-.717.143-1.415.304-2.118.143-.698.286-1.4.286-2.112 0-.556-.221-1.02-.844-1.02-2.042 0-2.748 4.96-2.554 6.393a2.894 2.894 0 01-.401.033c-.402 0-.655-.24-.655-.556 0-.285.097-.717.161-1.001.254-1.112.623-2.687.623-3.817 0-.588-.065-1.02-.337-1.544.194-.064.383-.128.59-.128.909 0 .641.937.641 1.525.429-.827 1.038-1.672 2.061-1.672 1.024 0 1.646.78 1.646 1.764 0 .633-.193 1.272-.318 1.892l-.004.01zm6.031-2.246c-.337-.4-.623-.652-1.167-.652-1.517 0-2.236 3.054-2.236 4.244 0 .78.207 1.543 1.134 1.543.59 0 .844-.22 1.245-.62.097.11.194.239.194.381 0 .653-1.342.956-1.854.956-1.18 0-1.692-.86-1.692-1.957 0-1.86 1.199-5.342 3.514-5.342.447 0 1.055.193 1.055.73 0 .253-.096.492-.189.717h-.004zm1.531 2.04a5.06 5.06 0 00-.254 1.543c0 .813.208 1.607 1.167 1.607.622 0 1.199-.349 1.627-.78.111.11.162.225.162.38 0 .685-1.517 1.08-2.075 1.08-1.291 0-1.854-.905-1.854-2.099 0-1.814 1.277-5.277 3.481-5.277.701 0 1.324.367 1.324 1.13 0 1.607-2.329 2.209-3.574 2.415h-.004zm2.029-2.972c-1.006 0-1.614 1.672-1.854 2.416.83-.143 2.458-.698 2.458-1.764 0-.317-.272-.652-.609-.652h.005zm8.94-.244c-.35 1.557-.816 4.515-.816 6.09 0 .318.014.607.065.905-.097.014-.194.014-.286.014-.637 0-.876-.284-.876-.904 0-.666.193-1.401.336-2.054.208-.955.401-1.924.577-2.893.161-.845.272-1.732.461-2.559-.286.226-1.199.938-1.564.938-.364 0-.525-.285-.525-.607 0-.128.032-.239.046-.367.078.018.175.018.254.018.83 0 1.853-.684 2.443-1.208.176.078.351.175.351.381 0 .556-.337 1.654-.461 2.242l-.005.004zm3.97 7.873c-.272.078-.544.142-.816.142-.383 0-1.056-.239-1.056-.698 0-.174.097-.4.143-.574.48.317.733.413 1.31.413 2.937 0 4.357-4.482 4.357-6.756 0-1.208-.576-2.467-1.964-2.467s-2.154 1.401-2.154 2.623c0 1.02.637 2.416 1.836 2.416.368 0 .636-.096.959-.253a.932.932 0 01.032.22c0 .589-.766.717-1.213.717-1.581 0-2.508-1.253-2.508-2.75 0-1.847 1.42-3.547 3.338-3.547 1.771 0 2.684 1.37 2.684 3.023 0 2.797-2.121 6.664-4.948 7.49zm8.618-5.503l1.821-2.609c.318-.459.59-.904.816-1.414-.557-.064-1.102-.064-1.66-.064-.765 0-2.25-.129-2.891.38a3.7 3.7 0 01-.285.208c-.065-.161-.065-.35-.065-.524 0-.698.526-.873 1.134-.873 1.148 0 2.061.193 3.463.193.415 0 .816-.032 1.213-.064-.079 1.13-.526 1.621-1.181 2.526-1.134 1.575-2.204 3.229-2.891 5.057-.382 1.001-.479 1.543-.525 2.623-.544-.033-1.038-.079-1.038-.73 0-1.209 1.407-3.721 2.094-4.709h-.005zm6.898 0l1.821-2.609c.318-.459.59-.904.816-1.414-.558-.064-1.102-.064-1.66-.064-.765 0-2.25-.129-2.891.38a3.528 3.528 0 01-.286.208c-.064-.161-.064-.35-.064-.524 0-.698.526-.873 1.134-.873 1.148 0 2.061.193 3.463.193.415 0 .816-.032 1.213-.064-.079 1.13-.526 1.621-1.181 2.526-1.134 1.575-2.204 3.229-2.891 5.057-.382 1.001-.479 1.543-.525 2.623-.544-.033-1.038-.079-1.038-.73 0-1.209 1.407-3.721 2.094-4.709h-.005z"/></g></g><defs><clipPath id="clip0_2_84"><path fill="#fff" d="M0 0h320v79H0z"/></clipPath></defs></svg>