<svg width="1000" height="563" fill="none" xmlns="http://www.w3.org/2000/svg"><path d="M318.94 275.186c-2.15.37-3-.67-3.37-2.46-.37-1.79-1.17-3.12-3.3-3a1.002 1.002 0 01-1.13-.92 1.33 1.33 0 01.92-1.39 5.21 5.21 0 013.51 0 5.53 5.53 0 003 .05c.93-.32 1.66-.74 1.65-1.83-.01-1.09-1-1.3-1.88-1.45a3.33 3.33 0 01-3-2.58c-.15-.68-.28-1.36-1.17-1.27a1.25 1.25 0 00-1.19 1.34 2.1 2.1 0 01-1.58 1.95l-3.4 1.18-1.83-.34c.73-.79.64-1.29-.38-1.67a1.919 1.919 0 01-1.421-1.884c.006-.284.074-.563.201-.816l.36-.48c.64-.14 1.28-.3 1.92-.42 3-.57 4-1.73 4-4.7-.022-.778.002-1.556.07-2.33.18-1.37 1-1.75 1.89-.78 1.63 1.72 3.45 3.32 4.52 5.5a6.009 6.009 0 001.73 2c1.61 1.3 3.59.54 3.79-1.45a3.678 3.678 0 013.17-3.37c.8-.2 1.35-.41 1.33-1.34-.02-.93 0-1.75-1.08-2-1.65-.38-2.14-1.47-2.14-3 0-3.81-1.56-5.12-5.37-4.62-1.6.21-2-.14-1.65-1.66a1.765 1.765 0 000-1.22c-.62-1.11-1.3-2.19.75-2.53.18 0 .36-.46.42-.73a7.56 7.56 0 013.72-4.66 5.93 5.93 0 002.67-3.87 2.002 2.002 0 00-2.08-2.6h-2.69c-3.3-.07-5.88-.94-7.88-4.11-1.43-2.27-3.21-4.59-7-4.63-11.26-.1-22.5 1.16-33.76.51-4.95-.29-9.89.7-14.85.2a8.273 8.273 0 00-2.13.26.627.627 0 00-.58.59c0 .4.34.45.63.45a1.708 1.708 0 011.58.62c-2 .23-3.73 1.44-5.8 1.17.48-1.2.24-1.91-1.14-2.34a12.127 12.127 0 00-3.49-.63c-8.59-.2-17.18.3-25.78.11-10.21-.22-20.42-.05-30.63 0l-67.45.06a17.23 17.23 0 01-5.66-.72 11.291 11.291 0 01-4-3.23c-1.46-2.07-1.32-4.44-1.32-6.83v-89c0-6.39 3.51-10 10-10l215 .16c1.33 0 2.06-.1 2.06-1.77 0-10.82.15-21.64.21-32.46 0-9.63 0-19.26.05-28.89 0-1.12.11-2.36-1.69-1.72-.23 0-.46-.07-.7-.07H121.84c-8.26 0-16.513-.027-24.76-.08a56.91 56.91 0 00-22.37 4.61c-9.48 4-18.51 8.75-25.62 16.43a48.84 48.84 0 00-8.22 11c-.11 0-.26.07-.31.15-3.72 6.3-6.3 13-6.2 20.41.4 30.56.843 61.12 1.33 91.68.28 17.39.14 34.8 1 52.19a41.948 41.948 0 0014 29.7c9 8.3 20 11.71 31.84 12.16 14.64.55 29.31.17 44 .19.89 0 1.78.12 2.28-1 .25-.54.87-.43 1.22 0 1 1.14 2.37 1 3.68 1h80.93a28.306 28.306 0 007.13-.57c1.91-.5 3.63-1.18 5.36.35.377.187.802.26 1.22.21h11.3c.48 0 1.08.08 1.34-.36.87-1.5 2.2-1.16 3.3-.65 2.35 1.09 4.8.76 7.23.83 1.23 0 1.74-.63 1.64-1.8-.07-.83-.2-1.65-.33-2.48-.13-.83 0-1.73.93-2.1.93-.37 1.39.27 1.91.92a4.383 4.383 0 01.82 3.73c-.33 1.69.49 1.93 1.83 1.92h8.79c5.39 0 10.77-.06 16.15-.12a3.157 3.157 0 002.73-1.05c1.32-1.67 1.22-3.82 2.06-5.66.25-.54-.26-1.2-.91-1.34-.65-.14-.83.46-1 1-.17.54-.46 1.23-.69 1.84h-.1v.09l-.43.48c-2-.19-3.07-1.85-4.49-2.92-.58-.44 0-1.12.51-1.44 1-.62 2.05-1.18 3.08-1.76 2.24-.01 4.479.13 6.7.42 0 .53.56 1 .34 1.53-1 2.53-.26 5.21-.72 7.78-.1.59-.07 1 .64.9 2.18.52 4.39.2 6.58.21 4.28 0 8.56-.08 12.84-.13.61 0 .6-.42.57-.87-.03-.45-.28-1 .38-1.2.66-.2.77.42 1.13.71.52.42.47 1.45 1.45 1.37 4.41.79 5.74.07 6.84-3.68.41-1.65-.42-3.23-1.83-2.98zm-42.7-43.88v-1.15c.03.39.01.77 0 1.15zm17.1 15.38c.43-.73 3.77-2.52 4.37-2.26 1.79.75 2 2.33 1.92 4 0 .86.29 1.84-.66 2.44-.95.6-2 0-2.82-.48a9.054 9.054 0 01-2.56-1.92 1.407 1.407 0 01-.25-1.77v-.01zm9.88-26.23a.906.906 0 011 .66c.6 2.45 2.49 4.13 3.72 6.2a7.236 7.236 0 011.1 4.24c-.19.65.52 2.19-.6 2.27-1.33.09-.92-1.5-1.06-2.42-.23-1.57-1.15-2.13-2.27-1.19s-2 2.22-1.7 3.57c.49 2.36 1 4.81 3.23 6.36.156.092.304.199.44.32.65.69 2.2 1.23 1.5 2.26-.7 1.03-2.1.11-3-.38a8.393 8.393 0 01-3.64-4 3.22 3.22 0 00-3-2.14c-1.53-.14-1.56-.52-.84-1.93 1-2 1.81-4.09 3.75-5.5.75-.55.44-1.47-.26-2.19-1.75-1.8-1.74-1.84-.1-3.66.45-.49.38-1.11.65-1.63a1.248 1.248 0 011.09-.84h-.01zm-44.05 9.6a5.131 5.131 0 00-3.59 4.63 5.126 5.126 0 013.59-4.65v.02zm-6 29.26c.27-.3.55-.46.9-.18-.39-.3-.67-.14-.94.17l.04.01zm-12.74-8.52a1.284 1.284 0 011.35 1.53 2.783 2.783 0 01-2.54 2.7c-1.72 0-1.56-1-1.29-2.18a2.293 2.293 0 012.44-2.07l.04.02zm-6.59-30.78a2.827 2.827 0 011.29-.19 2.83 2.83 0 00-1.33.17l.04.02zM211 247.786c-.27.12-.43.07-.42-.26.09-.08.22-.25.28-.23.26.09.29.28.14.49zm1.84 1.43c.17.2.1.44-.07.69.23-.25.23-.49.09-.69h-.02zm-55.11 2.25c.081-.354.26-.677.516-.934.257-.256.58-.435.934-.516a30.398 30.398 0 003-1 1.489 1.489 0 012.08.88c-.06.58-.35.82-.72.83a4.995 4.995 0 00-3.09 1.62 1.701 1.701 0 01-2.14.31 1.114 1.114 0 01-.59-1.19h.01zm-5.73-20.55c-.49-.4-.55-.79-.18-1.19-.37.4-.31.8.18 1.19zm2.66-.76c.37.33.12.65-.16.91.27-.26.5-.58.15-.91h.01zm7.85 46c-2.08 0-3-.62-3-2s1.54-3.09 2.67-3.09c.88 0 3 2.37 3 3.36 0 .99-.98 1.76-2.68 1.75l.01-.02zm35.51-32a3.621 3.621 0 00-1.44-3.1c-.63-.56-1.08-1.25-.54-2 .41-.58.85-1.4 1.81-1.17a1.747 1.747 0 011.55 1.88c-.08 1.56 1.07 2.71 1.32 3.73 0 1.51-.7 1.92-1.55 2-.85.08-1.23-.48-1.17-1.3l.02-.04zm17.58 25.27c-.11 1-1 1.23-1.79 1.45-2.23.58-2.6 1.09-2.55 3.38.11 5.36.11 5.36-5.33 5.35h-5.37c-.46 0-1.11.07-1.2-.5-.09-.57.45-1 1-1.14a7.66 7.66 0 013.32-.58c1.071.082 2.149.038 3.21-.13.85-.08 1.74-.3 1.85-1.34.11-1.04-.63-1.62-1.44-2.06a2.977 2.977 0 00-1-.24c-2.55-.33-2.68-.59-1.44-3 .56-1.06-.35-2.61-2.17-3.59a5.449 5.449 0 01-1.49-.94c-1.36-1.43-1.36-2.82 0-4 .85-.75 3-.43 3.94.48 1.17 1.16 1.7 2.7 2.63 4 1.56 2.18 1.8 2.21 3.85.49 1.06-.89 2-.65 3.13-.09s.94 1.54.84 2.5l.01-.04zm3.49-13.2c.88-.26.9-.55.36-1.57.55 1.06.55 1.35-.37 1.65l.01-.08zm-.29-8.93c-.44.21-.86.71-1.42.15-.56-.56-.81-.83-.61-1.54.2-.71.41-1.72.56-2.6.17-1 .83-1.32 1.78-1.3 1.22 0 1.07 1 1.35 1.62-.36 1.46-.18 2.98-1.67 3.68l.01-.01zm12.2-.89c.142-.112.305-.194.48-.24 1.08-.05 3.41 2.31 3.31 3.25a1.654 1.654 0 01-.44.93c-.79.76-2.82.24-3.76-1.05-.71-1.07-.33-2.07.41-2.94v.05zm17.45 26.74a9.392 9.392 0 01-1.37 1.64 1.951 1.951 0 01-1.709.634 1.945 1.945 0 01-1.481-1.064c-1-1.79-1.95-3.65-2.93-5.48a6.741 6.741 0 00-.69-1.24c-.62-.77-.83-2.18-2.35-1.67a3.68 3.68 0 00-2 3.53c.35 2.77-.48 4.06-3.14 4.83-.7.2-1.46.31-2-.39a1.598 1.598 0 01.18-2c.48-.68 1-1.33 1.53-2 .36-.44.7-1 .4-1.47-.93-1.41-.12-2.63.26-3.92a5.504 5.504 0 014.53-3.68 3.635 3.635 0 012.74 1.5c2.17 2.81 5 5 7.55 7.34 1.52 1.27 1.69 1.74.51 3.39l-.03.05zm3.92-9.05c.32.8.81 1.49 1.8.68-.96.76-1.45.07-1.77-.73l-.03.05zm3.13-1a2.613 2.613 0 00-.5-2.93 2.59 2.59 0 01.53 2.9l-.03.03zm6.5 13.71c-1.54 0-4-1.91-4.06-3.19 0-1 2.06-2.44 3.57-2.44 1.51 0 3.2 1.39 3.16 2.75a3.176 3.176 0 01-2.67 2.88zm1.3-12.05c0 .41-.07.83-.15 1.24-.14.76-.42 1.42-1.38 1.25-.96-.17-1.45-.56-1.38-1.55 0-.35 0-.71.07-1.13.35-2.34-1.43-3.87-2.36-5.74-.21-.42-.65-.78-.72-1.21a6.01 6.01 0 00-1.262-3.114 6.006 6.006 0 00-2.738-1.946c-.94-.36-1.48-3-.81-3.65.95-1 1.91-.52 2.81.27a2.004 2.004 0 002.5.06 1.59 1.59 0 012.31.56c1 1.39 2.2 2.6 1.95 4.6-.17 1.35 1 1.86 2.93 1.49 2.56-.49 4.2 1 3.94 3.54-.11 1.12-.56 1.68-1.81 1.69-3.3.03-3.62.38-3.89 3.64h-.01zm-10.8-19.08a1.225 1.225 0 001.39.23 1.227 1.227 0 01-1.38-.23h-.01zm18.94 31.83c-1 .05-3.39-1.87-3.43-2.58-.04-.71 1.67-2.39 2.56-2.38 1.1 0 2.64 1.8 2.7 3.06.06 1.26-.68 1.85-1.82 1.9h-.01zm22.79-15.32a6.24 6.24 0 00-1.79 4.42 1.864 1.864 0 01-1.14 2l-.78-.06c-.05-.2-.16-.19-.31-.09l-1.43-.36c-.3-.64-.63-1.27-.9-1.93-1-2.55-3.75-3-5.64-4.44-1.14-.88-2-2.25-3.71-2.34-2.16-.12-2.38-.6-1.24-2.54.164-.25.311-.511.44-.78.63-1.6.26-4.06-.76-4.65-1.73-1-2.4.64-3.4 1.45a1.339 1.339 0 00-.13.12c-.95.88-2 1.46-3.14.39-1.32-1.2 0-2.06.64-2.65 1.36-1.32 1.86-2.86.88-4.32-.98-1.46-1.48-3-2.53-4.27-.42-.52-.72-1.22-1.49-1.07-2.94.55-5.7 1.58-7.55 4-1.24 1.64-1.23 1.78-2.48.12-.79-1-1.61-1.54-2.73-.47l-.63.61c-.57-.14-1.41.34-1.63-.61-.16-.69.37-1.08.85-1.45.48-.37.84-.67 1.24-1a3.08 3.08 0 00.75-3.95v-3.25c1.11-2.31 2.32-4.5 5.41-4.35l.31.31c.075.463-.006.939-.23 1.352-.225.412-.58.739-1.01.928a5.793 5.793 0 00-2.19 1.74c-1 1.58-.89 2.51.6 3.87.18.87.82 1 1.55 1a1.064 1.064 0 001-1.18c0-1 .88-1.42 1.27-2.16.281.097.58.134.876.109a2.13 2.13 0 00.844-.259 3.284 3.284 0 003.08-3.13v-1.78c0-.59.18-1.11.83-1.19.65-.08.92.43 1.16.92a3.35 3.35 0 01.12 2.43 11.452 11.452 0 00-.61 3.67 4.886 4.886 0 003 4.41.442.442 0 00.27.2c.13.76.78 1 1.35 1.29a28.32 28.32 0 006.34 2.41c1.36.33 1.89 1 1.47 2.45a12.351 12.351 0 00-.13 5.34 12.155 12.155 0 004.13 7.1c.36.32.75.66 1.27.42.52-.24.59-.87.54-1.4-.05-.53-.2-1.17-.3-1.76-.2-1.3-1.08-2.4-1.07-3.77 0-3.24-.68-6.54 1.22-9.6.48-.77.83-2.27-.58-2.76-1.41-.49-2.86-1.2-4.49-1a25.303 25.303 0 01-3.59 0c-1.28-.06-2-.59-1.72-2.07a5.848 5.848 0 000-3.16c.06-.46.12-.93.17-1.4.86-.7.5-1.59.35-2.44a2 2 0 011.16-2.5 3.152 3.152 0 013.33.62c.84.76-.45 1.4-.69 2.13a2.68 2.68 0 01-.58.89 2.266 2.266 0 00-.42 2.65c.4.85 1.3.92 2.16.95a13.254 13.254 0 005.53-1.26c1.06-.43 2.36-.64 2.41 1 .06 2.45 1.4 4 3 5.55.14 1.58.1 3.11-1.27 4.24-1.2.46-.89 1.45-.81 2.35.2 2.48 2.24 3.74 3.69 5.3 3.38 3.65 3.52 4.39.45 8.1l-.59.56zm8.17 16.49a4.667 4.667 0 00-2.92.54 3.695 3.695 0 01-3.36.15c.41-.8 1-.71 1.52-.83 1.79-.44 2-1 .92-2.57-.14-.2-.31-.37-.45-.56a1.355 1.355 0 01-.17-1.66 1.367 1.367 0 011.71-.66c3 1.73 6.2.54 9.3.59.62 0 1.27-.1 1.55.58.28.68-.1 1.21-.63 1.7a9.06 9.06 0 01-7.45 2.72h-.02zm616.08-113.97c1.64.6 2 .42 2-1.38.06-8.85.07-17.69.14-26.54 0-1.11-.47-1.21-1.32-.93H791.74c-1 0-2 0-3 .11s-1.2.66-.56 1.47c-.5.4-.38 1-.37 1.49.1 17.413.21 34.816.33 52.21 0 .71.33.27.56.13h2c5.31-.06 10.62.24 15.92-.2l3.55-.09c.58.08 1.14.35 1.73 0 6.75.41 13.5.21 20.25.21 3.82 0 7.64-.1 11.46-.15.76.22 1.06-.34 1.41-.82a6.33 6.33 0 012.82-2.37c.64-.25 1.25-1.07 1.88-.3.63.77-.19 1.2-.71 1.68-.89.81-.8 1.28.25 1.82l2.67.15c4.33.21 8.65-.14 13-.06 8.34.14 16.7 0 25 0 1.38 0 2-.51 1.71-1.88 1.53.6 2.57 2 4.56 1.95 7.52-.19 15.05-.12 22.58-.08 1.35 0 1.73-.46 1.71-1.77-.05-6.21 0-12.41 0-18.62 0-1.3-.07-2.44-1.5-3.13-.64-.3-1-1.11-1.5-1.74-.28-.38-.55-.85-.11-1.3.44-.45.7 0 1.1.14zm-6-4.37a2.52 2.52 0 01.18 1.9 2.52 2.52 0 00-.14-1.93l-.04.03zm-6.83-1.51a.745.745 0 00.04 0h-.04zm-.65.48v.13a.472.472 0 010-.13zm-18.38 2.76c-.54-.3-1-.75-.69-1.44.31-.69.93-.46 1.44-.44a3.993 3.993 0 012.984 1.465 4.009 4.009 0 01.846 3.215c-.19 1.18-.44 2.34-.64 3.51-.11.64-.33 1.18-1 1.29a1.466 1.466 0 01-1.51-.74 4.835 4.835 0 01-.89-2.88c.051-.471.145-.936.28-1.39a1.829 1.829 0 00.181-1.491 1.822 1.822 0 00-1.001-1.119v.02zm-35.5 1a1.18 1.18 0 01.54.82 1.182 1.182 0 00-.54-.84v.02zm-5 14c-.76 0-1.36-.13-1.49-.88.13.75.73.91 1.5.88a4.006 4.006 0 00-.01 0zm3.57-15.29c.09 0 .13.15.14.3-.01-.15-.05-.27-.14-.3zm.11.42c.091.227.266.41.49.51a.942.942 0 01-.45-.51h-.04zm-13.41.2a1.444 1.444 0 011.496.721c.095.172.155.362.174.559a6.497 6.497 0 001.09 3.31.991.991 0 01.118 1.166.996.996 0 01-1.07.477.996.996 0 01-.658-.473 7.534 7.534 0 01-2.18-4c.08-.91.12-1.72 1.07-1.76h-.04zM799 183.766a7.003 7.003 0 01-3.07-4.23 1.422 1.422 0 011.1-1.63c.79-.24 1.16.18 1.33 1a5.361 5.361 0 001.63 2.72 2.088 2.088 0 01.82 1.56c-.16 1.12-1.18.95-1.81.58zm30.83-9.73c-1.07 0-1.8-.55-1.8-1.75s1.89-3.21 3.09-3.28c1 0 1.17.58 1.18 1.37-.04 2.27-1.01 3.74-2.52 3.66h.05zm8.24 8.48c-1 0-1.69-.55-1.62-1.52.07-.97.48-2.14 2-2.09 1 .07 1.77.6 1.7 1.62a1.915 1.915 0 01-.61 1.497 1.903 1.903 0 01-1.54.493h.07zm22.93-7.77c-.56 0-1.34.15-1.66-.61a1.608 1.608 0 01.48-2c1.62-1.37 2.79-2.89 2.28-5.22-.17-.77.46-1.26 1.18-1.27 1 0 2.15-.1 2.73.93 1.26 2.37-2.28 8.15-5.01 8.17zm7.67 7.33c-1.15.35-1.27-1-1.68-1.68a2.224 2.224 0 01-.26-.84c-.08-1.05-.38-2.16.66-2.95a.998.998 0 011.33-.06 4.999 4.999 0 012 2.89 2.916 2.916 0 01-2.09 2.64h.04zm18.43-4.54a5.477 5.477 0 01-4.73-3.21 1.873 1.873 0 01.37-2.14c.67-.68 1.3-.36 1.95 0 1.18.56 2.27 1.28 3.46 1.83.81.39 2.11.79 1.72 2.14-.39 1.35-1.63 1.41-2.81 1.38h.04zm19.65-15.29c.12.059.248.1.38.12a1.306 1.306 0 01-.42-.12h.04zm1.94 7.05a3.24 3.24 0 00-1 3.46 3.26 3.26 0 01.96-3.45l.04-.01zm.43 4a.587.587 0 00-.786-.203.587.587 0 00-.214.203c.31.3.62.37.94 0-.32.35-.63.27-.94 0l-.49-.51c.366-1.32.855-2.602 1.46-3.83a4.723 4.723 0 001.7-4.22 2.23 2.23 0 00-1.79-2.43c-.75-1.07-1.66-.57-2.55-.25l-1-.5c.16-.42 0-.67-.42-.73v-1.19c2-.63 4.22.16 6.25-.59l1.31 1.29c-.36.75-.63 1.49.12 2.18-.15 1.45-.56 2.9-.13 4.37.76 3.11.33 4.37-1.73 5.09-.92.08-1.32.73-1.77 1.33l.04-.01zm8.03 10.11c.54-1 .14-1.68-1.23-2l-1.12-.1 1.08.14c1.37.3 1.77.96 1.23 1.98l.04-.02zm-17.69 86.53a2.406 2.406 0 002.63-.63 22.931 22.931 0 002.62-3.39c.7-1.3 2-2.25 2.19-3.84.06-.54.12-1.12-.46-1.42a1.075 1.075 0 00-.424-.155 1.085 1.085 0 00-.45.028 1.086 1.086 0 00-.686.557 2.642 2.642 0 01-2 1.37c.51-1.75-.71-2.55-1.82-3.28-.62-.41-1.28-.11-1.4.78-.06.45.25 1.07-.34 1.28-1.46.51-2.8 1.36-4.38 1.51-.32 0-.83.1-.7-.47.29-1.3-.67-1.86-1.49-2.36-2-1.2-3-2.67-2.05-5a1.823 1.823 0 000-1.06c-.58-2.43-1.79-4.68-2-7.22 0-.34-.57-.79-.64-.57-.37 1.09-2.11 1-2 2.59.21 2.62-.43 5.21-.77 7.81-.11.78-1.23 1.7-.43 2.24.8.54.87-1.18 2.19-1.34-2.73 4.21-5.94 7.29-10.46 8.88l-4-.19c.67-.38 1.56-.2 2-1-.57-.62-1.26-.35-1.87-.43-1.72-.23-3.48-.37-4.21-2.37l1.16-.81c.93.08 1.84-.15 2.77-.16 1.53 0 2.87-.7 2.77-2.64a2.482 2.482 0 00-.65-2.58c-.83-1.06-1.09-1-1.68.18a2.526 2.526 0 01-1.93 2.26 8.997 8.997 0 00-5.38 4.46 4.006 4.006 0 01-3.37 2.37c-.64 0-1.44.31-1.13-1 .21-1-.79-1.67-1.69-1.7-1.14-.05-1.13.79-.76 1.64.1.24.09.52-.15.63-.51.24-.75-.17-1-.52-.52-.8-1.3-1.09-1.46 0-.37 2.63-1.54 5.41.67 7.85a1.417 1.417 0 01.27 1.52 2.832 2.832 0 00.26 2.86c.44.76.64 1.54-.6 1.91a1.285 1.285 0 00-.773.594c-.171.292-.22.638-.137.966a1.181 1.181 0 001.32 1c2.21-.16 4.28.48 6.42.81 2.989.358 6.011.358 9 0 2.11-.18 4.24-1.24 6.34-.34a6.688 6.688 0 003.84.4c.75.06 1.38 0 1.07-1a4.496 4.496 0 00-2.72-3.33c-1.23-.42-2.39-1-3.68-1.32-1.79-.43-2.07-1.49-.82-2.82 2.8-3 5.62-5.94 8.44-8.91.32-.34.66-.85 1.18-.55.52.3.36 1 .12 1.44a18.178 18.178 0 00-1.34 5c-.52 2.82-.21 5.48 2.53 7.25 1.39.89 3.46.67 4.18-.54.85-1.41.44-2.68-1.27-3.66-1.25-.71-1.36-1.44-.44-2.56.92-1.12 1.92-1.94 2-3.29.16-1.77.78-1.78 1.94-.78a.263.263 0 00.18.23c.57.89 1.23 1.08 2 .24a.222.222 0 00.16-.15c.92-.52.46-1.52.79-2.25a1.005 1.005 0 00.88-.39l.62.24c.5 1.2-.12 2.42.06 3.63-.01.56.09 1.29.96 1.5zm24.28-23.63c-.74-.44-1.37-.1-1.86.54l-1.41 1.83c-.54-.21-.81-1.28-1.6-.61s-1.45 1.43-.8 2.57a1.876 1.876 0 00.69 1.77c.78 1.09-.51 2.42.41 3.49-1.68 1.46-1.79 1.37-3.23-.12-1.44-1.49-2.52-3.67-4.27-5.08-.2-1.57 1.62-1 2-1.88.32-.18.63-.37.94-.56 1-.6 1-1.22 0-1.86-2.69-.51-5-2-7.41-3.08-1.3-.59-2.27-2.08-4-1.57-.62-.74-1.57-.31-2.32-.63-.38-.17-.84-.24-1.11.2-.27.44.07.76.3 1.11.175.302.329.616.46.94a4.01 4.01 0 01-2-1.06c-.44-.36-.83-.47-1.27-.15-.44.32-.28.83-.07 1.26.29.59.59 1.17.88 1.75 0 1.11-.89 1.86-1.1 2.88-.75 1.1-.42 1.92.86 2.12a3.45 3.45 0 003.89-2c.39-.72.78-1.64 1.73-1.54.95.1.79 1.17 1.16 1.79a7.569 7.569 0 00-.45 2.91 4.83 4.83 0 00-.15 2.47c.13 1 .29 2.07 1.34 2.35 1.05.28 1.5-.91 2.05-1.63.18-.23.25-.54.43-.78.52-.7 1-.69 1.5.08.79 1.3 1.59 2.6 2.41 3.88 1.08 1.68 1.1 1.69-.87 1.88-.66.07-1.25.23-1.14 1a2.76 2.76 0 001.51 2.3 1.919 1.919 0 002.12-.88 6.628 6.628 0 012-1.64c2-1.22 4.46-1.53 6.32-3.13 1.86-1.6 2.17-2.43.31-4.26-.81-.79-.93-1.34.06-2.14a10.095 10.095 0 002-2.47 1.343 1.343 0 00.117-1.647 1.337 1.337 0 00-.427-.403zm38.35-9.24c-.42-1.66-1.83-3.16-1-5.07.42-.94 1.41-2.15.21-2.86-1.44-.84-1.86.86-2.39 1.72-1.68 2.72-3.77 4.52-7.23 4-.79-.12-.77.6-.8 1.12-.08 1.25-.11 2.5-.17 3.75 0 .73-.13 1.5.76 1.81a1.9 1.9 0 002.09-.64c.66-.68.58-1.53.57-2.53 0-.4-.36-1.14.33-1.46.69-.32 1.13.45 1.53.92a10 10 0 005 2.83c.13 0 .26.24.31.4.45 1.39-.42 2.38-1.1 3.42-.51.78-1.13.77-2 .42-1.26-.51-1.9 0-1.58 1.34a8.61 8.61 0 003.1 4.68 1.66 1.66 0 002.69-1.18 23.36 23.36 0 011.22-5.21 3.712 3.712 0 000-3 17.723 17.723 0 01-1.54-4.46zm-318.66 2.16c-.34-.35-.54-.11-.57.2a1.095 1.095 0 00.177.92 1.11 1.11 0 00.823.45l.36.25c.25.81.94.78 1.59.89 3 .47 4.06 1.6 4 4.49 0 1.93 1.11 3.23 2.14 4.58 1.89 2.49 4.85 3.28 7.59 4.31a2.803 2.803 0 003.18-.52c.7-.83.27-2 0-2.92-.42-1.38-1.67-1.14-2.68-1.28-1.82-.25-3.31-.85-3.83-2.88a3.68 3.68 0 00-1.48-1.91c-.06-.28-.12-.56-.17-.85.16-1.67-.63-3.08-1.25-4.54a3.943 3.943 0 00-.29-2.66c.07-.65-.43-.69-.81-.63-2 .27-4 .56-5.93.9a.926.926 0 00-.866.882.934.934 0 00.086.438c-.69-.19-1.36-.6-2.07-.12z" fill="#fff"/><path d="M853.58 259.046a11.012 11.012 0 003.5-1.58 19.676 19.676 0 015.63-3.22 2.067 2.067 0 012.34.41c.21.22.43.49.27.78a.666.666 0 01-.6.21c-2.06-.5-3.47 1.08-5.18 1.65-.94.31-1 1.54-.81 2.52.19.98.79 1.22 1.72 1.19 2.34-.08 4-1.47 5.39-3a3.218 3.218 0 012-1.41c1.46-.22 1.93-1.49 2.32-2.69a2.002 2.002 0 00-.78-2.56c-2.49-1.1-3.38-3.62-5.14-5.36a1.019 1.019 0 01-.283-.291 1.007 1.007 0 01.053-1.149c.32-.44.8-.34 1.3-.3 1.34.08 2.1 1.27 3.28 1.62.221.429.571.779 1 1a2.697 2.697 0 001.83 1.5l.65.94c.48 2.52 1.85 3.21 3.92 2.06.57-.31 1.27-1.12 1.88-.42.61.7.29 1.58-.27 2.29-.18.23-.43.42-.6.66-.73 1-.74 3.61.06 4.2 1.43 1.05 2.63.22 3.66-.73a8.002 8.002 0 002.58-4.18c.17-.8.47-1.62-.23-2.34a1.882 1.882 0 00-1.06-1.91c0-.46-.1-.6-.49-.27l-1-.48c.16-.51-.23-.72-.54-1a1.673 1.673 0 00-.93-1.69 3.35 3.35 0 00-1.25-1.39c-.81-.69-1-1.4-.17-2.2 1.405.113 2.819.056 4.21-.17.75.46 1.12 0 1.16-.63 0-.76.54-1.82-.84-2a1.716 1.716 0 00-1.12-.55c0-.91-.67-1.28-1.33-1.65v-1.36a1.327 1.327 0 00.048-1.881 1.333 1.333 0 00-.588-.359 20.216 20.216 0 00-3.76-.63l-.89-.56c-.58-1.55-1.38-.88-2.07-.14-1.07 1.15-1.44.63-1.83-.56-.39-1.19.14-1.39 1-1.7.86-.31 1.6-.73 2.4-1.1l1.4-.17a2.489 2.489 0 002.1 0l1 .74c-.11.6.23.89.73 1.07.032.415.218.803.52 1.09.2 1.67 1.32 1.23 2.34 1h1.19c1.07.44 1.66-.05 2-1l1.83-1.83c.75-.26 1.47-.63 2.17-.94 1-.44 2.72-.73 2.18-2.62l2.13-2.83c.86.195 1.613.714 2.1 1.45 1.14 1.43 2.76 1.18 3.57-.41l1.55-1.05 4.29.72a1.344 1.344 0 001.91-.7c1-.62.79-1.15-.12-1.63a1.993 1.993 0 00-1.55-1.18 1.61 1.61 0 00-1.4-1c-2.68-.14-5.54-.83-7.56 1.82-.48.64-.94.91-1.47 0-1.56-2.58-4.12-3.38-7-2.23-.76.3-1.73.4-1.74 1.51-.01 1.11.73 1.41 1.62 1.61.35.08.72.2.72.65s-.48.61-.87.73a12.484 12.484 0 00-3.68 1.81 3.424 3.424 0 01-2.37.64c-.93-.08-2.1-.33-2-1.33.1-1.33 1.19-.35 1.83-.33a3.237 3.237 0 003.12-2.21 2.65 2.65 0 00-2-3c-1.42-.25-2.66-.05-2.86 1.77 0 .35-.08.81-.5.84-.42.03-.65-.48-.72-.88-.31-1.78-1.62-2.26-3.14-2.38a6.714 6.714 0 00-5.42 1.78c-2 1.87-2.32 1.81-4-.09a.16.16 0 00-.13-.15 1.341 1.341 0 00-.718-.755 1.332 1.332 0 00-1.042-.005c-.68.18-1.47.49-.51 1.37-.34 2.18-2.19 1.38-3.45 1.74.19-1.43-.6-2.78-1.77-2.72-1.74.09-.65 1.53-.93 2.33v.17l-.5.35c-.73-.07-1.31-1.57-2-.53a8 8 0 00-1.7 3.59c0 .29-.09.73.28.7 2.17-.18-.07 1 .44 1.35-1.46 1.22-2.75 2.77-4.93 2.68-.06-2.14-.56-4.26-.37-6.42 0-.26-.11-.51-.16-.77a.787.787 0 00-.19-1c-.06-2.41-.76-3.11-2.86-2.87-3.23-.79-3.26-.77-3.88 1.72a2.824 2.824 0 00-2.29 1.06c-1.69-1.4-2.48-1.13-2.83 1.22a11.295 11.295 0 00.09 5.2c.1.69.19 1.39.28 2.08a7.809 7.809 0 00.06 3.66c-.12 2.15.19 2.4 2.29 1.75 1.07-.33 1.69-.25 2.06 1.08.29 1 .22 2.32 1.37 3.15.48.35-.14 1.11-.64 1.45-.5.34-1.64.79-1.74.3-.43-2-2.29-2.81-3.35-4.26-2.08-2.83-2.56-6.1-2.68-9.46-.09-2.32 0-4.65 0-7 0-1.16-.39-1.95-1.71-2-1.6-.1-1.11 1.25-1.34 2.06-.87-.26-1.5-1.53-2.38-.34-.3.4.64 4.95 1.08 5.11 1.79.67.68 1.56.15 2.25a3.095 3.095 0 01-3 1.19c.15-.31.26-.61-.19-.77a1.542 1.542 0 00-.29-1.51 2.242 2.242 0 01-.37-2.46c.227-1.037.294-2.103.2-3.16 0-.64-.11-1.19-.86-1.31-.75-.12-1.12.44-1.38 1.06-.14.33.3 1.11-.63.85-.11-.12-.25-.37-.31-.35-1 .34-1.69.36-1.56-1.05.08-.88-.67-1.08-1.33-1.06-1.5 0-3 .16-4.91.28 1 .7 1.75.94 2.1 1.65-1.12.4-2.08-1-3.24-.28l-.79.15c-.91-.85-2.12-2.11-3.16-.94-1.77 2-4.15 2.56-6.37 3.56a3.997 3.997 0 00-1.2-2.63c-1.49-1.69-3.46-1.83-5.39-1.86-9-.18-18.11-.26-27.17-.37-1-.38-.89-1.28-.89-2.11v-27.8c0-1.11.25-2.37-1.51-2.45a.882.882 0 01-.76-.89c0-.47.27-1 .62-1 2.27.16 1.63-1.49 1.64-2.62v-74.82c0-1.7.4-2.18 2.14-2.17h190.57c1.57 0 2.15-.26 2.14-2-.07-19.31 0-38.63-.06-57.95v-1.08c0-.84-.5-1-1.2-.76H685.38c-1.14 0-2.27.06-3.41.11-.56 0-1.16 0-.89.88a5.29 5.29 0 00-.22 2.3c0 10.82-.023 21.643-.07 32.47-.06 45.58-.117 91.153-.17 136.72 0 21.053-.027 42.106-.08 63.16 0 2.78 0 2.78 2.81 2.78h59.39c2.77 0 5.72.58 7.67-2.24a.367.367 0 01.14-.11c.38-.21.84-.39 1.14 0 .3.39-.09.74-.44 1s-.93.32-1 .93c.26.42.71.4 1.11.4h27.63a3.426 3.426 0 002.8-1.68c.75-1 .32-2-.89-1.94-2.28.05-3.8-1.21-5.22-2.72-.37-.39-.8-.88-.36-1.4.44-.52 1 0 1.42.2 2.2 1.14 4.89 1.25 6.66 3.32.26.3 1 .21 1.55.26a2.864 2.864 0 002.81-1.57c.59-1 0-1.8-.72-2.52a3.27 3.27 0 01-.48-.95l.56-.58a15.28 15.28 0 003.44.05c1.33 1.17.49 2.52.31 3.81a3.245 3.245 0 001.742 3.678c.442.213.927.323 1.418.322a1.59 1.59 0 001.77-.9 7.922 7.922 0 00.84-5.71c-.85-3.18-.44-6.42-.41-9.62 0-2.49 1-3.1 3.09-2.35h1.47c.77.21 1.29 0 1.46-.84.91-.15.89-.9.89-1.52 0-2.5-.08-5-.13-7.5.1-.22.21-.45.31-.68 1.29-.68.94-1.82.81-2.9v-.73c.35-.67-.79-1.46.17-2.09l1.37.8c.211.484.468.946.77 1.38 1.45 1.68 2.05 3.13-.19 4.81-1.16.87-.5 2.44 1 2.77a4.065 4.065 0 004.08-1.06l1.32-.34h3.57l.78.57c.047.681.282 1.335.68 1.89l.42 1.49c-.3 1.24.39 1.69 1.46 1.84a2.702 2.702 0 01-2.85 1.92 2.224 2.224 0 00-.461-1.767 2.211 2.211 0 00-1.629-.823c-1.27-.16-2.25.06-2 1.73 0 .13-.31.32-.48.48-1.28.07-2.65 1.27-3.82-.26-.27-.5-.54-.6-.79 0-.12.18-.23.36-.34.54a.843.843 0 00-.317.713.842.842 0 00.407.667c.67 1.27 1.12 2.78 2.09 3.75.97.97.73 1.47 0 2.15a3.824 3.824 0 01-2.89 1.17c-.06-.55.38-1.24-.46-1.56-.71-1.11-1.43-2.21-2.15-3.31-.42-.93-1-.56-1.5-.13-1.84 1.58-2.27 3.89-2.9 6a1.921 1.921 0 001.94 2.67l1.46.61a1.775 1.775 0 01-.099 1.611 1.78 1.78 0 01-1.361.869c-3.12.88-3.54 2.09-1.81 4.93.4.48 1 .41 1.48.42h13a2.488 2.488 0 001.69-.4c1.05-.36.64-1.22.53-1.85-.14-.84-.91-.81-1.58-.81-1.53 0-3.09.31-4.34-1-.62-.67-1.8-1.08-1-2.26.8-1.18 1.84-2 3.18-1.31a10.244 10.244 0 014.65 4c.63 1.13.91 2.59 2.18 3.34a16.5 16.5 0 006.82.1 11.36 11.36 0 012.63-4 1.922 1.922 0 00.45-2.47c-.45-.7-1.09-1.47-2-1.17-.91.3-1.92.73-2.16 1.9-.12.57-.1 1.32-1 1.22-.7-.08-.86-.76-1-1.33-.76-2.7-.61-3 2.19-5.11a4.34 4.34 0 015.21.43c1.15 1.07 1.56 2.67 2.87 3.63.66.49.07.91-.52 1.08a2.575 2.575 0 00-1.92 1.48 9.2 9.2 0 01-2.45 3.68c-1 1-.1.84.54.78 5.66.26 11.31.2 17 0a2.485 2.485 0 001.89-.12l2-.19c1.58 0 3.2-1 3.25-2 .07-1.31-.89-1.88-3-2a12.693 12.693 0 00-7.67 2.42c-1.74 1.11-2.75 1.07-4.26-.41a23.617 23.617 0 00-2.77-2.52c-.91-.65-1.56-1.4 0-2.22.64-.34.79-1.17 1-1.83.33-.85.12-2.28 1.18-2.35 1.06-.07 1.14 1.34 1.47 2.17a1.83 1.83 0 002.75 1.08c1.13-.52 2.16-1.36 1.67-2.91-.79-2.47-1.85-2.9-4.06-1.63-.36.22-.72.49-1.12.16-.4-.33-.2-.64-.12-1 .23-.91.44-1.84.66-2.76l1.25-1.31a.653.653 0 00.74 0c.56.48.89 1.23 1.68 1.44a8.01 8.01 0 005.2 3.48 2.141 2.141 0 002.73-1.39 9.115 9.115 0 00.47-5.09c-.3-2.62.09-2.96 2.59-3.74zm17.59-24.74a9.827 9.827 0 013.1 4.5.72.72 0 01-.5 1c-.41.11-.66-.15-.89-.44-1.65-2.18-2.65-2.53-4.87-1.16a1.993 1.993 0 01-1.584.5 1.999 1.999 0 01-1.416-.87v-.69c.57-.61 1.73-.43 2-1.47l.81-.17a7.77 7.77 0 011-.29c.94-.18 1.52-1.74 2.35-.91zm-4.74 1.56c-.438.01-.855.185-1.17.49a1.738 1.738 0 011.17-.54v.05zm-45.68-9.56c.41-.36.2-1.24.55-1.64-.3.35-.14 1.23-.55 1.64zm-14.35.38c.156-.081.306-.171.45-.27.08-.44.34-.49.64-.47-.3 0-.56 0-.64.48.12.44.187.893.2 1.35-.12 1.72.85 2.57 2.31 3.08a.13.13 0 00-.004.062c.003.021.012.04.024.057a.133.133 0 00.11.051c.47 1.29-.23 2.49-.43 3.71.9.3 1.1-.8 1.87-.65.26.58-.66.85-.41 1.41l-1.36 1.3c-.33-.1-.49.07-.56.37l-.55.3a.664.664 0 00-.533.016.655.655 0 00-.347.404l-.82.2c-.82-.64.08-2.23-1.39-2.51a1.695 1.695 0 01.54-1.76c1.24-1.11 1-2.31.06-3.44-1.98-2.46-2-2.44.84-3.74v.05zm1 11.29a.47.47 0 00.41 0 .468.468 0 01-.46-.05l.05.05zm3.56-5.97c.095.042.197.069.3.08a1.001 1.001 0 01-.35-.13l.05.05zm-30.69 20.86c.76-.59 2-.89 1.7-2.29.09-1.09.17-2.17.26-3.25 0-.74.47-.9 1.05-.79a5.882 5.882 0 014.84 4v1.2c-.43.95-1.36.63-2.09.85-1.3.39-2.54.94-3.81 1.41l-2 1.17c-1.22-.86-1.01-1.56 0-2.35l.05.05zm-6.89 12.92c0 .62.58 1.35-.14 1.8-.72.45-1.47-.18-2.1-.58a1.48 1.48 0 01-.77-2c.29-.65.72-1.23 1-1.88.355-1.069.547-2.185.57-3.31a1.335 1.335 0 01.934-1.208c.173-.054.356-.072.536-.052.88.08.87.83.92 1.48 0 1.14-.92 1.95-1 3a30.39 30.39 0 000 2.7l.05.05zm11.62-22c-1.27-.36-1.65-1-.75-1.94a8.627 8.627 0 015.18-2.73c1.11.23 2.4-.29 2.51 1 .11 1.29-1 2.21-2 2.75-1.55.71-3.14 1.44-4.94.86v.06zm-10.29-5.88a.285.285 0 01.14.22.289.289 0 00-.14-.25v.03zm.08 1.56c-.15.54-.13 1.18-.53 1.57.4-.42.38-1.06.53-1.6v.03zm-3.89 1.54l.42.42c.35-.26.49-.14.48.26-.26.1-.39 0-.48-.26l-.42-.42a1.865 1.865 0 01-.568-2.261c.117-.255.291-.481.508-.659a1.844 1.844 0 00-.659 1.459 1.858 1.858 0 00.719 1.431v.03zm-2.7 3.3c.76 1.57.49 3.42 1.34 4.77a6.663 6.663 0 01-1.28 3.15c-.35.51-1 .37-1.5.21a1.26 1.26 0 01-.83-1.26 13.616 13.616 0 00-1.78-6.26c-.78-1.38-.19-2.15 1.41-2.13a2.724 2.724 0 012.64 1.52zm-29.4-67.3a1 1 0 00.06 1.32 1 1 0 01-.06-1.36v.04zm3.37.23l-1.14-.78 1.14.79c.89.89.94 1.22 0 1.63.94-.45.89-.78 0-1.68v.04zm11.83 66.51c3.22-.55 3.72-2.39 3-5.13-.14-.52-.23-1.3.48-1.58s1.27.28 1.66.78c1 1.29.81 2.93 1.2 4.11-.12 1.5 0 2.91-1.28 3.46-1.63.71-3.43 1.19-5.18.23-1.16-.59-1.14-1.67.12-1.87zm-25.79.05a5.139 5.139 0 01-3.65-2.91 2.101 2.101 0 01.73-2.56c.84-.78 1.44-.24 2.17.26a5.92 5.92 0 012.28 3.83c.05 1.2-.56 1.6-1.58 1.38h.05zm4.04 29.51c-1.31.29-3.81-1.92-3.63-3.23a1.336 1.336 0 011.22-1.28c1 0 3.25 2.68 3.11 3.61-.06.38-.17.73-.7.9zm6.91-33.54c0-1.31 1.32-1.87 2.6-1.92 1.28-.05 3 1.31 2.91 2.36-.09 1.05-.74 1.29-2.72 1.28-1.29-.06-2.81-.12-2.79-1.77v.05zm11.77-7.72c1.17-.14 1.44 0 1.45 1.16-.01-1.22-.28-1.35-1.45-1.21v.05zm6.28 38.84c-1 1-1.85 2.21-3.17 2.73a1.341 1.341 0 01-1.21-2 14.12 14.12 0 012.64-2.66 1.309 1.309 0 011.8.22 1.155 1.155 0 01.213 1.289 1.163 1.163 0 01-.273.371v.05zm4-11.92c0-1.11 1.37-2.48 2.93-2.53a1.724 1.724 0 011.681 1.366c.055.256.051.52-.011.774-.15 1 .46 2.61-1.28 2.84-1.05.1-3.26-1.69-3.28-2.5l-.04.05zm6.79 14.62a.167.167 0 00.108-.001.168.168 0 00.082-.069.15.15 0 01-.052.048.152.152 0 01-.068.022H768zm.86-.83a.619.619 0 00.261-.5.615.615 0 00-.261-.5.606.606 0 01.247.768.603.603 0 01-.177.232h-.07zm9.81-18.12c.21.38.52.75 1 .69-.41.06-.67-.31-.93-.69h-.07zm10.81 13.49c-1.36.38-2.81.92-4.16.15-.8-.45-.27-1.43-.38-2.2.46-2-1.12-3.16-2-4.52a6.098 6.098 0 01-1-3.51c0-1 .48-1.44 1.45-1.7a10.995 10.995 0 016.15.35c2.32.68 3.27.17 4-2.12.23-.68.27-1.84 1.31-1.53 1.04.31.78 1.47.46 2.18a24.232 24.232 0 01-2.23 4c-1.43 2-2.71 4.06-2.38 6.71.12.95-.1 1.9-1.15 2.19h-.07zm15-29.93c.291.208.643.314 1 .3a1.617 1.617 0 01-.9-.3h-.1zm6.38-9.81l-.9-.22c-.5-1-2.34-.66-2.27-2.25 1.93-.81 4-1.36 5.18-3.34l1.39.41c.08.91.88 1.23 1.44 1.75.56.52 2 .14 1.8 1.65-.2 1.51-1.22 1.62-2.24 1.82-1.35.3-2.8 1.1-4.26.18h-.14zm26.9 38.27c.05-.138.11-.272.18-.4a2.86 2.86 0 00-.08.4h-.1zm2.09-8.73c-.59-.77-1.23-1.38-2.24-1.08-1.01.3-1 1.21-1.08 2.24.17 1.63.86 3.46-.4 5.17-.38.52-.58 1.33-1.4 1.15-.82-.18-.86-1-.93-1.74-.27-2.68-1.48-3.36-3.83-2-1.76 1-3.53 2.06-4.31 4.12a3.002 3.002 0 01-1.39 1.6c-.65.34-1.3 1.15-2.06.48-.76-.67-1.55-1.39-1.36-2.57.024-.301.109-.594.25-.86 1.89-2.9 1.2-6.14.73-9.12-.33-2-2.4-3.49-4.45-4.3-.73-.29-1.45-.58-1.34-1.28.11-.7 1-.75 1.67-.7.179-.008.359.016.53.07a9.807 9.807 0 009.28-.32c1.45-.76 2.43 0 3 2 .32 1.06.68 2 2.07 1.58a1.401 1.401 0 001.14-1.43c-.05-1.57.87-2.3 2.18-2.92a11.488 11.488 0 004-3.19 7.47 7.47 0 012.57-1.92c1.91-1 2.61-.62 3 1.51.101.527.38 1.003.79 1.35a2.276 2.276 0 01.69 2.76c-.56 1.12-1.61.69-2.55.52-.94-.17-2-.67-3-.44a1.992 1.992 0 00-1.66 1.23c-.24.7.34 1.05.72 1.51a7.99 7.99 0 011.59 2.14c.69 1.83 1.65 3.14 3.78 3.28a1.117 1.117 0 011 1.12 1.466 1.466 0 01-.78 1.49c-2.36 1.55-4.14 1.18-6.06-1.45h-.15zm-178.06 8.12a.732.732 0 00.43-.31c.74-1 1.43-2.09.82-3.36s-1.62-.92-2.67-.71c-2.11.42-2.44 0-2.44-2.39 0-1 .35-2.34-.95-2.82-1.3-.48-2.31.43-3.13 1.49-1.68 2.17-2 4.82-2.41 7.37-.18 1-.4 1.54-1.45 1.51l-.24-.42a8.543 8.543 0 01.24-3 2.075 2.075 0 00-.116-1.834 2.076 2.076 0 00-1.524-1.026c-2.33-.64-4 .86-3.45 3.39.45 2 .32 4 .92 6 .6 2-.91 3.88-.58 5.95.06.37.14.91-.38 1.06-.52.15-.67-.38-.82-.74-.32-.78-.87-1.5-1.69-1.37-2.69.44-3.3-1.47-3.69-3.32a2.24 2.24 0 00-2.43-2c-1 0-1.71-.42-1.76-1.55l1.56-.86a1.315 1.315 0 001.64 0l1.12.2a1.643 1.643 0 001.21.65c1.45.31 3.34-.89 3.37-2.09a.885.885 0 00-.06-.86c.06 0 .13 0 .16-.06s.06-.14 0-.16a6.848 6.848 0 00-4.28-1.73 4.412 4.412 0 01-.87-2c-.12-1.31-.15-1.39-1.16-1.15a8.554 8.554 0 00-3 1 7.247 7.247 0 01-4.42 1c-1.3 0-2-.48-2-1.86l.61-.63c4.17 0 6.22-2.07 5.78-6.06a5.227 5.227 0 010-1.25c.15-1.27.89-1.65 1.75-.73a31.815 31.815 0 013.42 3.64c.86 1.27 1.45 2.74 2.68 3.77a3.052 3.052 0 002.87.56c1-.25 1.09-1.14 1.16-2 .17-1.9 1.46-2.82 3.12-3.21.91-.22 1.38-.55 1.37-1.51-.01-.96-.22-1.64-1.25-1.9-1.55-.38-2.07-1.42-1.9-3a4.23 4.23 0 00-1.82-4.17c-1.19-.89-2.4-.49-3.62-.44-1.22.05-2.35 0-1.65-1.84.083-.174.129-.364.134-.557a1.377 1.377 0 00-.42-1.037 1.383 1.383 0 00-.484-.306l-.38-.28c-.5-1.06-1.81-.21-2.43-1-.2-.27-.58-.48-.33-.87.25-.39.5-.19.79-.13.64.15 1.19.76 1.93.35 1.08.34 2.07.47 2.24-1.08a13.647 13.647 0 014-4.22 5.405 5.405 0 002.49-3.79 1.998 1.998 0 00-1.108-2.288 1.988 1.988 0 00-.892-.182c-1.37 0-2.75-.06-4.12-.07-2.35 0-4.4-.73-5.59-2.86a23.855 23.855 0 00-4-4.58 3.17 3.17 0 00-2.33-1.19c-4.25 0-8.49.16-12.73.15-7.23 0-14.45.58-21.68.32-5.62-.21-11.21.53-16.83.34-.61 0-1.6-.14-1.67.62-.07.76.89.43 1.39.57a.589.589 0 01.46.66l-.73.16c-.39-.3-.55-.12-.6.29l-1.59.42c-.31-.3-.5-.12-.67.16h-1.93c-.59-.46.72-1.19-.26-1.63-1.24-.55-2.34-1.36-3.82-1.34-5.78.07-11.57.07-17.35.11a6.697 6.697 0 00-1.42.13c-.36.08-.94.07-.84.67.08.43.56.32.9.37 1.57.27 3.07-.63 4.59-.37 4 .69 8 .22 12 .41.46 0 1.14-.32 1.31.52h-10c-.67 0-1.62-.17-1.69.83-.07 1-.72 1.22-1.37 1.36a1.349 1.349 0 01-1.47-1.06c-.33-1-1.05-1.06-1.84-1a7.732 7.732 0 00-3 .44c-.62-.31-1.69-.14-1.33-1.45.1-.36-.56-.52-1-.64a10.26 10.26 0 00-3-.25h-28.67c-22.86 0-45.717.016-68.57.05a25.111 25.111 0 01-7.27-.74c-3.14-1.67-5.21-4.07-5.28-7.81 0-.72.06-1.44.06-2.16v-89c0-6.51 3.49-10.06 10.08-10.06h76.29c46.307 0 92.617.04 138.93.12 1.38 0 2-.19 2-1.8-.06-20.467-.06-40.93 0-61.39 0-1.57-.51-2.13-2-1.58-.59 0-1.18-.13-1.77-.13h-84.36c-34.52 0-69.05-.12-103.57 0-17.69 0-35.39-.61-53.07.39a53.423 53.423 0 00-19.11 4.44c-9.56 4.26-18.77 9.08-25.82 17.09-2.82 3.2-5.7 6.41-7.53 10.37-1.45 1.28-1.8 3.17-2.63 4.79a34.876 34.876 0 00-3.76 16.87c.52 32.48 1.01 64.96 1.47 97.44.23 14.9.1 29.8.83 44.68a42.448 42.448 0 0014.32 30.34c8.86 8 19.7 11.4 31.24 11.86 14.58.59 29.19.19 43.79.21 1 0 2.18.29 2.79-1a.664.664 0 01.842-.259.658.658 0 01.248.199c1.22 1.36 2.83 1.09 4.36 1.09h79.7a31.499 31.499 0 007.33-.52c2.12-.5 4.11-1.24 6.07.37.23.2.69.14 1.05.14h11.13c.52 0 1.17.1 1.48-.42.9-1.52 2.27-1 3.31-.56 2.31 1.05 4.69.74 7.07.82a1.465 1.465 0 001.326-.428 1.461 1.461 0 00.374-1.342c-.08-.89-.21-1.78-.33-2.67a1.635 1.635 0 01.091-1.141c.168-.356.459-.64.819-.799.88-.37 1.44.15 1.93.86a4.45 4.45 0 011 3.71c-.52 1.79.34 2 1.76 2h23c1.4 0 2.89.17 4.16-.7a2.153 2.153 0 001.393-1.117 2.156 2.156 0 00.077-1.783c.06-.27.11-.53.17-.8.28-.37.55-.76.84-1.13a1.73 1.73 0 00.12-2.16 1.427 1.427 0 00-1.51-.74 2.054 2.054 0 00-1.79 1.53c-.49 1.57-1 1.72-2.3.74-.39-.29-.75-.6-1.13-.88-1.33-1-1.23-1.34.12-2.33 1.89-1.38 4-1.18 6.17-1.35l2.46.06a2.063 2.063 0 01.78 2.49c-.84 2.47-.22 5.08-.49 7.61 0 .26.26.36.53.32 6.31.65 12.63.05 19 .24.56 0 1.09-.25 1-1-.06-.5-.57-1.07.21-1.37.78-.3 1.13.44 1.54.91.41.47.6 1.37 1.5 1.38 1.6 0 3.22.38 4.77-.28 1.54-.34 1.35-1.9 2-2.87.65-.97 1-1.58 1.7-.08a2.364 2.364 0 002.33 1.4c1.11-.05 1.59-.94 2-1.86a8.003 8.003 0 00.25-4.76 2.358 2.358 0 01.06-1.88c1.22-.34 1.64.75 2.29 1.35a2.343 2.343 0 003.31.29 4.675 4.675 0 012-.65c1 .56.59 1.57.69 2.4.21 1.71 1.45 1.83 2.76 1.77 1 0 2-.11 1.57-1.6v-.75c.27-1.79-.91-2.11-2.27-2.13-.81 0-1.46-.15-1.44-1.13-.19-2.13-.75-4.57 2.38-5.1zm-131.1-10.24c1.2.11 2.39.61 2.48 2.1.08 1.18-.65 1.7-1.83 1.75-1.19-.14-2.38-.32-2.33-2-.01-1.12.54-1.95 1.68-1.85zm4.84-32.81c.13-.88.17-2 1.54-2.05 1.54 0 3.38 1.33 3.28 2.45-.1 1.12-.49 1.87-1.77 1.78-1.48.01-3.21-1.15-3.05-2.18zm-57.69 6.93c.23.22.18.47-.11.74.27-.27.34-.52.11-.74zm-23.99 42.84c.168.186.372.335.6.44a1.865 1.865 0 01-.59-.44h-.01zm34.8-35a.89.89 0 00.01.03l-.01-.03zm50.25 31.29a2.001 2.001 0 01-1.51 1.77c-2.8.74-3 1.11-2.95 4 .13 4.82.13 4.82-4.78 4.82h-6.09c-.41 0-1 0-1.07-.46-.07-.46.33-.9.77-1.08a8.566 8.566 0 014-.69 14.08 14.08 0 002.73-.11c.85-.08 1.75-.29 1.89-1.31.14-1.02-.61-1.63-1.41-2.09a2.864 2.864 0 00-1-.25c-2.59-.34-2.69-.54-1.47-3 .55-1.08-.31-2.59-2.15-3.59a4.429 4.429 0 01-1.69-1.25c-1.09-1.52-1.14-2.73.25-3.7a2.875 2.875 0 013.58.19 5.995 5.995 0 012.19 3c.21.556.522 1.068.92 1.51 1.39 1.86 1.85 1.94 3.49.39a2.43 2.43 0 011.716-.83 2.424 2.424 0 011.784.67 1.91 1.91 0 01.81 2.04l-.01-.03zm2.88-21.63c-1.16.5-1.67.06-1.67-1 .022-1.191.179-2.375.47-3.53.22-.95 1.1-1 1.9-.9 1 .17 1 1 1.12 1.74-.32 1.47-.12 3-1.81 3.72l-.01-.03zm90.62-5.28c.14 1-.17 1.47-.84 1.52.67 0 1-.54.83-1.52h.01zm-5.14-21.8l.51 1a5.647 5.647 0 002.71 4.32 2.37 2.37 0 00.78 1.41 9.61 9.61 0 01.93 5.22c-.05.6.24 1.55-.7 1.53-.94-.02-.74-.93-.81-1.57a5.991 5.991 0 00-.13-1.42c-.23-.64-.7-1.22-1.46-1-.76.22-1.61.25-1.31 1.39l-.5 1.08c-.88 0-.91.76-.79 1.25.47 2 .84 4 2.25 5.54.47.52.8 1.38 1.78 1.17.36.89 1.3 1.22 1.87 1.9-.5.76-1 1.35-2.08.78-.28-.15-.72-.44-1.09 0l-1.34-.86c.24-.08.16-.23 0-.33s-.33-.29-.51 0l-1.18-1.15c.26-.38.16-.51-.28-.41a1.88 1.88 0 00-.84-1c.06-.09.18-.19.16-.25-.02-.06-.13-.35-.37-.21-.06.17 0 .3.06.39-.11-.09-.12-.22-.06-.39l-.49-1c-.45-1.44-1.19-1.72-3.5-1.36-.11-.55-.21-1.1-.32-1.65 1-1.33.77-3.38 2.43-4.36l1.14-1.22a3.31 3.31 0 00.73-1.89.995.995 0 00-.64-.66c-.33-.89-.66-1.77-1-2.66.64-.74 1.81-1.1 1.67-2.38a2.55 2.55 0 012.39-1.18l-.01-.03zm-1.19 20.15s-.01.02.01.03l-.01-.03zm-.09-.09a.204.204 0 010-.12.212.212 0 00.02.15l-.02-.03zm-6.55 10.12a10.994 10.994 0 01-2.71-2 1.49 1.49 0 01-.25-1.82c.45-.82 3.8-2.58 4.52-2.39 1.15.32 1.94 2 2 4.06.42 3.06-1.4 3.47-3.55 2.18l-.01-.03zm1.92-14.04c.167.056.338.102.51.14a4.924 4.924 0 01-.51-.11v-.03zM585 276.306c-1.44 0-3.26-1.31-3.36-2.47-.09-1 1.64-2.21 3.08-2.19 1.44.02 2.87 1.17 2.87 2.17a2.8 2.8 0 01-2.59 2.49zm1.14-11.77v1.26c-.08.65-.36 1.17-1.12 1.09a.936.936 0 01-.724-.337.932.932 0 01-.196-.773c.79-3.25-1.66-5.26-2.9-7.72a3.578 3.578 0 01-.61-1.47c0-2.2-1.4-3.33-3.24-4a2.153 2.153 0 01-1.44-2.38c0-.63.08-1.21.72-1.51.64-.3 1 0 1.43.44a2.73 2.73 0 002.82.6c1.82-.44 4.12 1.59 4 3.51-.14 2.8.37 3.28 3.27 3.11 2.64-.15 3.72.52 3.82 2.33.08 1.24-.37 1.87-1.73 1.89-3.24.03-3.98.85-4.06 3.96h-.04zm-10.66-3.53a.553.553 0 00-.25.43.566.566 0 01.29-.43h-.04zm-12.43-10.25a1.808 1.808 0 012 1.14c.34.91-1.48 3.08-2.52 3.11-.82 0-1.57-.06-1.64-1.14-.04-1.29 1.11-3.01 2.2-3.11h-.04zm-3.68-8c-.45.93-1 1.05-1.71.8.66.25 1.26.13 1.71-.81v.01zm-3.42-.85a.21.21 0 010-.27.215.215 0 00.05.23l-.05.04zm-2-10.78a.715.715 0 01-.5-.51.711.711 0 00.55.47l-.05.04zm4.18 17.04c.157.222.285.464.38.72a3.161 3.161 0 00-.38-.76v.04zm-.18-7.91c-.23-.3-.46-.38-.68-.22.22-.2.45-.12.73.18l-.05.04zm13.74 32.86c-.55.53-.93 1.25-1.51 1.75a1.929 1.929 0 01-1.652.535 1.915 1.915 0 01-1.408-1.015c-1-1.86-2-3.77-3-5.65-.2-.37-.37-.75-.6-1.09-.57-.86-.93-2.22-2.34-1.68a3.687 3.687 0 00-2.08 2.93c.06 3.75-.3 4.39-2.9 5.33-.75.28-1.53.48-2.11-.29-.58-.77-.28-1.46.26-2.11 1.17-1.43 2-2.74 1.61-4.94-.52-2.84 1.66-5.27 4.54-5.92a3.213 3.213 0 013.27 1.39 61.215 61.215 0 007.35 7.31c1.56 1.3 2.03 2.05.57 3.41v.04zm23.23 4.19c-1.5 0-3.38-1.21-3.41-2.32a2.62 2.62 0 012.17-2.42c1.1 0 2.72 1.75 2.76 3 .06 1.08-.36 1.74-1.52 1.74zm20.84-10.7c0 .68 0 1.76-1 1.83-1 .07-2.6.26-2.92-.81-1-3.26-4-4.08-6.25-5.83-.75-.58-1.49-1.18-2.27-1.73a2.707 2.707 0 00-1.66-.59c-1.81.07-2.4-.82-1.35-2.36a6.36 6.36 0 00.79-4 1.997 1.997 0 00-1.21-1.84c-.78-.37-1.36.07-1.92.58-.583.6-1.212 1.155-1.88 1.66a2 2 0 01-2.76-.23c-.91-.9 0-1.49.35-2.16.62-1 2.08-1.64 1.73-3.16-.59-2.54-2.18-4.55-3.6-6.65a.923.923 0 00-1-.21c-3 .84-6 1.67-7.57 4.78-.64 1.23-1.5.46-1.94-.23-1-1.61-2.09-2-3.6-.61a.995.995 0 01-.8.4.993.993 0 01-.8-.4 1.01 1.01 0 01-.185-.867.99.99 0 01.575-.673c2.83-1.48 2.85-3.91 2.49-6.61a5.855 5.855 0 012.76-5.83c.94-.65 2-.86 2.71.16s-.32 1.56-1.06 2.06c-.54.37-1.09.75-1.61 1.14a2.86 2.86 0 00.57 5.11c.9.42 1.72.38 1.87-.81.2-1.57 1.12-2 2.57-2.16 2.28-.22 3.48-1.76 3.52-4.11 0-.88-.35-2.32 1-2.22 1.35.1 1.54 1.44 1.42 2.65a5.309 5.309 0 01-.19.88c-1.22 4.79 0 7.34 4.5 9.55 1.758.902 3.613 1.6 5.53 2.08 1.76.41 2.16 1.24 1.78 2.95-1 4.51.43 8.36 3.55 11.63.43.45.9 1.18 1.64.78.74-.4.58-1.28.43-1.95-.51-2.26-1.45-4.41-1.41-6.81.04-2.4-.23-4.95 1.22-7.29 1.06-1.72.36-2.75-1.52-3.41a10.234 10.234 0 00-4.41-.65c-4.35 0-4.3 0-4.24-3.91 0-2 .82-4 .35-6a1.665 1.665 0 01.389-1.365 1.658 1.658 0 011.301-.565 3.61 3.61 0 013.12 1c.3.34 0 .79-.22 1.15-.37.55-.69 1.12-1.1 1.64-.63.79-1.09 1.65-.55 2.62a2.536 2.536 0 002.52 1 13.362 13.362 0 005-1.25c2-.8 2.61-.45 2.61 1.59 0 1.61 1 2.66 1.84 3.78 1.57 2.13 1.57 3.44-.22 5.3-1.21 1.25-.9 3.67.68 5.3a32.516 32.516 0 014.25 4.82c1.17 1.81 1.11 3.44-.52 4.76a7.992 7.992 0 00-3.3 6.08v.01zm17.24 9.38c-2.46 2.14-3.49 2.53-6.93 2.53a4.65 4.65 0 01-4.85-3.62 1.34 1.34 0 011.78-1.59c3 1.53 6 .43 9 .47.68 0 1.35-.18 1.69.57.34.75-.22 1.19-.69 1.64zm-300.81-40.62c-.63 1.87.8 5.28 2.65 6.32 1 .59 2.69.14 2.67-.79.109-1.766.367-3.518.77-5.24a7.642 7.642 0 00-.57-2.8c-.32-1.29-1-2.36-2.43-2.12-1.43.24-2.76.81-2.72 2.71a5.812 5.812 0 01-.37 1.92zm621.97 32.94c.26-2-1.09-4.12-2.73-4.07-1.35.05-2.31 0-1.79-1.73.18-.59-.3-.81-.66-1.13-3-2.72-6.22-2.84-9.67-.94-.82.45-1.65.87-1.46 2 .19 1.13 1.26.84 2 .93 1 .12 2.12-.27 2.94.45a4.2 4.2 0 003.2.94c2.92 0 3 0 3 2.53 0 1.49.53 2.56 2.09 2.89a2.368 2.368 0 002.706-.926c.191-.284.319-.606.374-.944zm-48.03-31.57c-.61.18-1.29.35-1.41 1.18a1.707 1.707 0 00.88 1.79 30.84 30.84 0 008 4.36 2.418 2.418 0 003.22-2.39c.05-.9-.89-1.45-.89-2.3 0-2-1.5-2.76-3-3a16.41 16.41 0 00-6.8.36z" fill="#fff"/><path d="M660.79 240.886a31.09 31.09 0 01.8-5.22c.18-1.15-.48-2.09-.68-3.14a2.13 2.13 0 00-2.24-1.91 2.75 2.75 0 00-2.84 2 16.107 16.107 0 00-.62 3.33 6.284 6.284 0 002.66 5.69c1.13.78 2.93.33 2.92-.75zm-322.35 25.24a2.86 2.86 0 001.47-3.49c-.44-1.56-1.73-1.07-2.83-.93l-.35.05c-1.45.23-2.15-.34-2.09-1.84.043-.71.027-1.423-.05-2.13a1.221 1.221 0 00-.416-.878 1.23 1.23 0 00-.924-.302c-.7 0-1 .58-1 1.24 0 .41 0 .82.08 1.24l-.42 1.22c-.78-.26.15-1.71-.93-1.55-.85.13-1.2 1.07-1.4 1.9-.24 1-.41 2.09-.71 3.1-.39 1.3-.65 2.56.46 3.64.49.48.14.84 0 1.26h-1.66c-.37-2-2-3.77-.95-6.09.28-.62-.56-1.42-1.42-1.56-.49-.07-1.23-.38-1.22.63-.32.35.61 1.38-.66 1.2 0-.4-.18-.71-.62-.74a.739.739 0 00-.749.477.74.74 0 00-.041.313c.24 1.84-.17 3.77.67 5.53l.2.34c.51 1.33.79 2.54-.19 3.91a3.504 3.504 0 00-.2 3.35c-.06 1.28-.09 2.55 1.29 3.26.5.65 1 .69 1.56 0a1.857 1.857 0 001.09-1.5.643.643 0 00.39-.9l.15-1.14a1.003 1.003 0 000-1.39l-.15-.76c.15-.31.09-.54-.24-.67.06-.58-.05-1.25.69-1.49s1.09.3 1.51.7c2 1.89 2.46 1.95 4.59.62 1.58-.35 2.27.14 2.13 1.89-.1 1.26.35 1.54 1.76 1.76.383.15.808.15 1.19 0 1.27.09 1.45-.08 1.32-1.31v-.82c-.1-1.53-.83-2.15-2.5-2.05-.5 0-1 .42-1.22-.45a4.687 4.687 0 012.39-5.64zm563.66 9.45c-.682.139-1.352.336-2 .59-.59.22-1.34.32-1.31 1.22a1.618 1.618 0 001 1.69c.91.34 1.49.82.79 1.85-.3.45-.17.74.34.95a3.002 3.002 0 004.019-1.213c.25-.455.378-.968.371-1.487v-.72c.07-2.77-.5-3.31-3.21-2.88zm-575.79-50.13c1.07.37 3.71-.53 3.83-1.56.26-2.17 1.52-2.29 3.18-2l1.25.15c1.18.12 1.66-.53 1.63-1.6-.03-1.07-.75-1.36-1.6-1.12-1.298.197-2.62.173-3.91-.07-1 0-2.07 0-2.25 1.26a3.248 3.248 0 01-2.35 2.85 1.115 1.115 0 00-.64.471 1.117 1.117 0 00-.16.779c.07.57.57.7 1.02.84zm322.19-1.06c0 .65.54.88 1 1.08 1 .42 3.74-.6 3.9-1.74.29-2.1 1.54-2.1 3.08-1.86l1.06.13c1.2.17 1.84-.36 1.81-1.57-.03-1.21-.89-1.36-1.77-1.11-1.27.36-2.48 0-3.71-.09-1 0-2 0-2.25 1.24a3.293 3.293 0 01-2.32 2.86 1.124 1.124 0 00-.8 1.06zm283.71 35.82c.89-1.48 1.2-3.23 2.35-4.6a1.182 1.182 0 00-.28-1.75 1.368 1.368 0 00-1.8.25c-.77.74-1.45 1.58-2.19 2.35-.41.43-.83.94-1.52.48a1.18 1.18 0 00-1.388-.064 1.179 1.179 0 00-.342.354 1.567 1.567 0 00-.1 2 5.161 5.161 0 003.12 2.08 2.083 2.083 0 002.15-1.1zm-605.4-39.98a.74.74 0 00.81-.57c.07-.39-.26-.64-.53-.87-1.15-1-2.71-.79-4.53.57-2.13 1.92-4.28 1.28-6.44.07l-.42-.11a.834.834 0 00-1-.31c-.42-.21-.85-.24-1.08.21-.23.45.13.65.39.9.308.357.642.691 1 1 1.67 1.12 2.87 2.94 4.94 3.42 1 .23 2.54.65 2.77-.71.44-2.52 1.28-4.04 4.09-3.6zm322.34-1.98c-1.64-.37-2.83.65-4.1 1.38-.27.13-.63.2-.78.42-.81 1.16-1.59 1-2.65.22a6.404 6.404 0 00-3.49-1.26c-.82-.27-1.87.06-1.07.81 1.91 1.8 3.62 4 6.35 4.73 1.88.49 2.81-.07 2.89-2 .08-1.93.82-2.53 2.66-2.19.66.13 1.71.08 1.8-.71.09-.79-.84-1.23-1.61-1.4zm9.09 7.26a2.813 2.813 0 00.777 2.037 2.805 2.805 0 002.003.863c1.61-.09 2.12-1.11 2.06-2.57 0-1.85-.74-2.92-2-2.86-1.26.06-2.82 1.5-2.84 2.53zm237.3 45.71c-1-.07-2.65 1.58-2.65 2.6a3.096 3.096 0 002.84 2.85c1.47 0 2.16-.77 2.11-2.08-.05-1.31-1.4-3.28-2.3-3.37zm12.88-3.26c-1.18 0-3.58 1.41-3.56 2.07 0 1.27 2 2.91 3.58 3 1.22 0 1.67-.77 1.77-1.79.16-1.67-.79-3.28-1.79-3.28zm-570.63-24.35a2.648 2.648 0 00-2.33 2.83c-.12 1.43.21 2.51 1.92 2.57 1.71.06 2.51-.59 2.58-2.17.07-1.58-.96-3.25-2.17-3.23zm597.21 32.7c-1.5-1.13-1.84-1-2.17.93-.52-.12-1-.26-1.56-.34a.89.89 0 00-1 .52c-.21.48-.16 1.11.29 1.26 1.9.6 3.17 2.3 5 2.86.86.25 1.85.28 2.34-.72.217-.432.276-.926.168-1.396a2.07 2.07 0 00-.758-1.184c-.75-.63-1.53-1.28-2.31-1.93zm-37-41.13c0 .89 1.85 2.5 2.9 2.55 1.05.05 3-2 3-3.48.06-1.16-.35-1.95-1.83-1.9-1.86.06-4.07 1.54-4.07 2.83zm-563.18-9.8a3.09 3.09 0 003 3.15c1.68 0 2.16-.62 2.16-2.72s-.69-3.05-2-3.07c-1.31-.02-3.16 1.57-3.16 2.64zm619.4 53.99c-.11-.9.31-2.3-1.37-2.45-1.34-.12-2.29 1.59-2.28 3.71 0 1.74 1.29 1.18 2.17 1.23 1.82.11 1.45-1.26 1.48-2.49zm-62.36-44.23c0-.93-.52-1.44-1.45-1.35-1.44 0-3.48 1.49-3.42 2.45 0 .64.28 1.14 1.09 1.14 1.92.01 3.84-1.07 3.78-2.24zm66.65 38.96c-.87-.08-2.38 1.53-2.4 2.6.11.8.27 1.68 1.47 1.75a2.408 2.408 0 002.25-1.558c.114-.304.165-.628.15-.952.02-1.05-.39-1.74-1.47-1.84zm-299.21-30.01c-1.06.93-1 2.37-.42 3.7a.742.742 0 00.57.74c1.2 1.14 2.42.64 3.4-.2.98-.84.48-3.21-.5-4.27a2.062 2.062 0 00-1.532-.656 2.078 2.078 0 00-1.518.686zm244.27-15.93a2.28 2.28 0 00-1.87-2.44 1.991 1.991 0 00-1.481.509 2.015 2.015 0 00-.659 1.421c-.11 1 0 2 1.39 2 1.15.06 2.35.14 2.62-1.49zm11.72 51.15c-1-.66-1.45.39-2.15.72-.7.33-1.5.7-1.31 1.44.19.74 1.12.41 1.79.49.73-.19 1.88.37 2-1 .13-.54.25-1.23-.33-1.65zm38.76-32.93a1.72 1.72 0 00-1.62-1.73 2.616 2.616 0 00-2.13 2.3c0 1 .31 1.61 1.39 1.64a2.475 2.475 0 002.36-2.21zm-22.94 27.31a2.353 2.353 0 002.11-2.26 2.002 2.002 0 00-1.34-1.8c-.75-.3-.89.26-.94.86 0 .42-.31.38-.64.29-1.17-.34-1.2.43-1 1.19.15.99.59 1.94 1.81 1.72zm28.08-18.68c-.92-.45-1.3.18-1.54.93a.816.816 0 01-.351.557.805.805 0 01-.649.113c-1-.19-1.43.47-1.38 1.36.05.89.73 1.21 1.73 1.34a3.541 3.541 0 002.86-2.42 1.402 1.402 0 00.063-1.082 1.38 1.38 0 00-.733-.798zm-69.78-10.25c1.21-.07 2.46-.11 2.5-1.78a5.237 5.237 0 00-.29-2.77c-1-1.4-1.64-1.46-2.57-.13a1.063 1.063 0 01-.8.56c-1.07.16-1.12.95-1 1.75a2.805 2.805 0 002.16 2.37zm23.79-25.45c-.51-.51-3.69.28-3.94.95a1.003 1.003 0 00.49 1.22 2.589 2.589 0 001.54.26 2.617 2.617 0 001.58-.33c.75-.59 1.13-1.3.33-2.1zm26.8 32.85c-.74-.4-1.07.12-1.31.72-.16.42-.49.41-.87.42-.89 0-1.06.67-.93 1.39.13.72.61 1.41 1.46 1.23a2.739 2.739 0 002.25-2c.13-.83.05-1.44-.6-1.76zm-7.76 12.52c0-.84-.91-1.91-1.26-1.53-.76.87-2.35.05-2.58 1.46a1.238 1.238 0 00.74 1.32c.386.162.783.292 1.19.39 1.18-.11 1.93-.53 1.91-1.64zm-80.62-44.88c-.09.38-.35.36-.67.37-1.25 0-1.2.81-.73 1.55a1.903 1.903 0 002.2.82c.91-.25 1.05-1 1.15-1.83-.12-.61-.22-1.23-.86-1.48a.731.731 0 00-.697-.006.736.736 0 00-.393.576zm71.13 49.28a4.294 4.294 0 01-2.61-2.75 1.116 1.116 0 00-.71-.775 1.113 1.113 0 00-1.04.155c-1-.08-2.29-1.06-2.74.78l-1.18-.24c-.81 0-.93.28-.5 1a1.3 1.3 0 00.73 1.06c.1 1.93-.91 3.47-1.75 5.08-.34.66-1.45 1.29-.37 2.22a.258.258 0 00.15.27c0 .53.3.67.77.41 2.14.62 3.21-.83 4.31-2.21 1.14-.12 1.45-1.93 2.9-1.42l.6.37c.29.66.81.66 1.33.41 1.36-.63 1.55-3.8.11-4.36zm-5.66-.95c.09-.11.17-.22.25-.34l-.25.34zm-29.27 13.51a5.007 5.007 0 004-.08c-1.51-1.03-2.61-.43-4 .08zm68.89-19.87c0-.61-.51-1.3-.88-1-.68.61-2 .33-2.17 1.46-.13.89.58 1 1.33 1.05.95.03 1.68-.39 1.72-1.51zm-8.46 12.06c-.75.54-2.16.26-2.26 1.47-.08.82.73 1.14 1.52 1.1a1.768 1.768 0 001.75-1.65c-.07-.64-.6-1.21-1.01-.92zm-18.73-26.72l1.53-1.39c.88.05 1-.42.75-1.13a12.805 12.805 0 00-.07-4.7.467.467 0 00.193-.38.464.464 0 00-.193-.38c-1.34-1-.77-1.74.2-2.64.77-.71 1.78-1.37 1.75-2.66.09-.15.17-.3.26-.44.42 0 .53-.2.49-.53-.04-.33-.19-.43-.49-.28l-1-.92c.11-.42 0-.57-.43-.37-.72-.7-.8-1.71-1.23-2.55.28 0 .29-.2.17-.34-.12-.14-.28-.07-.43-.1a17.67 17.67 0 00-4.85-4c-.81-.52-2.15-.66-1.75 1.18.07.33.05.63-.29.75-1.33.46-2.2 1.64-3.45 2.22-2.26 1.05-3.63.65-4.09-1.14.62.13 1 1.23 1.66.69.66-.54-.37-1.05-.54-1.62a.616.616 0 00-.09-.15c-.24-.46-.72-.91-.27-1.45.45-.54.87-.18 1.33-.08a3.006 3.006 0 001.829-.13 3.009 3.009 0 001.411-1.17c1.6-2.05 2.91-2.23 5.06-.77 1.82 1.24 3.58 2.54 5.51 3.62a4.003 4.003 0 012.13 1.84c-.28.57-.42 1.12.2 1.57a.812.812 0 00.77.7c.17.43.4.68.82.24l1.42.06c.91 1.26.15 2.36-.57 3.21-1.46 1.71-1.36 3.57-1 5.54a4.758 4.758 0 000 3.16 8.278 8.278 0 000 4 2.429 2.429 0 00-.07 1.68c-.59.6 0 .92.35 1.23.84.76 3.39.22 4-1.12.55-1.17 1.39-1.18 2.32-1.35.377.145.793.145 1.17 0 1.64.53 1.72-.76 2-1.76s.5-2.27-.77-2.8c-1.27-.53-1.86.45-2.52 1.25-.36.42-.34 1.4-1.09 1.2-.75-.2-.54-1.09-.67-1.71a6.372 6.372 0 010-1.07c-.07-2.56-.08-2.61 2.51-2.82 1.27-.1 1.84-.66 1.84-1.91a6.35 6.35 0 00-.86-3.91c-1.27-1.82-.76-3.57 1.29-4.34 1.76-.66 3.56-1.21 5.3-2a4.175 4.175 0 013.12-.11c.87.3 2.06.48 2.69-.39 1.22-1.68 2.78-3.11 3.76-5a1.411 1.411 0 00-.44-2.11l-.41-.56c-.91-1.35-2.25-.64-3.42-.68-.31 0-.61.38-.47.63.72 1.32-.61 1.37-1.13 1.92a8.98 8.98 0 00-2.61 1.2c-.31-.24-.48 0-.63.2l-.78.12c-1.31 0-.42-1.41-.78-1.52-1.4-.41-2.07-1.81-3.56-2.19-2.43-.61-4.72.1-7.06.32a5.534 5.534 0 00-3.23.84 3.335 3.335 0 01-4 .29c-1.33-.72-2.77-.61-4.15-.92-1-.24-1.21.42-.94 1.28-1.42-.6-2.88 0-4.33-.11-1.284-.1-2.573-.13-3.86-.09-1.93.15-2.42.85-2.33 2.89-1 .68-1.7 2-3.38 1.38-.5-.2-.92.62-1 1.28a1.24 1.24 0 00.8 1.42c2.36.94 2.45 1.14 1.77 3.58-.34 1.22-.34 2.55 1.11 2.72 2.46.29 5 .62 7.43-.22 1.53-.54 2.19-.31 2.19 1.28a12.623 12.623 0 002.94 7.86 4.225 4.225 0 00-1.34 2.35l-.29.3c-.29-.23-.42 0-.47.21-.05.21 0 .58.36.65 0 .22 0 .45.08.68-.68.09-.55.5-.33.9.69 1.36 1.95 1.15 3.15-.43zm14.48 4.08a.9.9 0 01-1.09.61c-.16-.12-.29-.11-.38.09a1.08 1.08 0 00-.205.935 1.067 1.067 0 00.625.725 1.61 1.61 0 002.23-2.27c-.32-.8-.72-.79-1.18-.09z" fill="#fff"/><path d="M322.08 239.226l-.08.08-1.43-.18c-.55-.4-.86-.09-.89.43-.03.52-.19 1.19.73 1.11l.48.32c.33.67.76 1.1 1.56.68l.79.11c.9.61 1.61 1.62 2.91 1.36l.35.36c.35 2.17-.21 4.48 1.38 6.48a10.88 10.88 0 003.76 3.44c2.06.92 4 2.35 6.52 2 1.25-.16 1.78-.73 1.68-2-.18-2.19-.47-2.55-3.16-3a4.24 4.24 0 01-3.5-2.1 41.976 41.976 0 01-3.09-7.7 7.716 7.716 0 00-.14-2.58.764.764 0 00-.228-.752.756.756 0 00-.772-.148c-1.78.73-3.77.5-5.83 1.3a5.237 5.237 0 002.51.39c.55 0 1.11 0 1.15.75l-4.67-.32-.03-.03zM97.07 368.566c0 18.55-5.65 23.42-27.36 23.42-14.21 0-21.32-1.84-25.66-6.58-3.95-4.34-5.66-11.58-5.66-23.42v-29.6c0-12.9 2-20.26 6.84-24.47 4.34-3.95 11.32-5.53 24.87-5.53 21.58 0 27 4.6 27 22.89v6.32h-7.92v-5.66c0-12.5-3.16-15-19.21-15-20.4 0-23 2.5-23 22v28.56c0 19.34 2.77 22.1 21.84 22.1 17.24 0 20.4-2.37 20.4-15.92v-5.79h7.89l-.03 6.68zm11.85-36.18c0-12.9 2-20.26 6.71-24.47 4.34-3.95 11.45-5.53 24.47-5.53 14.08 0 21.19 1.84 25.53 6.58 4 4.34 5.66 11.71 5.66 23.42v29.6c0 12.9-2.11 20.26-6.85 24.47-4.34 4-11.31 5.53-24.47 5.53-24.87 0-31-5.92-31-30l-.05-29.6zm53.81.52c0-19.6-2.63-22.1-22.63-22.1s-22.63 2.5-22.63 22.1v28.56c0 19.6 2.63 22.1 22.63 22.1s22.63-2.5 22.63-22.1v-28.56zm68.82 39.61H193.4l-5.79 18.55h-9l27.81-87.76h12l27.77 87.76h-8.95l-5.69-18.55zM213 311.856h-1.18L196 364.096h32.76L213 311.856zm87.24 13.29c0-11.45-3.82-14.21-19.47-14.21-14.87 0-17.37 2.11-17.37 14.74 0 13.55 1.84 15.26 18.55 16.44 12.37.93 16.58 1.85 20.13 4.08 4.74 3 6.58 8.69 6.58 20.4 0 20.13-5.66 25.39-27.37 25.39-21.44 0-27.5-4.87-27.5-21.58v-6.84h7.9v5.13c0 13 2.5 14.87 20.52 14.87 16.45 0 17.9-1.45 17.9-18.16 0-5.52-.27-7.89-1.32-9.6-1.84-3.29-6.18-4.74-16.31-5.53l-9.08-.79c-14.61-1.18-18.55-6.05-18.55-22.76 0-19.87 4.73-24.34 26-24.34 22.23 0 26.31 3.68 27.1 24.73h-7.76l.05-1.97zm40.4-13.42h-24.22v-8.42h57v8.42h-24.23v79.34h-8.55v-79.34zm80.79 60.79h-38.16l-5.79 18.55h-9l27.82-87.76h12l27.7 87.76h-8.95l-5.62-18.55zm-18.56-60.66h-1.18l-15.79 52.24h32.76l-15.79-52.24zm42.13-8.55h8.56v79.34h37.34v8.42H445v-87.76zm148 65.26c0 18.55-5.66 23.42-27.37 23.42-14.21 0-21.31-1.84-25.65-6.58-4-4.34-5.66-11.58-5.66-23.42v-29.6c0-12.9 2-20.26 6.84-24.47 4.34-3.95 11.32-5.53 24.87-5.53 21.58 0 27 4.6 27 22.89v6.32h-7.89v-5.66c0-12.5-3.16-15-19.21-15-20.4 0-23 2.5-23 22v28.56c0 19.34 2.77 22.1 21.84 22.1 17.24 0 20.4-2.37 20.4-15.92v-5.79H593v6.68zm12.91-65.26h8.55v79.34h37.37v8.42h-45.92v-87.76zm58.56 0H673v87.76h-8.55l.02-87.76zm25.26 0h14.34l26.84 77.5h.14l26.84-77.5h14.34v87.76h-8.55v-78.55h-.27l-27.76 78.55h-9.34l-27.76-78.55h-.27v78.55h-8.55v-87.76zm145.79 69.21h-38.16l-5.78 18.55h-9l27.81-87.76h12l27.77 87.76h-9l-5.64-18.55zM817 311.856h-1.19L800 364.096h32.76L817 311.856zm52.61-.13H845.4v-8.42h57v8.42h-24.24v79.34h-8.55v-79.34zm43.03-8.42h47.49v8.42h-38.94v29.58h37v8.43h-37v32.89h38.68v8.42h-47.23v-87.74zm-762.89 108.74v21.49h-76.7v16.36h72.29v18.79H73.05v16.79h77.7v21.49H44.59v-94.92h105.16zm64.63 47.53l-44.83-47.53h38.14l30.45 34 31-34h37.14l-44.69 47.1 47.68 47.82H270l-31.86-34.16-32 34.16h-39l47.24-47.39zm111.16-47.53h72.58c18.35 0 23.05.57 29 3.55 9.53 4.7 13.09 13.38 13.09 31.31s-3.27 27.47-11.1 32.31c-5.55 3.41-11.95 4.41-28.46 4.41h-46.36v23.34h-28.75v-94.92zm70.73 48.52c11.81 0 15.22-2.56 15.22-11.52 0-11.39-2.84-13.95-15.22-13.95h-42v25.47h42zm169.64-48.52v21.49h-76.7v16.36h72.29v18.79h-72.29v16.79h77.7v21.49H460.75v-94.92h105.16zm22.36 0h81.83c16.79 0 24.19 1.42 29.6 6s8.11 12.53 8.11 25.34c0 17.64-4.27 24.61-16.37 27.32 11.82 2 15.37 7 15.09 21.34v15h-29.32v-11.89c-.14-10.25-3-12.38-15.93-12.1H617v23.91h-28.73v-94.92zm73.86 47.81c14 0 16.65-1.7 16.65-11.1 0-6.12-.57-8.68-2.42-10.67-2.14-2.28-4.55-2.7-13.23-2.7H617v24.47h45.13zm105.61-24.33h-42.27v-23.48h113.42v23.48h-42.26v71.44h-28.89v-71.44zm117.13 41.13c.28 6.54 1 8.11 4.41 9.39 2.14.85 10.25 1.42 19.36 1.42 33.44 0 37.42-1 37.42-8.82 0-3.84-1.85-6.69-4.84-7.69-2.99-1-3.13-1-18.07-1.14H897c-17.51 0-24.77-1-30.89-4.12-6.83-3.56-10-11.1-10-24.05 0-17.08 4.84-24.34 18.5-27.61 7.69-2 18.79-2.7 39.57-2.7 33.3 0 41 .85 47.81 5.26 6.55 4.41 8.68 10.25 8.68 24.48H942.5c0-8.26-2.84-9.39-21.48-9.39-9.25 0-21.64.28-26.19.56-7.68.57-10.25 2.57-10.25 8 0 4 2 6.55 6.12 7.55 1.71.42 2.28.57 11.67.71h26.9c2.56 0 15.37.42 20.21.71 18.07.85 25.19 8.82 25.19 27.89 0 17.51-5.13 25.19-19.07 28.18-7.12 1.56-21.21 2.42-41.84 2.42-32.88 0-40.13-.71-48.53-5-5.83-2.85-8.82-10.11-8.82-21.35 0-.85 0-2.7.14-4.69l28.32-.01z" fill="#fff"/></svg>