<svg width="35" height="35" fill="none" xmlns="http://www.w3.org/2000/svg"><g clip-path="url(#clip0_3439_26924)"><path d="M29.915 35H5.085A5.085 5.085 0 010 29.915V5.085A5.085 5.085 0 015.085 0h24.83a5.085 5.085 0 015.086 5.085v24.83A5.086 5.086 0 0129.915 35z" fill="#fff"/><path d="M23.846 35V22.2h3.995l.816-5.084h-4.81v-3.54c0-1.452.544-2.542 2.723-2.542h2.36v-4.63c-1.27-.181-2.723-.363-3.994-.363-4.175 0-7.08 2.542-7.08 7.081v3.994h-4.54V22.2h4.54V35h5.99z" fill="#4A4A4A"/></g><defs><clipPath id="clip0_3439_26924"><path fill="#fff" d="M0 0h35v35H0z"/></clipPath></defs></svg>