<svg width="276" height="217" fill="none" xmlns="http://www.w3.org/2000/svg"><path fill="#fff" d="M0 0h276v217H0z"/><path d="M25.993 30.707V36h-1.679V22.933h4.453c1.131 0 2.093.377 2.884 1.131.802.755 1.204 1.673 1.204 2.756 0 1.107-.401 2.032-1.204 2.774-.78.742-1.74 1.113-2.884 1.113h-2.774zm0-6.168v4.563h2.81c.67 0 1.223-.226 1.661-.676.45-.45.676-.985.676-1.606 0-.608-.226-1.137-.676-1.587-.438-.463-.991-.694-1.66-.694h-2.811zm11.704 11.753c-1.314 0-2.397-.45-3.249-1.35-.852-.9-1.277-2.038-1.277-3.413 0-1.363.413-2.494 1.24-3.395.828-.912 1.886-1.369 3.176-1.369 1.326 0 2.379.432 3.157 1.296.791.852 1.187 2.05 1.187 3.596l-.019.182h-7.026c.024.876.316 1.582.876 2.117.56.535 1.229.803 2.008.803 1.07 0 1.91-.535 2.518-1.606l1.497.73a4.44 4.44 0 01-1.68 1.77c-.705.426-1.508.639-2.408.639zm-2.683-5.84h5.128a2.18 2.18 0 00-.766-1.533c-.45-.414-1.059-.62-1.825-.62-.633 0-1.18.194-1.643.584-.45.389-.748.912-.894 1.569zm19.512-7.665c.608 0 1.107.103 1.496.31l-.456 1.479a2.173 2.173 0 00-.986-.22c-.413 0-.754.146-1.022.438-.255.28-.383.657-.383 1.132v1.132h2.336v1.532h-2.336V36h-1.679v-7.41h-1.679v-1.532h1.68v-1.296c0-.888.279-1.606.839-2.154.571-.547 1.301-.821 2.19-.821zm-11.06 4.27h1.606v1.46h.073c.499-1.143 1.527-1.715 3.084-1.715l.347.037v1.752l-.748-.074c-.779 0-1.424.244-1.935.73-.498.475-.748 1.083-.748 1.826V36h-1.679v-8.942zm12.588 4.472c0-1.375.432-2.513 1.296-3.413.876-.9 1.977-1.35 3.303-1.35 1.327 0 2.422.45 3.285 1.35.876.9 1.314 2.038 1.314 3.413 0 1.387-.438 2.524-1.313 3.412-.864.9-1.96 1.351-3.285 1.351-1.327 0-2.428-.45-3.304-1.35-.864-.9-1.296-2.038-1.296-3.413zm1.68 0c0 .96.28 1.74.839 2.336.56.596 1.253.894 2.08.894.828 0 1.521-.298 2.081-.894.56-.596.84-1.375.84-2.336 0-.95-.28-1.722-.84-2.318-.572-.608-1.265-.912-2.08-.912-.816 0-1.51.304-2.081.912-.56.596-.84 1.369-.84 2.318zM68.278 36H66.6v-8.942h1.606v1.46h.073c.17-.475.517-.877 1.04-1.205.536-.34 1.06-.511 1.57-.511.487 0 .9.073 1.241.219l-.51 1.624c-.208-.085-.536-.128-.986-.128-.633 0-1.187.256-1.661.767a2.582 2.582 0 00-.694 1.789V36zm6.63 0H73.23v-8.942h1.606v1.24h.073c.256-.438.645-.802 1.168-1.095.536-.291 1.065-.438 1.588-.438.657 0 1.235.153 1.734.457a2.69 2.69 0 011.095 1.259c.742-1.144 1.77-1.716 3.084-1.716 1.034 0 1.831.317 2.39.95.56.632.84 1.532.84 2.7V36h-1.679v-5.329c0-.84-.152-1.442-.456-1.807-.304-.377-.815-.566-1.533-.566-.645 0-1.186.274-1.624.822-.438.547-.657 1.192-.657 1.934V36h-1.68v-5.329c0-.84-.151-1.442-.456-1.807-.304-.377-.815-.566-1.532-.566-.645 0-1.187.274-1.625.822-.438.547-.657 1.192-.657 1.934V36zm14.996-2.737c0 .438.182.803.547 1.095a2.09 2.09 0 001.314.438c.706 0 1.333-.262 1.88-.785.56-.523.84-1.138.84-1.844-.523-.413-1.254-.62-2.19-.62-.682 0-1.254.164-1.716.493-.45.328-.675.736-.675 1.223zm2.172-6.497c1.24 0 2.22.334 2.938 1.003.718.657 1.077 1.564 1.077 2.72V36h-1.606v-1.241h-.073c-.694 1.022-1.619 1.533-2.774 1.533-.986 0-1.813-.292-2.482-.876-.657-.584-.986-1.314-.986-2.19 0-.925.347-1.66 1.04-2.208.706-.548 1.643-.822 2.81-.822.999 0 1.82.183 2.465.548v-.383c0-.584-.231-1.077-.694-1.479a2.359 2.359 0 00-1.624-.62c-.937 0-1.68.395-2.227 1.186l-1.478-.93c.815-1.169 2.02-1.753 3.614-1.753zm5.908.292h1.606v1.24h.073c.256-.438.645-.802 1.168-1.095a3.428 3.428 0 011.661-.438c1.095 0 1.935.317 2.519.95.596.62.894 1.508.894 2.664V36h-1.679v-5.512c-.037-1.46-.773-2.19-2.208-2.19-.67 0-1.229.274-1.679.822-.45.535-.676 1.18-.676 1.934V36h-1.679v-8.942zm13.98 9.234c-1.326 0-2.427-.45-3.303-1.35-.864-.925-1.296-2.063-1.296-3.413 0-1.375.432-2.513 1.296-3.413.876-.9 1.977-1.35 3.303-1.35.912 0 1.709.23 2.391.693.681.45 1.192 1.077 1.533 1.88l-1.533.639c-.475-1.12-1.308-1.68-2.501-1.68-.766 0-1.429.31-1.989.931-.547.62-.821 1.387-.821 2.3 0 .912.274 1.679.821 2.3.56.62 1.223.93 1.989.93 1.229 0 2.093-.56 2.592-1.679l1.496.639a4.035 4.035 0 01-1.551 1.898c-.693.45-1.503.675-2.427.675zm9.373 0c-1.314 0-2.397-.45-3.249-1.35-.852-.9-1.277-2.038-1.277-3.413 0-1.363.413-2.494 1.241-3.395.827-.912 1.885-1.369 3.175-1.369 1.326 0 2.379.432 3.157 1.296.791.852 1.187 2.05 1.187 3.596l-.019.182h-7.026c.024.876.316 1.582.876 2.117.56.535 1.229.803 2.008.803 1.07 0 1.91-.535 2.518-1.606l1.497.73a4.45 4.45 0 01-1.679 1.77c-.706.426-1.509.639-2.409.639zm-2.683-5.84h5.128a2.182 2.182 0 00-.766-1.533c-.451-.414-1.059-.62-1.825-.62-.633 0-1.181.194-1.643.584-.45.389-.748.912-.894 1.569z" fill="#000"/><path d="M23 55.5h230M23 89h230M23 122h230M23 155h230M23 188h230" stroke="#C4C4C4"/><path d="M32 178l48.15-49.282 68.577 11.514 38.423-64.481L246 67" stroke="#0E80FF" stroke-width="5" stroke-linecap="round"/><path d="M24 168l44.5-64 63 8.5L175 67l52-5.5" stroke="#BCDCFF" stroke-width="5" stroke-linecap="round"/></svg>