<svg width="234" height="87" fill="none" xmlns="http://www.w3.org/2000/svg"><path fill="#fff" d="M0 0h234v87H0z"/><rect x="123" y="52" width="88" height="14" rx="7" fill="#F8F8F8"/><path d="M25.573 28.565c0 .73.56 1.368 1.68 1.916v-3.595c-.512.085-.92.28-1.224.584a1.493 1.493 0 00-.456 1.095zm4.745 6.15c0-.754-.56-1.387-1.679-1.898v3.778c1.12-.256 1.68-.882 1.68-1.88zm-1.679 3.522v1.588h-1.387v-1.57a4.555 4.555 0 01-2.427-1.076 4.302 4.302 0 01-1.387-2.263l1.497-.602a3.27 3.27 0 00.839 1.514c.426.414.919.682 1.478.803v-4.38c-1.216-.486-2.08-1.022-2.591-1.606a3.1 3.1 0 01-.767-2.08c0-.864.31-1.606.931-2.227.62-.632 1.43-.997 2.427-1.095v-1.551h1.387v1.606c.755.122 1.405.408 1.953.858.56.45.937.98 1.132 1.588l-1.497.638c-.219-.754-.748-1.235-1.588-1.442v4.107c1.241.523 2.111 1.064 2.61 1.624.499.56.748 1.229.748 2.008 0 .96-.304 1.758-.912 2.39-.596.62-1.412 1.01-2.446 1.168zM184.38 27.565c0 .73.56 1.368 1.679 1.916v-3.595c-.511.085-.918.28-1.222.584a1.49 1.49 0 00-.457 1.095zm4.745 6.15c0-.754-.559-1.387-1.679-1.898v3.778c1.12-.256 1.679-.882 1.679-1.88zm-1.679 3.522v1.588h-1.387v-1.57a4.558 4.558 0 01-2.427-1.076 4.304 4.304 0 01-1.387-2.263l1.497-.602a3.27 3.27 0 00.839 1.514c.426.414.919.682 1.478.803v-4.38c-1.216-.486-2.08-1.022-2.591-1.606a3.1 3.1 0 01-.767-2.08c0-.864.311-1.606.931-2.227.621-.632 1.43-.997 2.427-1.095v-1.551h1.387v1.606c.755.122 1.406.408 1.953.858.56.45.937.98 1.132 1.588l-1.497.638c-.219-.754-.748-1.235-1.588-1.442v4.107c1.241.523 2.111 1.064 2.61 1.624.499.56.748 1.229.748 2.008 0 .96-.304 1.758-.912 2.39-.596.62-1.411 1.01-2.446 1.168zm6.665-9.672c0 .73.56 1.368 1.679 1.916v-3.595c-.511.085-.918.28-1.222.584a1.49 1.49 0 00-.457 1.095zm4.745 6.15c0-.754-.559-1.387-1.679-1.898v3.778c1.12-.256 1.679-.882 1.679-1.88zm-1.679 3.522v1.588h-1.387v-1.57a4.558 4.558 0 01-2.427-1.076 4.304 4.304 0 01-1.387-2.263l1.497-.602a3.27 3.27 0 00.839 1.514c.426.414.919.682 1.478.803v-4.38c-1.216-.486-2.08-1.022-2.591-1.606a3.1 3.1 0 01-.767-2.08c0-.864.311-1.606.931-2.227.621-.632 1.43-.997 2.427-1.095v-1.551h1.387v1.606c.755.122 1.406.408 1.953.858.56.45.937.98 1.132 1.588l-1.497.638c-.219-.754-.748-1.235-1.588-1.442v4.107c1.241.523 2.111 1.064 2.61 1.624.499.56.748 1.229.748 2.008 0 .96-.304 1.758-.912 2.39-.596.62-1.411 1.01-2.446 1.168zm6.665-9.672c0 .73.56 1.368 1.679 1.916v-3.595c-.511.085-.918.28-1.222.584a1.49 1.49 0 00-.457 1.095zm4.745 6.15c0-.754-.559-1.387-1.679-1.898v3.778c1.12-.256 1.679-.882 1.679-1.88zm-1.679 3.522v1.588h-1.387v-1.57a4.558 4.558 0 01-2.427-1.076 4.304 4.304 0 01-1.387-2.263l1.497-.602a3.27 3.27 0 00.839 1.514c.426.414.919.682 1.478.803v-4.38c-1.216-.486-2.08-1.022-2.591-1.606a3.1 3.1 0 01-.767-2.08c0-.864.311-1.606.931-2.227.621-.632 1.43-.997 2.427-1.095v-1.551h1.387v1.606c.755.122 1.406.408 1.953.858.56.45.937.98 1.132 1.588l-1.497.638c-.219-.754-.748-1.235-1.588-1.442v4.107c1.241.523 2.111 1.064 2.61 1.624.499.56.748 1.229.748 2.008 0 .96-.304 1.758-.912 2.39-.596.62-1.412 1.01-2.446 1.168z" fill="#000"/><rect x="23" y="52" width="131" height="14" rx="7" fill="url(#paint0_linear_3601_2495)"/><defs><linearGradient id="paint0_linear_3601_2495" x1="154" y1="52" x2="151.041" y2="79.684" gradientUnits="userSpaceOnUse"><stop stop-color="#0083FF"/><stop offset="1" stop-color="#2978FF"/></linearGradient></defs></svg>