<svg width="35" height="35" fill="none" xmlns="http://www.w3.org/2000/svg"><g clip-path="url(#clip0_3439_26936)"><path d="M29.915 35H5.085A5.085 5.085 0 010 29.915V5.085A5.085 5.085 0 015.085 0h24.83a5.085 5.085 0 015.086 5.085v24.83A5.086 5.086 0 0129.915 35z" fill="#fff"/><path d="M22.933 4.692H12.068A7.417 7.417 0 004.65 12.11v10.864a7.417 7.417 0 007.418 7.417h10.864a7.417 7.417 0 007.417-7.417V12.11a7.417 7.417 0 00-7.416-7.418zm5.05 18.473a4.924 4.924 0 01-4.924 4.924H11.941a4.924 4.924 0 01-4.924-4.924V12.047a4.924 4.924 0 014.924-4.923h11.118a4.924 4.924 0 014.924 4.923v11.118z" fill="#4A4A4A"/><path d="M17.5 10.938a6.668 6.668 0 100 13.337 6.668 6.668 0 000-13.337zm0 10.99a4.323 4.323 0 110-8.645 4.323 4.323 0 010 8.646zm6.891-9.69a1.553 1.553 0 100-3.107 1.553 1.553 0 000 3.107z" fill="#4A4A4A"/></g><defs><clipPath id="clip0_3439_26936"><path fill="#fff" d="M0 0h35v35H0z"/></clipPath></defs></svg>