<svg width="35" height="35" fill="none" xmlns="http://www.w3.org/2000/svg"><g clip-path="url(#clip0_3439_26943)"><path d="M29.915 35H5.085A5.085 5.085 0 010 29.915V5.085A5.085 5.085 0 015.085 0h24.83a5.085 5.085 0 015.086 5.085v24.83A5.086 5.086 0 0129.915 35z" fill="#fff"/><path fill-rule="evenodd" clip-rule="evenodd" d="M11.834 29.17V13.563H6.646V29.17h5.188zM9.24 11.433c1.809 0 2.934-1.198 2.934-2.696-.033-1.53-1.125-2.696-2.9-2.696-1.774 0-2.934 1.165-2.934 2.696 0 1.498 1.125 2.696 2.866 2.696h.034zm5.463 17.737h5.187v-8.715c0-.467.033-.932.17-1.266.375-.931 1.229-1.897 2.662-1.897 1.877 0 2.627 1.43 2.627 3.529v8.349h5.186v-8.948c0-4.793-2.559-7.024-5.97-7.024-2.799 0-4.027 1.564-4.71 2.63h.035v-2.264h-5.187c.068 1.465 0 15.606 0 15.606z" fill="#4A4A4A"/></g><defs><clipPath id="clip0_3439_26943"><path fill="#fff" d="M0 0h35v35H0z"/></clipPath></defs></svg>