<svg width="82" height="77" fill="none" xmlns="http://www.w3.org/2000/svg"><path fill="#fff" d="M.748 0h80.504v76.812H.748z"/><path d="M79.234 76.588H2.787a1.776 1.776 0 01-1.775-1.776V1.995c0-.978.798-1.77 1.775-1.77h76.447c.978 0 1.776.792 1.776 1.775v72.818c0 .978-.792 1.775-1.776 1.775v-.005z" fill="#fff"/><mask id="a" style="mask-type:luminance" maskUnits="userSpaceOnUse" x="0" y="0" width="82" height="77"><path d="M81.252 0H.748v76.812h80.504V0z" fill="#fff"/></mask><g mask="url(#a)"><path d="M79.234 76.588H2.787a1.776 1.776 0 01-1.775-1.776V1.995c0-.978.798-1.77 1.775-1.77h76.447c.978 0 1.776.792 1.776 1.775v72.818c0 .978-.792 1.775-1.776 1.775v-.005z" stroke="#5F6368" stroke-width=".444" stroke-miterlimit="10"/><path d="M79.257 76.588H2.742a1.776 1.776 0 01-1.775-1.776V1.994A1.78 1.78 0 012.742.22h76.51c.977 0 1.775.792 1.775 1.775v72.818c0 .978-.793 1.776-1.776 1.776h.006z" fill="#fff"/><path d="M.967 60.996V73.84c0 1.944.702 2.748 2.747 2.748H78.28c2.163 0 3.208 0 2.748-2.748V60.996H.967z" fill="#5F6368"/></g><path d="M20.447 66.26h1.602c.27 0 .522.063.753.18a1.366 1.366 0 01.752 1.237c0 .27-.067.517-.202.73a1.45 1.45 0 01-.55.506c-.23.118-.484.18-.753.18h-.877v1.797h-.725v-4.629zm1.618 2.141a.777.777 0 00.416-.106.73.73 0 00.264-.972.676.676 0 00-.264-.27.813.813 0 00-.416-.101h-.893v1.455h.893v-.006zm2.102-2.141h1.63c.275 0 .527.063.758.18.23.118.41.287.54.506.129.214.196.46.196.73 0 .31-.101.585-.298.827-.202.241-.45.404-.753.483v.033l1.259 1.826v.04h-.843l-1.22-1.81h-.544v1.81h-.725V66.26zm1.607 2.141a.782.782 0 00.55-.207.684.684 0 00.225-.529.716.716 0 00-.09-.348.719.719 0 00-.657-.382h-.91v1.466h.887-.005zm2.213-2.141h2.81v.692h-2.085v1.28h1.882v.686h-1.882V70.2h2.085v.692h-2.81v-4.63zm3.585 0h.984l1.331 3.512h.04l1.331-3.511h.983v4.624h-.719v-2.59l.04-.832h-.04l-1.326 3.422h-.579l-1.325-3.422h-.04l.04.832v2.59h-.72V66.26zm5.59 0h.725v4.625h-.725V66.26zm1.653 0h2.809v.692h-2.085v1.28h1.883v.686h-1.883V70.2h2.085v.692h-2.81v-4.63zm3.579 0h1.629c.275 0 .528.063.758.18.23.118.41.287.54.506.13.214.197.46.197.73 0 .31-.102.585-.298.827-.203.241-.45.404-.753.483v.033l1.258 1.826v.04h-.842l-1.22-1.81h-.545v1.81h-.724V66.26zM44 68.402a.782.782 0 00.55-.207.685.685 0 00.225-.529.716.716 0 00-.09-.348.719.719 0 00-.657-.382h-.91v1.466h.887H44zm3.383 1.808l.815-.814c.404-.405.674-.686.81-.832.179-.19.302-.348.37-.472a.88.88 0 00.101-.432.59.59 0 00-.197-.438c-.129-.124-.303-.186-.522-.186a.704.704 0 00-.495.18.804.804 0 00-.247.41l-.646-.264a1.35 1.35 0 01.242-.46c.118-.153.275-.276.477-.383.197-.101.427-.157.686-.157.28 0 .528.056.747.168a1.236 1.236 0 01.685 1.118c0 .253-.067.5-.196.737a2.91 2.91 0 01-.5.657c-.084.084-.304.298-.652.646l-.528.528.011.028h1.927v.646h-2.877v-.674l-.01-.005zm4.247.473a1.94 1.94 0 01-.635-.832 3.017 3.017 0 01-.224-1.174c0-.433.073-.826.224-1.18.146-.349.36-.63.635-.832.276-.202.596-.303.955-.303.36 0 .68.101.956.303.275.203.483.478.634.832.147.348.225.747.225 1.18 0 .432-.073.82-.225 1.174a1.95 1.95 0 01-.634.832c-.276.202-.59.309-.95.309s-.68-.102-.955-.31h-.006zm1.534-.585c.163-.146.292-.343.382-.59.09-.247.135-.528.135-.837 0-.309-.045-.59-.135-.843a1.381 1.381 0 00-.382-.59.878.878 0 00-.579-.213.892.892 0 00-.584.213c-.169.14-.292.337-.377.59a2.626 2.626 0 00-.134.843c0 .315.045.59.134.837.09.248.214.444.377.59a.85.85 0 00.584.22c.225 0 .41-.074.579-.22zm1.68.112l.815-.814c.404-.405.674-.686.809-.832.18-.19.303-.348.37-.472a.88.88 0 00.102-.432.59.59 0 00-.197-.438c-.129-.124-.303-.186-.522-.186a.704.704 0 00-.495.18.803.803 0 00-.247.41l-.646-.264c.045-.157.124-.31.242-.46.118-.153.275-.276.477-.383.197-.101.427-.157.686-.157.28 0 .528.056.747.168a1.236 1.236 0 01.685 1.118c0 .253-.067.5-.196.737-.13.236-.298.455-.5.657-.085.084-.304.298-.652.646l-.528.528.011.028h1.927v.646h-2.877v-.674l-.01-.005zm5.435-.202H58.21v-.556l2.011-2.983h.77v2.882h.562v.657h-.562v.877h-.708v-.877h-.005zm0-.663V67.52h-.04l-1.236 1.826h1.276z" fill="#fff"/><mask id="b" style="mask-type:luminance" maskUnits="userSpaceOnUse" x="0" y="0" width="82" height="77"><path d="M81.252 0H.748v76.812h80.504V0z" fill="#fff"/></mask><g mask="url(#b)"><path d="M79.257 76.588H2.742a1.776 1.776 0 01-1.775-1.776V1.994A1.78 1.78 0 012.742.22h76.51c.977 0 1.775.792 1.775 1.775v72.818c0 .978-.793 1.776-1.776 1.776h.006z" stroke="#5F6368" stroke-width=".444" stroke-miterlimit="10"/></g><path d="M15.307 48.967a2.97 2.97 0 01-1.483-2.613c0-.556.134-1.068.398-1.528a2.92 2.92 0 011.085-1.085 2.927 2.927 0 011.494-.393c.422 0 .82.073 1.191.225.371.151.68.36.922.635l-.49.488a1.744 1.744 0 00-.696-.517 2.377 2.377 0 00-.916-.18 2.278 2.278 0 00-1.977 1.119c-.214.354-.315.77-.315 1.236 0 .466.107.876.315 1.236.207.36.494.63.848.826.354.197.73.292 1.135.292.404 0 .708-.062.966-.18.259-.118.484-.28.669-.477a1.73 1.73 0 00.337-.545c.084-.214.14-.444.163-.703h-2.13v-.634h2.765c.028.151.04.286.04.415 0 .354-.057.697-.17 1.034a2.27 2.27 0 01-.539.882c-.528.573-1.236.86-2.112.86-.54 0-1.04-.13-1.495-.393h-.005zm6.006.106a2.027 2.027 0 01-.753-.786 2.267 2.267 0 01-.27-1.102c0-.404.09-.77.27-1.1.18-.332.433-.596.753-.787.32-.192.685-.287 1.084-.287.4 0 .764.095 1.085.287.32.19.573.455.753.786.18.332.27.697.27 1.101 0 .405-.09.77-.27 1.102-.18.331-.433.595-.753.786-.32.191-.686.287-1.085.287-.399 0-.764-.096-1.084-.287zm1.787-.522c.219-.124.393-.31.522-.545.13-.236.197-.511.197-.826 0-.315-.068-.59-.197-.826a1.402 1.402 0 00-2.46 0c-.13.236-.198.511-.198.826 0 .315.068.59.197.826a1.409 1.409 0 001.236.736c.253 0 .49-.062.703-.191zm2.994.522a2.027 2.027 0 01-.753-.786 2.267 2.267 0 01-.27-1.102c0-.404.09-.77.27-1.1.18-.332.433-.596.753-.787.32-.192.686-.287 1.085-.287.399 0 .764.095 1.084.287.32.19.573.455.753.786.18.332.27.697.27 1.101 0 .405-.09.77-.27 1.102-.18.331-.433.595-.753.786-.32.191-.685.287-1.084.287-.4 0-.764-.096-1.085-.287zm1.787-.522c.22-.124.393-.31.523-.545.129-.236.196-.511.196-.826 0-.315-.067-.59-.196-.826a1.403 1.403 0 00-1.933-.54c-.22.124-.393.31-.528.54-.13.236-.197.511-.197.826 0 .315.067.59.197.826a1.41 1.41 0 001.236.736c.253 0 .489-.062.702-.191zm2.793 2.208c-.315-.225-.523-.495-.63-.81l.618-.263a1.2 1.2 0 00.455.573c.214.146.461.219.753.219.422 0 .753-.118.984-.354.23-.236.348-.573.348-1.011v-.456h-.034c-.135.208-.32.377-.567.512a1.753 1.753 0 01-.832.197 1.76 1.76 0 01-.966-.276 2.01 2.01 0 01-.697-.77 2.391 2.391 0 01-.258-1.129c0-.421.084-.792.258-1.124.174-.331.405-.59.697-.775a1.76 1.76 0 01.966-.275c.31 0 .59.067.832.196.241.13.432.304.567.517h.034v-.584h.652v3.938c0 .658-.18 1.164-.545 1.506-.365.343-.843.517-1.439.517-.483 0-.882-.112-1.19-.337l-.006-.011zm1.865-2.203c.202-.123.36-.303.483-.539.118-.236.18-.511.18-.832 0-.32-.062-.606-.18-.842a1.262 1.262 0 00-1.152-.72c-.241 0-.472.062-.674.186a1.345 1.345 0 00-.489.54c-.118.235-.18.51-.18.83 0 .321.062.602.18.838s.281.416.49.54c.207.123.426.185.673.185.247 0 .472-.062.669-.186zm2.32-5.079h.686v5.754h-.686v-5.754zm2.467 5.602a1.931 1.931 0 01-.725-.776 2.353 2.353 0 01-.258-1.112c0-.41.084-.759.247-1.096.163-.331.393-.595.697-.797A1.854 1.854 0 0138.332 45c.399 0 .747.09 1.045.27.292.18.522.426.68.741.157.315.236.68.236 1.084a.758.758 0 01-.023.208h-3.236c.017.31.09.574.225.787.134.213.303.377.51.483.209.107.422.163.647.163.523 0 .927-.247 1.214-.741l.578.28a2.026 2.026 0 01-.719.787c-.303.191-.668.287-1.095.287a2 2 0 01-1.051-.281l-.017.01zm2.23-2.332a1.41 1.41 0 00-.145-.517 1.097 1.097 0 00-.405-.432c-.185-.118-.416-.175-.697-.175-.32 0-.595.102-.814.31a1.462 1.462 0 00-.439.814h2.5zm3.198-3.27h1.938c.32 0 .618.073.893.22.276.145.49.348.658.606.163.259.247.55.247.882 0 .332-.084.618-.247.882a1.71 1.71 0 01-.658.607c-.275.146-.573.22-.893.22h-1.264v2.348h-.674v-5.764zm1.955 2.759a1.059 1.059 0 00.95-.545c.09-.163.134-.332.134-.506s-.045-.343-.135-.506a1.068 1.068 0 00-.95-.544h-1.275v2.107h1.276v-.006zm3.146 2.95a1.292 1.292 0 01-.736-1.191c0-.433.163-.776.49-1.017.325-.242.74-.366 1.235-.366.247 0 .478.028.686.079.213.056.376.118.489.185v-.247a.93.93 0 00-.32-.736c-.214-.185-.484-.275-.81-.275-.23 0-.444.05-.635.146a1.16 1.16 0 00-.455.416l-.517-.388a1.67 1.67 0 01.663-.579 2.08 2.08 0 01.938-.208c.557 0 .995.146 1.315.439.32.292.478.69.478 1.19v2.597h-.652v-.585h-.034a1.478 1.478 0 01-.528.506c-.236.14-.5.208-.798.208-.297 0-.567-.056-.803-.174h-.006zm1.512-.607c.196-.118.354-.276.472-.472.118-.197.174-.416.174-.652a1.664 1.664 0 00-.472-.208 2.279 2.279 0 00-.596-.078c-.376 0-.657.078-.848.236a.74.74 0 00-.287.6c0 .225.085.405.259.546.174.14.387.208.652.208.23 0 .443-.056.64-.175l.006-.005zm2.14-3.383h.652v.652h.034c.095-.241.258-.427.489-.562a1.47 1.47 0 01.753-.202c.118 0 .219.006.297.022v.697a1.604 1.604 0 00-.37-.033c-.349 0-.63.117-.849.342-.219.23-.326.528-.326.9v2.275h-.685V45.19l.005.005zm4.158 4.08a1.21 1.21 0 01-.36-.22 1.04 1.04 0 01-.241-.36 1.316 1.316 0 01-.079-.5v-2.443h-.713v-.618h.713v-1.158h.68v1.158h.995v.618h-.995v2.28c0 .231.045.4.13.512.1.118.247.18.443.18a.838.838 0 00.45-.135v.669a.978.978 0 01-.247.078 1.687 1.687 0 01-.315.023c-.169 0-.32-.028-.46-.084zm1.776-4.141h.651v.6h.034a1.37 1.37 0 01.54-.516c.247-.14.51-.214.786-.214.495 0 .871.14 1.13.427.258.287.387.675.387 1.17v2.629h-.685v-2.523c0-.382-.09-.657-.276-.826-.18-.169-.432-.259-.747-.259a.995.995 0 00-.59.186 1.233 1.233 0 00-.404.489c-.096.202-.147.41-.147.629v2.304h-.685v-4.096h.006zm5.281 3.944a1.931 1.931 0 01-.725-.776 2.353 2.353 0 01-.258-1.112c0-.41.084-.759.247-1.096a2 2 0 01.697-.797A1.823 1.823 0 0163.728 45c.399 0 .747.09 1.045.27.298.18.523.426.68.741.157.315.236.68.236 1.084a.762.762 0 01-.023.208H62.43c.017.31.09.574.225.787.135.213.303.377.511.483.208.107.422.163.646.163.523 0 .927-.247 1.214-.741l.579.28a2.07 2.07 0 01-.72.787c-.303.191-.668.287-1.095.287a2 2 0 01-1.05-.281l-.018.01zm2.23-2.332a1.408 1.408 0 00-.145-.517 1.097 1.097 0 00-.405-.432c-.185-.118-.416-.175-.697-.175-.32 0-.595.102-.814.31a1.455 1.455 0 00-.438.814h2.5zm1.512-1.612h.652v.657h.034c.078-.225.236-.41.466-.562.23-.152.472-.225.725-.225.185 0 .348.028.483.09v.73a1.306 1.306 0 00-.579-.129.947.947 0 00-.545.169 1.286 1.286 0 00-.545 1.073v2.293h-.685v-4.096h-.006z" fill="#5F6368" stroke="#5F6368" stroke-width=".14" stroke-miterlimit="10"/><path d="M52.861 24.542c0-.86-.135-1.685-.275-2.483H41.28v4.686h6.344c-.281 1.517-1 2.803-2.287 3.669v3.056h3.927c2.287-2.112 3.602-5.236 3.602-8.928h-.006z" fill="#4284F4"/><path d="M41.242 36.403c3.264 0 6.012-1.073 8.017-2.927l-3.927-3.057c-1.079.73-2.467 1.158-4.096 1.158-3.146 0-5.82-2.13-6.776-5h-4.034v3.14c1.989 3.967 6.08 6.686 10.81 6.686h.006z" fill="#34A853"/><path d="M34.465 26.576a7.34 7.34 0 01-.376-2.31c0-.803.135-1.578.376-2.308v-3.141h-4.034a12.148 12.148 0 00-1.287 5.45c0 1.96.467 3.81 1.287 5.45l4.034-3.141z" fill="#FBBC04"/><path d="M41.242 16.957c1.775 0 3.371.613 4.63 1.815l3.466-3.478c-2.095-1.961-4.832-3.163-8.096-3.163-4.725 0-8.821 2.719-10.81 6.686l4.034 3.14c.955-2.87 3.624-5 6.776-5z" fill="#EA4335"/></svg>