<svg width="345" height="144" fill="none" xmlns="http://www.w3.org/2000/svg"><rect y=".354" width="345" height="143.646" rx="20" fill="#fff"/><path d="M35.135 85.769V73.71h1.596v10.635h5.938v1.423h-7.534zm8.702-4.368c0-1.617.45-2.816 1.349-3.594.751-.647 1.667-.97 2.747-.97 1.2 0 2.182.394 2.944 1.184.763.784 1.144 1.87 1.144 3.257 0 1.124-.17 2.01-.51 2.656a3.554 3.554 0 01-1.473 1.497 4.263 4.263 0 01-2.105.535c-1.223 0-2.212-.392-2.97-1.176-.75-.784-1.126-1.914-1.126-3.389zm1.522 0c0 1.119.244 1.958.732 2.517a2.35 2.35 0 001.842.83c.735 0 1.346-.279 1.834-.838.488-.56.732-1.412.732-2.558 0-1.08-.247-1.897-.74-2.451-.488-.56-1.097-.84-1.826-.84-.74 0-1.354.278-1.842.832-.488.553-.732 1.39-.732 2.508zm7.854 0c0-1.617.45-2.816 1.35-3.594.75-.647 1.666-.97 2.746-.97 1.201 0 2.183.394 2.945 1.184.762.784 1.143 1.87 1.143 3.257 0 1.124-.17 2.01-.51 2.656a3.554 3.554 0 01-1.472 1.497 4.263 4.263 0 01-2.106.535c-1.222 0-2.212-.392-2.969-1.176-.751-.784-1.127-1.914-1.127-3.389zm1.522 0c0 1.119.244 1.958.732 2.517a2.35 2.35 0 001.842.83c.735 0 1.346-.279 1.834-.838.488-.56.732-1.412.732-2.558 0-1.08-.246-1.897-.74-2.451-.488-.56-1.096-.84-1.826-.84-.74 0-1.354.278-1.842.832-.488.553-.732 1.39-.732 2.508zm8.414 4.368V73.71h1.48v6.876l3.504-3.553h1.916l-3.339 3.24 3.677 5.495H68.56l-2.887-4.467-1.045 1.004v3.463h-1.48zm8.422-10.356v-1.702h1.48v1.703h-1.48zm0 10.356v-8.735h1.48v8.735h-1.48zm3.742 0v-8.735h1.333v1.242c.641-.96 1.568-1.44 2.78-1.44.526 0 1.009.096 1.447.288.444.187.776.433.996.74.219.307.373.672.46 1.094.055.275.082.754.082 1.44v5.37h-1.48v-5.313c0-.603-.058-1.052-.173-1.349a1.396 1.396 0 00-.617-.715 1.905 1.905 0 00-1.028-.272c-.63 0-1.176.2-1.636.6-.456.401-.683 1.16-.683 2.28v4.77h-1.48zm9.105.723l1.44.214c.06.444.227.768.501.97.368.275.87.412 1.506.412.685 0 1.214-.137 1.587-.411.373-.274.625-.658.757-1.152.076-.301.112-.935.106-1.9-.647.763-1.453 1.144-2.418 1.144-1.2 0-2.13-.434-2.788-1.3-.658-.866-.987-1.905-.987-3.117 0-.834.151-1.601.453-2.303.301-.708.737-1.253 1.307-1.637.576-.384 1.25-.576 2.024-.576 1.03 0 1.88.417 2.55 1.25v-1.052h1.365v7.55c0 1.36-.14 2.322-.42 2.887-.274.57-.713 1.02-1.316 1.349-.597.329-1.335.494-2.212.494-1.042 0-1.884-.236-2.525-.708-.642-.466-.952-1.17-.93-2.114zm1.226-5.247c0 1.146.227 1.982.682 2.508.456.527 1.026.79 1.711.79.68 0 1.25-.26 1.711-.781.46-.527.69-1.35.69-2.468 0-1.069-.238-1.875-.715-2.418-.471-.543-1.041-.814-1.71-.814-.658 0-1.218.269-1.678.806-.46.532-.691 1.324-.691 2.377zm13.464 4.524v-7.584H97.8v-1.151h1.308v-.93c0-.586.052-1.022.156-1.307a1.88 1.88 0 01.749-.93c.361-.241.866-.362 1.513-.362.417 0 .877.05 1.382.148l-.222 1.292a4.964 4.964 0 00-.872-.083c-.45 0-.768.096-.954.288-.187.192-.28.551-.28 1.078v.806h1.703v1.151h-1.703v7.584h-1.472zm3.783-4.368c0-1.617.45-2.816 1.349-3.594.751-.647 1.667-.97 2.747-.97 1.201 0 2.183.394 2.945 1.184.762.784 1.143 1.87 1.143 3.257 0 1.124-.17 2.01-.51 2.656a3.551 3.551 0 01-1.472 1.497 4.267 4.267 0 01-2.106.535c-1.223 0-2.212-.392-2.969-1.176-.751-.784-1.127-1.914-1.127-3.389zm1.522 0c0 1.119.244 1.958.732 2.517a2.35 2.35 0 001.842.83c.735 0 1.346-.279 1.834-.838.488-.56.732-1.412.732-2.558 0-1.08-.246-1.897-.74-2.451-.488-.56-1.096-.84-1.826-.84-.74 0-1.354.278-1.842.832-.488.553-.732 1.39-.732 2.508zm8.389 4.368v-8.735h1.333v1.324c.34-.62.652-1.028.937-1.226.291-.197.609-.296.954-.296.499 0 1.006.16 1.522.477l-.51 1.374a2.117 2.117 0 00-1.086-.32 1.4 1.4 0 00-.872.295c-.257.192-.441.46-.551.806a5.783 5.783 0 00-.246 1.727v4.574h-1.481zm16.014-1.078c-.548.466-1.078.795-1.587.987a4.548 4.548 0 01-1.629.288c-.96 0-1.697-.233-2.212-.7-.516-.47-.774-1.071-.774-1.8 0-.428.096-.817.288-1.168a2.47 2.47 0 01.765-.856 3.66 3.66 0 011.069-.485c.291-.077.73-.15 1.316-.222 1.196-.143 2.076-.313 2.641-.51.005-.203.008-.332.008-.387 0-.603-.14-1.028-.42-1.274-.378-.335-.94-.502-1.686-.502-.696 0-1.212.123-1.546.37-.329.241-.573.672-.732 1.291l-1.448-.197c.132-.62.349-1.119.65-1.497.302-.384.738-.677 1.308-.88.57-.208 1.231-.313 1.982-.313.746 0 1.352.088 1.818.264.466.175.809.397 1.028.666.219.263.373.597.46 1.003.05.252.074.708.074 1.365v1.975c0 1.376.031 2.248.091 2.615.066.362.192.71.378 1.045h-1.546a3.155 3.155 0 01-.296-1.078zm-.123-3.306c-.538.219-1.344.405-2.419.559-.608.088-1.039.186-1.291.296a1.28 1.28 0 00-.789 1.184c0 .395.148.724.444.987.301.264.74.395 1.316.395.57 0 1.077-.123 1.521-.37.444-.252.771-.595.979-1.028.159-.334.239-.828.239-1.48v-.543zm8.455 4.384V73.71h1.48v12.058h-1.48zm3.791-10.356v-1.702h1.481v1.703h-1.481zm0 10.356v-8.735h1.481v8.735h-1.481zm9.442-3.2l1.456.19c-.159 1.003-.567 1.79-1.225 2.36-.653.565-1.456.847-2.41.847-1.195 0-2.158-.39-2.887-1.168-.724-.784-1.086-1.905-1.086-3.364 0-.943.157-1.768.469-2.476.313-.707.787-1.236 1.423-1.587a4.233 4.233 0 012.089-.535c.949 0 1.725.242 2.328.724.603.477.989 1.157 1.159 2.04l-1.439.222c-.137-.587-.381-1.028-.732-1.324-.345-.296-.765-.444-1.258-.444-.746 0-1.352.268-1.818.806-.466.532-.699 1.376-.699 2.533 0 1.173.225 2.026.674 2.558.45.532 1.037.798 1.76.798.582 0 1.067-.178 1.456-.535.39-.356.636-.905.74-1.645zm8.702.387l1.53.189c-.241.894-.688 1.587-1.34 2.08-.653.494-1.486.741-2.501.741-1.277 0-2.292-.392-3.043-1.176-.746-.79-1.119-1.895-1.119-3.315 0-1.47.379-2.61 1.135-3.421.757-.812 1.739-1.218 2.945-1.218 1.168 0 2.122.398 2.862 1.193.74.795 1.111 1.914 1.111 3.356 0 .087-.003.219-.009.394h-6.514c.055.96.326 1.695.814 2.205.488.51 1.097.765 1.826.765.543 0 1.007-.143 1.39-.428.384-.285.689-.74.913-1.365zm-4.861-2.394h4.878c-.066-.734-.252-1.286-.56-1.653-.471-.57-1.082-.855-1.834-.855-.68 0-1.253.227-1.719.682-.46.455-.715 1.064-.765 1.826zm8.258 5.207v-8.735h1.333v1.242c.641-.96 1.568-1.44 2.78-1.44.526 0 1.009.096 1.447.288.444.187.776.433.995.74.22.307.373.672.461 1.094.055.275.082.754.082 1.44v5.37h-1.48v-5.313c0-.603-.058-1.052-.173-1.349a1.397 1.397 0 00-.617-.715 1.902 1.902 0 00-1.028-.272c-.631 0-1.176.2-1.637.6-.455.401-.682 1.16-.682 2.28v4.77h-1.481zm8.784-2.608l1.464-.23c.083.587.31 1.036.683 1.349.378.312.905.469 1.579.469.68 0 1.185-.137 1.514-.412.329-.28.493-.606.493-.978 0-.335-.145-.598-.436-.79-.203-.132-.707-.299-1.513-.502-1.086-.274-1.84-.51-2.262-.707a2.25 2.25 0 01-.954-.83 2.242 2.242 0 01-.321-1.177c0-.39.088-.748.263-1.077a2.42 2.42 0 01.732-.831c.231-.17.543-.313.938-.428.4-.12.828-.18 1.283-.18.685 0 1.286.098 1.801.295.521.198.905.467 1.152.806.246.335.416.785.51 1.35l-1.448.197c-.066-.45-.258-.8-.576-1.053-.312-.252-.756-.378-1.332-.378-.68 0-1.165.112-1.456.337-.291.225-.436.488-.436.79a.82.82 0 00.181.518c.121.159.31.29.568.394.148.055.584.181 1.307.379 1.048.28 1.777.51 2.188.69.417.176.743.434.979.774s.354.762.354 1.266c0 .494-.146.96-.436 1.399-.285.433-.699.77-1.242 1.011-.543.236-1.157.354-1.843.354-1.135 0-2.001-.236-2.599-.707-.592-.472-.97-1.171-1.135-2.098zm14.994-.205l1.53.189c-.241.894-.688 1.587-1.341 2.08-.652.494-1.486.741-2.5.741-1.278 0-2.292-.392-3.043-1.176-.746-.79-1.119-1.895-1.119-3.315 0-1.47.379-2.61 1.135-3.421.757-.812 1.738-1.218 2.945-1.218 1.168 0 2.122.398 2.862 1.193.74.795 1.11 1.914 1.11 3.356 0 .087-.002.219-.008.394h-6.514c.055.96.326 1.695.814 2.205.488.51 1.097.765 1.826.765.543 0 1.006-.143 1.39-.428.384-.285.688-.74.913-1.365zm-4.861-2.394h4.878c-.066-.734-.253-1.286-.56-1.653-.471-.57-1.083-.855-1.834-.855-.68 0-1.253.227-1.719.682-.46.455-.715 1.064-.765 1.826zm13.925 5.207v-1.103c-.554.867-1.368 1.3-2.443 1.3a3.442 3.442 0 01-1.924-.576c-.582-.384-1.034-.918-1.358-1.604-.318-.69-.477-1.483-.477-2.377 0-.871.146-1.661.436-2.368.291-.713.727-1.259 1.308-1.637a3.496 3.496 0 011.949-.568c.527 0 .996.113 1.407.338.411.219.746.507 1.003.863v-4.326h1.473v12.058h-1.374zm-4.68-4.36c0 1.119.236 1.955.707 2.509.472.554 1.028.83 1.67.83.647 0 1.195-.263 1.645-.789.455-.532.683-1.34.683-2.426 0-1.196-.231-2.073-.691-2.632-.461-.56-1.028-.84-1.703-.84-.658 0-1.209.27-1.653.807-.439.537-.658 1.384-.658 2.541zm13.078 7.707V77.034h1.348v1.135c.318-.444.678-.776 1.078-.995.4-.225.885-.338 1.456-.338.745 0 1.403.192 1.974.576.57.384 1 .927 1.291 1.629.291.696.436 1.46.436 2.294 0 .894-.162 1.7-.485 2.419-.318.712-.785 1.26-1.399 1.644a3.586 3.586 0 01-1.924.568c-.494 0-.938-.104-1.333-.313a3.039 3.039 0 01-.962-.79v4.253h-1.48zm1.34-7.665c0 1.124.228 1.954.683 2.492.455.537 1.006.806 1.653.806.658 0 1.22-.277 1.686-.831.472-.56.707-1.423.707-2.59 0-1.114-.23-1.947-.69-2.501-.456-.554-1.001-.83-1.637-.83-.631 0-1.19.295-1.678.887-.483.587-.724 1.442-.724 2.567zm8.003 4.318V73.71h1.48v12.058h-1.48zm9.508 0v-1.284c-.68.987-1.604 1.481-2.772 1.481-.515 0-.998-.099-1.448-.296-.444-.198-.775-.444-.995-.74a2.866 2.866 0 01-.452-1.103c-.06-.29-.091-.75-.091-1.381v-5.412h1.481v4.844c0 .773.03 1.294.09 1.563.094.39.291.696.593.921.301.22.674.33 1.118.33.444 0 .861-.113 1.25-.338.39-.23.664-.54.823-.93.164-.394.247-.965.247-1.71v-4.68h1.48v8.735h-1.324zm3.652 0v-8.735h1.324v1.225c.274-.427.639-.77 1.094-1.028a3.047 3.047 0 011.554-.395c.647 0 1.176.135 1.588.403.416.27.71.645.88 1.127.691-1.02 1.59-1.53 2.697-1.53.867 0 1.533.242 1.999.724.466.477.699 1.215.699 2.213v5.996h-1.472v-5.503c0-.592-.049-1.017-.148-1.275a1.215 1.215 0 00-.518-.633 1.632 1.632 0 00-.889-.239c-.614 0-1.124.206-1.529.617-.406.406-.609 1.059-.609 1.958v5.075h-1.48v-5.676c0-.658-.121-1.151-.362-1.48-.242-.329-.636-.493-1.185-.493-.416 0-.803.11-1.159.328-.351.22-.606.54-.765.963-.159.422-.239 1.03-.239 1.826v4.532h-1.48zm15.397 0h-1.374V73.71h1.48v4.302c.626-.785 1.423-1.177 2.394-1.177.537 0 1.044.11 1.521.33a3.02 3.02 0 011.185.912c.312.39.556.861.732 1.415.175.554.263 1.146.263 1.777 0 1.496-.37 2.654-1.11 3.47-.741.818-1.629 1.226-2.665 1.226-1.031 0-1.84-.43-2.426-1.291v1.094zm-.017-4.434c0 1.048.143 1.804.428 2.27.466.763 1.096 1.144 1.891 1.144.648 0 1.207-.28 1.678-.84.472-.564.708-1.403.708-2.516 0-1.14-.228-1.982-.683-2.525-.45-.543-.995-.814-1.637-.814-.647 0-1.206.282-1.678.847-.471.56-.707 1.37-.707 2.434zm14.007 1.62l1.53.19c-.241.894-.688 1.587-1.341 2.08-.652.494-1.486.741-2.5.741-1.278 0-2.292-.392-3.043-1.176-.746-.79-1.119-1.895-1.119-3.315 0-1.47.378-2.61 1.135-3.421.757-.812 1.738-1.218 2.945-1.218 1.167 0 2.122.398 2.862 1.193.74.795 1.11 1.914 1.11 3.356 0 .087-.003.219-.008.394h-6.514c.055.96.326 1.695.814 2.205.488.51 1.097.765 1.826.765.543 0 1.006-.143 1.39-.428.384-.285.688-.74.913-1.365zm-4.861-2.393h4.877c-.065-.734-.252-1.286-.559-1.653-.471-.57-1.083-.855-1.834-.855-.68 0-1.253.227-1.719.682-.461.455-.716 1.064-.765 1.826zm8.241 5.207v-8.735h1.333v1.324c.34-.62.652-1.028.937-1.226.291-.197.609-.296.955-.296.498 0 1.006.16 1.521.477l-.51 1.374a2.117 2.117 0 00-1.086-.32c-.323 0-.614.098-.871.295-.258.192-.442.46-.551.806a5.75 5.75 0 00-.247 1.727v4.574h-1.481zm10.323-10.356v-1.702h1.48v1.703h-1.48zm0 10.356v-8.735h1.48v8.735h-1.48zm3.742 0v-8.735h1.332v1.242c.642-.96 1.568-1.44 2.78-1.44.527 0 1.009.096 1.448.288.444.187.776.433.995.74.219.307.373.672.461 1.094.054.275.082.754.082 1.44v5.37h-1.481v-5.313c0-.603-.057-1.052-.172-1.349a1.397 1.397 0 00-.617-.715 1.905 1.905 0 00-1.028-.272c-.631 0-1.176.2-1.637.6-.455.401-.683 1.16-.683 2.28v4.77h-1.48zm-237.854 19V92.711h4.153c.938 0 1.654.058 2.147.173.691.159 1.28.447 1.769.863.636.538 1.11 1.226 1.422 2.065.318.833.477 1.787.477 2.862 0 .916-.106 1.727-.32 2.435-.214.707-.488 1.294-.823 1.76-.334.46-.702.825-1.102 1.094-.395.263-.875.463-1.44.6-.559.137-1.203.206-1.932.206H35.2zm1.596-1.423h2.574c.795 0 1.417-.074 1.867-.222.455-.148.817-.357 1.086-.625.378-.379.671-.886.88-1.522.213-.642.32-1.418.32-2.328 0-1.26-.208-2.229-.625-2.903-.41-.68-.913-1.135-1.505-1.365-.427-.165-1.116-.247-2.064-.247h-2.533v9.212zm16.367-1.39l1.53.189c-.242.894-.688 1.587-1.34 2.081-.653.493-1.487.74-2.501.74-1.278 0-2.292-.392-3.043-1.176-.746-.79-1.119-1.895-1.119-3.315 0-1.47.378-2.61 1.135-3.421.757-.812 1.738-1.218 2.944-1.218 1.168 0 2.122.398 2.863 1.193.74.795 1.11 1.914 1.11 3.356 0 .087-.003.219-.008.395H48.22c.055.959.326 1.694.814 2.204.488.51 1.097.765 1.826.765.543 0 1.006-.143 1.39-.428.384-.285.688-.74.913-1.365zm-4.86-2.394h4.876c-.065-.734-.252-1.286-.559-1.653-.471-.57-1.083-.855-1.834-.855-.68 0-1.253.227-1.719.682-.46.455-.716 1.064-.765 1.826zm11.49 3.882l.213 1.308c-.417.088-.79.132-1.119.132-.537 0-.954-.085-1.25-.255a1.432 1.432 0 01-.625-.666c-.12-.28-.18-.864-.18-1.752v-5.026h-1.087v-1.151h1.086V93.87l1.472-.889v3.052h1.49v1.151h-1.49v5.108c0 .422.025.694.075.814.054.121.14.217.254.288.121.071.291.107.51.107.165 0 .382-.019.65-.058zm1.439 1.325v-8.735h1.332v1.324c.34-.62.652-1.028.938-1.226.29-.197.608-.296.954-.296.499 0 1.006.16 1.521.477l-.51 1.374a2.116 2.116 0 00-1.085-.32c-.324 0-.614.098-.872.295a1.56 1.56 0 00-.551.806 5.768 5.768 0 00-.247 1.728v4.573h-1.48zm5.074-4.368c0-1.617.45-2.816 1.35-3.594.75-.647 1.666-.97 2.746-.97 1.201 0 2.182.394 2.945 1.184.762.784 1.143 1.87 1.143 3.257 0 1.124-.17 2.009-.51 2.656a3.55 3.55 0 01-1.472 1.497 4.257 4.257 0 01-2.106.535c-1.223 0-2.212-.392-2.969-1.176-.751-.784-1.127-1.914-1.127-3.389zm1.522 0c0 1.119.244 1.958.732 2.517a2.351 2.351 0 001.842.831c.735 0 1.346-.28 1.834-.839.488-.56.732-1.412.732-2.558 0-1.08-.246-1.897-.74-2.451-.488-.56-1.097-.84-1.826-.84-.74 0-1.354.278-1.842.832-.488.553-.732 1.39-.732 2.508zm8.414-5.987V92.71h1.48v1.703h-1.48zm0 10.355v-8.735h1.48v8.735h-1.48zm6.975-1.325l.213 1.308c-.416.088-.79.132-1.118.132-.538 0-.954-.085-1.25-.255a1.432 1.432 0 01-.626-.666c-.12-.28-.18-.864-.18-1.752v-5.026H79.17v-1.151h1.085V93.87l1.473-.889v3.052h1.489v1.151h-1.49v5.108c0 .422.026.694.075.814.055.121.14.217.255.288.12.071.29.107.51.107.164 0 .38-.019.65-.058zm4.227-1.645a17.811 17.811 0 01-.008-.444c0-.581.082-1.083.247-1.505.12-.318.315-.639.584-.962.197-.236.55-.579 1.06-1.028.516-.455.85-.817 1.004-1.086.154-.269.23-.562.23-.88 0-.576-.225-1.08-.674-1.513-.45-.44-1-.658-1.653-.658-.631 0-1.157.197-1.58.592-.422.395-.699 1.011-.83 1.85l-1.522-.18c.137-1.125.543-1.986 1.217-2.583.68-.598 1.577-.897 2.69-.897 1.179 0 2.12.321 2.821.963.702.641 1.053 1.417 1.053 2.327 0 .527-.124 1.012-.37 1.456-.247.444-.73.984-1.448 1.62-.482.428-.798.743-.946.946a2.107 2.107 0 00-.329.699c-.071.264-.112.691-.123 1.283h-1.423zm-.09 2.97v-1.687h1.686v1.687h-1.686zm20.175-4.228l1.596.403c-.335 1.31-.938 2.311-1.81 3.002-.866.685-1.927 1.028-3.183 1.028-1.299 0-2.358-.263-3.175-.789-.811-.532-1.43-1.3-1.858-2.303a8.252 8.252 0 01-.634-3.233c0-1.255.239-2.35.716-3.281.482-.938 1.165-1.648 2.048-2.13a5.979 5.979 0 012.928-.733c1.206 0 2.221.307 3.043.922.823.614 1.396 1.477 1.719 2.59l-1.571.37c-.28-.877-.685-1.516-1.217-1.916-.532-.4-1.201-.6-2.007-.6-.927 0-1.703.222-2.328.666a3.526 3.526 0 00-1.307 1.793 7.145 7.145 0 00-.379 2.311c0 1.025.148 1.922.444 2.69.302.762.768 1.332 1.399 1.71.63.379 1.313.568 2.048.568.893 0 1.65-.258 2.27-.773.619-.516 1.039-1.281 1.258-2.295zm9.08 3.15c-.548.466-1.077.795-1.587.987a4.542 4.542 0 01-1.629.288c-.959 0-1.697-.233-2.212-.699-.516-.472-.773-1.072-.773-1.801 0-.428.096-.817.288-1.168a2.45 2.45 0 01.765-.856 3.653 3.653 0 011.069-.485c.29-.077.729-.15 1.316-.222 1.195-.143 2.075-.313 2.64-.51.005-.203.008-.332.008-.387 0-.603-.14-1.028-.419-1.274-.379-.335-.941-.502-1.686-.502-.697 0-1.212.123-1.547.37-.329.241-.573.672-.732 1.291l-1.447-.197c.131-.62.348-1.119.65-1.497.301-.384.737-.677 1.307-.88.571-.208 1.231-.313 1.982-.313.746 0 1.352.088 1.818.264.466.175.809.397 1.028.666.22.263.373.597.461 1.003.049.252.074.708.074 1.365v1.975c0 1.376.03 2.248.09 2.615.066.362.192.71.379 1.045h-1.547a3.165 3.165 0 01-.296-1.078zm-.123-3.306c-.537.219-1.343.405-2.418.559-.609.088-1.039.186-1.291.296a1.28 1.28 0 00-.79 1.184c0 .395.148.724.444.987.302.264.74.395 1.316.395.57 0 1.078-.123 1.522-.37.444-.252.77-.595.978-1.028.159-.334.239-.828.239-1.48v-.543zm3.767 4.384V92.711h1.48v12.058h-1.48zm3.75 0V92.711h1.481v12.058h-1.481zm8.612 0V92.711h2.401l2.854 8.537c.264.795.456 1.39.576 1.785.137-.439.351-1.083.642-1.933l2.887-8.39h2.146v12.059h-1.538V94.677l-3.503 10.092h-1.44l-3.487-10.265v10.265h-1.538zm13.875 0v-8.735h1.333v1.324c.34-.62.652-1.028.937-1.226.291-.197.609-.296.954-.296.499 0 1.006.16 1.522.477l-.51 1.374a2.117 2.117 0 00-1.086-.32 1.4 1.4 0 00-.872.295c-.257.192-.441.46-.551.806a5.784 5.784 0 00-.246 1.728v4.573h-1.481zm5.108 0v-1.687h1.686v1.687h-1.686zm9.17 0V92.711h5.347c1.074 0 1.891.11 2.451.329.559.214 1.006.595 1.34 1.143.335.548.502 1.154.502 1.818 0 .855-.277 1.576-.831 2.163-.554.587-1.409.96-2.566 1.119.422.203.743.403.962.6.466.428.908.962 1.325 1.604l2.097 3.282h-2.007l-1.596-2.509c-.466-.724-.849-1.278-1.151-1.661-.302-.384-.573-.653-.814-.806a2.346 2.346 0 00-.724-.321c-.181-.039-.477-.058-.888-.058h-1.851v5.355h-1.596zm1.596-6.737h3.43c.729 0 1.299-.074 1.711-.222.411-.153.723-.394.937-.723a1.98 1.98 0 00.321-1.086c0-.57-.208-1.04-.625-1.407-.411-.367-1.064-.55-1.958-.55h-3.816v3.988zm9.812 2.369c0-1.617.45-2.816 1.349-3.594.751-.647 1.667-.97 2.747-.97 1.201 0 2.183.394 2.945 1.184.762.784 1.143 1.87 1.143 3.257 0 1.124-.17 2.009-.51 2.656a3.547 3.547 0 01-1.472 1.497 4.26 4.26 0 01-2.106.535c-1.223 0-2.212-.392-2.969-1.176-.751-.784-1.127-1.914-1.127-3.389zm1.522 0c0 1.119.244 1.958.732 2.517a2.35 2.35 0 001.842.831c.735 0 1.346-.28 1.834-.839.488-.56.732-1.412.732-2.558 0-1.08-.246-1.897-.74-2.451-.488-.56-1.096-.84-1.826-.84-.74 0-1.354.278-1.842.832-.488.553-.732 1.39-.732 2.508zm7.855 0c0-1.617.449-2.816 1.348-3.594.752-.647 1.667-.97 2.748-.97 1.2 0 2.182.394 2.944 1.184.762.784 1.143 1.87 1.143 3.257 0 1.124-.17 2.009-.51 2.656a3.547 3.547 0 01-1.472 1.497 4.254 4.254 0 01-2.105.535c-1.223 0-2.213-.392-2.97-1.176-.751-.784-1.126-1.914-1.126-3.389zm1.521 0c0 1.119.244 1.958.732 2.517a2.351 2.351 0 001.843.831c.734 0 1.346-.28 1.834-.839.488-.56.732-1.412.732-2.558 0-1.08-.247-1.897-.741-2.451-.488-.56-1.096-.84-1.825-.84-.741 0-1.355.278-1.843.832-.488.553-.732 1.39-.732 2.508zm11.638 3.043l.214 1.308a5.472 5.472 0 01-1.118.132c-.538 0-.954-.085-1.251-.255a1.434 1.434 0 01-.625-.666c-.12-.28-.181-.864-.181-1.752v-5.026h-1.085v-1.151h1.085V93.87l1.473-.889v3.052h1.488v1.151h-1.488v5.108c0 .422.024.694.074.814a.635.635 0 00.255.288c.12.071.29.107.51.107.164 0 .381-.019.649-.058zm7.436-1.488l1.529.189c-.241.894-.688 1.587-1.34 2.081-.653.493-1.486.74-2.501.74-1.277 0-2.292-.392-3.043-1.176-.746-.79-1.118-1.895-1.118-3.315 0-1.47.378-2.61 1.135-3.421.756-.812 1.738-1.218 2.944-1.218 1.168 0 2.122.398 2.862 1.193.741.795 1.111 1.914 1.111 3.356 0 .087-.003.219-.008.395h-6.515c.055.959.327 1.694.815 2.204.488.51 1.096.765 1.826.765.542 0 1.006-.143 1.39-.428.383-.285.688-.74.913-1.365zm-4.861-2.394h4.877c-.066-.734-.252-1.286-.559-1.653-.472-.57-1.083-.855-1.834-.855-.68 0-1.253.227-1.719.682-.461.455-.716 1.064-.765 1.826zm8.241 5.207v-8.735h1.332v1.324c.34-.62.653-1.028.938-1.226.291-.197.609-.296.954-.296.499 0 1.006.16 1.522.477l-.51 1.374a2.117 2.117 0 00-1.086-.32 1.4 1.4 0 00-.872.295c-.257.192-.441.46-.551.806a5.784 5.784 0 00-.247 1.728v4.573h-1.48zm10.503 0V92.711h4.548c.801 0 1.412.038 1.835.115.592.099 1.088.288 1.488.568.401.274.721.66.963 1.16a3.67 3.67 0 01.37 1.644c0 1.026-.327 1.895-.979 2.608-.653.707-1.831 1.06-3.537 1.06h-3.092v4.903h-1.596zm1.596-6.325h3.117c1.031 0 1.763-.192 2.196-.576.433-.384.65-.924.65-1.62 0-.505-.129-.935-.387-1.292a1.764 1.764 0 00-1.003-.715c-.269-.072-.765-.107-1.489-.107h-3.084v4.31zm9.417 6.325V92.711h1.481v12.058h-1.481zm9.508 0v-1.284c-.68.987-1.604 1.481-2.772 1.481-.515 0-.998-.099-1.447-.296-.444-.198-.776-.444-.995-.74a2.868 2.868 0 01-.453-1.103c-.06-.29-.09-.751-.09-1.381v-5.412h1.48v4.844c0 .773.03 1.294.091 1.563.093.389.29.696.592.921.301.219.674.329 1.118.329a2.46 2.46 0 001.251-.337c.389-.23.663-.54.822-.93.165-.394.247-.965.247-1.71v-4.68h1.48v8.735h-1.324zm3.652 0v-8.735h1.324v1.225c.274-.427.639-.77 1.094-1.028a3.047 3.047 0 011.554-.395c.647 0 1.177.135 1.588.403.417.27.71.645.88 1.127.691-1.02 1.59-1.53 2.698-1.53.866 0 1.532.242 1.998.724.466.477.699 1.215.699 2.213v5.996h-1.472v-5.503c0-.592-.049-1.017-.148-1.275a1.215 1.215 0 00-.518-.633 1.629 1.629 0 00-.888-.239c-.614 0-1.124.206-1.53.617-.406.406-.609 1.059-.609 1.958v5.075h-1.48v-5.676c0-.658-.121-1.151-.362-1.48-.241-.329-.636-.493-1.185-.493-.416 0-.803.11-1.159.328-.351.22-.606.54-.765.963-.159.422-.239 1.03-.239 1.826v4.532h-1.48zm15.397 0h-1.374V92.711h1.481v4.302c.625-.785 1.423-1.177 2.393-1.177.537 0 1.045.11 1.522.33.482.213.877.517 1.184.912.313.39.557.861.732 1.415.176.554.263 1.146.263 1.777 0 1.496-.37 2.653-1.11 3.47-.74.817-1.629 1.226-2.665 1.226-1.031 0-1.84-.43-2.426-1.291v1.094zm-.017-4.434c0 1.048.143 1.804.428 2.27.466.763 1.097 1.144 1.892 1.144.647 0 1.206-.28 1.678-.839.471-.565.707-1.404.707-2.517 0-1.14-.228-1.982-.683-2.525-.449-.543-.995-.814-1.636-.814-.648 0-1.207.282-1.678.847-.472.56-.708 1.37-.708 2.434zm8.036-5.921V92.71h1.48v1.703h-1.48zm0 10.355v-8.735h1.48v8.735h-1.48zm3.742 0v-8.735h1.333v1.242c.641-.96 1.568-1.44 2.78-1.44.526 0 1.009.096 1.447.288.444.187.776.433.995.74.22.307.373.672.461 1.094.055.275.082.754.082 1.44v5.371h-1.48v-5.314c0-.603-.058-1.052-.173-1.349a1.397 1.397 0 00-.617-.715 1.902 1.902 0 00-1.028-.272c-.63 0-1.176.2-1.637.6-.455.401-.682 1.16-.682 2.28v4.77h-1.481zm9.105.723l1.44.214c.06.444.227.768.501.971.368.274.869.411 1.505.411.686 0 1.215-.137 1.588-.411.373-.274.625-.658.756-1.152.077-.301.113-.935.107-1.9-.647.762-1.453 1.144-2.418 1.144-1.201 0-2.13-.434-2.788-1.3-.658-.866-.987-1.905-.987-3.117 0-.834.151-1.601.452-2.303.302-.708.738-1.253 1.308-1.637.576-.384 1.25-.576 2.023-.576 1.031 0 1.881.417 2.55 1.25v-1.052h1.366v7.55c0 1.36-.14 2.322-.42 2.887-.274.57-.713 1.02-1.316 1.349-.598.329-1.335.493-2.212.493-1.042 0-1.884-.235-2.525-.707-.642-.466-.952-1.171-.93-2.114zm1.226-5.247c0 1.146.227 1.982.682 2.508.455.527 1.026.79 1.711.79.68 0 1.25-.26 1.711-.781.46-.527.691-1.349.691-2.468 0-1.069-.239-1.875-.716-2.418-.471-.543-1.042-.814-1.711-.814-.658 0-1.217.269-1.677.806-.461.532-.691 1.324-.691 2.377zM34.461 119.401c0-1.617.45-2.815 1.349-3.594.75-.647 1.666-.971 2.747-.971 1.2 0 2.182.395 2.944 1.185.762.784 1.143 1.87 1.143 3.257 0 1.124-.17 2.009-.51 2.656a3.55 3.55 0 01-1.472 1.497 4.258 4.258 0 01-2.105.535c-1.223 0-2.213-.392-2.97-1.176-.75-.784-1.126-1.914-1.126-3.389zm1.521 0c0 1.119.244 1.958.732 2.517a2.35 2.35 0 001.843.831c.734 0 1.346-.28 1.834-.839.488-.56.732-1.412.732-2.558 0-1.08-.247-1.897-.74-2.451-.489-.559-1.097-.839-1.826-.839a2.35 2.35 0 00-1.843.831c-.488.553-.732 1.39-.732 2.508zm8.76 4.368v-7.584h-1.308v-1.151h1.308v-.93c0-.586.052-1.022.156-1.307a1.88 1.88 0 01.748-.93c.362-.241.867-.362 1.514-.362.417 0 .877.05 1.382.148l-.223 1.292a4.956 4.956 0 00-.871-.083c-.45 0-.768.096-.954.288-.187.192-.28.551-.28 1.078v.806h1.703v1.151h-1.703v7.584h-1.472zm9.212 0v-12.058h4.153c.938 0 1.653.058 2.147.173.69.159 1.28.447 1.768.863.636.538 1.11 1.226 1.423 2.065.318.833.477 1.787.477 2.862 0 .916-.107 1.727-.32 2.435-.215.707-.489 1.294-.823 1.76-.335.46-.702.825-1.102 1.094-.395.263-.875.463-1.44.6-.559.137-1.203.206-1.933.206h-4.35zm1.595-1.423h2.575c.795 0 1.417-.074 1.866-.222.456-.148.817-.357 1.086-.625.379-.379.672-.886.88-1.522.214-.642.321-1.418.321-2.328 0-1.261-.208-2.229-.625-2.903-.411-.68-.913-1.135-1.505-1.365-.428-.165-1.116-.247-2.065-.247H55.55v9.212zm16.367-1.39l1.53.189c-.24.894-.688 1.587-1.34 2.081-.653.493-1.486.74-2.5.74-1.278 0-2.293-.392-3.044-1.176-.745-.79-1.118-1.895-1.118-3.315 0-1.469.378-2.61 1.135-3.421.756-.812 1.738-1.218 2.944-1.218 1.168 0 2.122.398 2.862 1.193.74.795 1.11 1.914 1.11 3.356 0 .087-.002.219-.008.395h-6.514c.055.959.327 1.694.815 2.204.488.51 1.096.765 1.826.765.542 0 1.006-.143 1.39-.428.383-.285.688-.74.912-1.365zm-4.86-2.394h4.877c-.066-.735-.252-1.286-.56-1.653-.47-.57-1.082-.855-1.833-.855-.68 0-1.253.227-1.72.682-.46.455-.715 1.064-.764 1.826zm11.49 3.882l.214 1.308c-.417.088-.79.132-1.119.132-.537 0-.954-.085-1.25-.255a1.432 1.432 0 01-.625-.666c-.12-.28-.181-.864-.181-1.752v-5.026h-1.086v-1.151h1.086v-2.163l1.472-.889v3.052h1.489v1.151h-1.489v5.108c0 .422.025.694.074.814.055.121.14.217.255.288.12.071.29.107.51.107.165 0 .381-.019.65-.058zm1.44 1.325v-8.735h1.331v1.324c.34-.62.653-1.028.938-1.226.29-.197.609-.296.954-.296.5 0 1.006.159 1.522.477l-.51 1.374c-.362-.214-.724-.321-1.086-.321a1.4 1.4 0 00-.872.296 1.561 1.561 0 00-.55.806 5.77 5.77 0 00-.247 1.728v4.573h-1.48zm5.074-4.368c0-1.617.45-2.815 1.349-3.594.75-.647 1.667-.971 2.747-.971 1.2 0 2.182.395 2.944 1.185.763.784 1.144 1.87 1.144 3.257 0 1.124-.17 2.009-.51 2.656a3.55 3.55 0 01-1.473 1.497 4.258 4.258 0 01-2.105.535c-1.223 0-2.213-.392-2.97-1.176-.75-.784-1.126-1.914-1.126-3.389zm1.521 0c0 1.119.244 1.958.732 2.517a2.351 2.351 0 001.843.831c.735 0 1.346-.28 1.834-.839.488-.56.732-1.412.732-2.558 0-1.08-.247-1.897-.74-2.451-.488-.559-1.097-.839-1.826-.839-.74 0-1.355.277-1.843.831-.488.553-.732 1.39-.732 2.508zm8.414-5.988v-1.702h1.48v1.702h-1.48zm0 10.356v-8.735h1.48v8.735h-1.48zm6.975-1.325l.214 1.308c-.417.088-.79.132-1.119.132-.537 0-.954-.085-1.25-.255a1.432 1.432 0 01-.625-.666c-.12-.28-.18-.864-.18-1.752v-5.026h-1.087v-1.151h1.086v-2.163l1.472-.889v3.052h1.489v1.151h-1.489v5.108c0 .422.025.694.074.814.055.121.14.217.255.288.121.071.291.107.51.107.165 0 .381-.019.65-.058zm9.376 0l.214 1.308a5.465 5.465 0 01-1.118.132c-.538 0-.954-.085-1.251-.255a1.434 1.434 0 01-.625-.666c-.12-.28-.181-.864-.181-1.752v-5.026H107.3v-1.151h1.085v-2.163l1.473-.889v3.052h1.488v1.151h-1.488v5.108c0 .422.024.694.074.814.055.121.14.217.255.288.12.071.29.107.51.107.164 0 .381-.019.649-.058zm.905-3.043c0-1.617.45-2.815 1.349-3.594.751-.647 1.667-.971 2.747-.971 1.201 0 2.182.395 2.945 1.185.762.784 1.143 1.87 1.143 3.257 0 1.124-.17 2.009-.51 2.656a3.553 3.553 0 01-1.472 1.497 4.26 4.26 0 01-2.106.535c-1.223 0-2.212-.392-2.969-1.176-.751-.784-1.127-1.914-1.127-3.389zm1.522 0c0 1.119.244 1.958.732 2.517a2.35 2.35 0 001.842.831c.735 0 1.346-.28 1.834-.839.488-.56.732-1.412.732-2.558 0-1.08-.246-1.897-.74-2.451-.488-.559-1.097-.839-1.826-.839a2.35 2.35 0 00-1.842.831c-.488.553-.732 1.39-.732 2.508zm14.072 4.368v-1.103c-.553.867-1.368 1.3-2.442 1.3a3.444 3.444 0 01-1.925-.576c-.581-.384-1.034-.918-1.357-1.604-.318-.691-.477-1.483-.477-2.377 0-.871.145-1.661.436-2.368.29-.713.726-1.259 1.308-1.637a3.499 3.499 0 011.949-.568c.526 0 .995.113 1.406.338.412.219.746.507 1.004.863v-4.326h1.472v12.058h-1.374zm-4.68-4.36c0 1.119.236 1.955.708 2.509.471.554 1.028.831 1.669.831.647 0 1.196-.264 1.645-.79.456-.532.683-1.341.683-2.426 0-1.196-.23-2.073-.691-2.632-.46-.559-1.028-.839-1.702-.839-.658 0-1.209.269-1.654.806-.438.537-.658 1.384-.658 2.541zm14.09 3.282c-.549.466-1.078.795-1.588.987a4.536 4.536 0 01-1.628.288c-.96 0-1.697-.233-2.213-.699-.515-.472-.773-1.072-.773-1.801 0-.428.096-.817.288-1.168a2.45 2.45 0 01.765-.856 3.653 3.653 0 011.069-.485c.291-.077.729-.151 1.316-.222 1.195-.143 2.075-.313 2.64-.51.006-.203.008-.332.008-.387 0-.603-.139-1.028-.419-1.274-.378-.335-.94-.502-1.686-.502-.696 0-1.212.123-1.546.37-.329.241-.573.672-.732 1.291l-1.448-.197c.132-.62.348-1.119.65-1.497.301-.384.737-.677 1.308-.88.57-.208 1.231-.313 1.982-.313.745 0 1.351.088 1.817.264.467.175.809.397 1.029.666.219.263.372.597.46 1.003.05.252.074.708.074 1.366v1.974c0 1.376.03 2.248.091 2.615.065.362.192.71.378 1.045h-1.546a3.12 3.12 0 01-.296-1.078zm-.124-3.306c-.537.219-1.343.405-2.418.559-.608.088-1.039.186-1.291.296-.252.11-.447.272-.584.485a1.248 1.248 0 00-.206.699c0 .395.148.724.444.987.302.264.741.395 1.316.395.571 0 1.078-.123 1.522-.37.444-.252.77-.595.979-1.028.159-.334.238-.828.238-1.48v-.543zm3.734 7.748l-.164-1.39c.323.087.606.131.847.131.329 0 .592-.055.79-.164.197-.11.359-.264.485-.461.093-.148.244-.515.452-1.102.028-.082.071-.203.132-.362l-3.315-8.751h1.596l1.818 5.058c.235.642.446 1.316.633 2.023.17-.68.373-1.343.608-1.99l1.867-5.091h1.481l-3.323 8.883c-.356.959-.633 1.62-.831 1.982-.263.488-.564.844-.904 1.069-.34.23-.746.345-1.218.345a2.98 2.98 0 01-.954-.18zm7.658-3.364v-1.687h1.686v1.687h-1.686z" fill="#575857"/><path d="M46.574 33.494H43.8l-1.103-2.868h-5.048l-1.043 2.868h-2.705l4.92-12.629h2.696l5.056 12.63zm-4.695-4.996l-1.74-4.687-1.706 4.687h3.446zm14.43 4.996h-2.25v-1.343c-.373.522-.815.913-1.326 1.171a3.397 3.397 0 01-1.533.38c-1.051 0-1.953-.423-2.705-1.267-.747-.85-1.12-2.033-1.12-3.55 0-1.55.364-2.727 1.094-3.532.73-.81 1.65-1.214 2.765-1.214 1.022 0 1.907.425 2.653 1.275v-4.549h2.421v12.63zm-6.462-4.772c0 .976.135 1.683.405 2.12.39.63.936.947 1.637.947.557 0 1.03-.236 1.421-.707.39-.476.586-1.186.586-2.128 0-1.05-.19-1.806-.569-2.265-.379-.465-.864-.698-1.456-.698-.574 0-1.056.23-1.447.69-.385.453-.577 1.133-.577 2.04zm14.223-.164v-2.42h2.42v2.42h-2.42z" fill="#231F20"/><path d="M76.179 32.315l-2.8-9.15h1.602l1.456 5.282.543 1.964c.023-.098.18-.727.474-1.887l1.455-5.358h1.594l1.37 5.306.456 1.75.526-1.767 1.568-5.29h1.507l-2.86 9.15h-1.61l-1.456-5.48-.354-1.559-1.852 7.039h-1.62zm12.75 0l-2.8-9.15h1.602l1.456 5.282.542 1.964c.023-.098.181-.727.474-1.887l1.456-5.358h1.594l1.37 5.306.456 1.75.526-1.767 1.567-5.29h1.508l-2.86 9.15h-1.61l-1.457-5.48-.353-1.559-1.852 7.039h-1.62zm12.749 0l-2.8-9.15h1.603l1.455 5.282.543 1.964c.023-.098.181-.727.474-1.887l1.456-5.358h1.594l1.369 5.306.457 1.75.525-1.767 1.568-5.29h1.508l-2.86 9.15h-1.611l-1.456-5.48-.353-1.559-1.852 7.039h-1.62zm10.518 0v-1.767h1.766v1.767h-1.766zm4.471 0v-9.15h1.387v1.284a3.23 3.23 0 011.146-1.077c.477-.275 1.02-.413 1.628-.413.678 0 1.232.14 1.663.422.436.282.744.675.922 1.18.723-1.068 1.665-1.602 2.825-1.602.908 0 1.606.253 2.094.758.488.5.732 1.272.732 2.317v6.28h-1.542v-5.763c0-.62-.052-1.065-.155-1.335a1.276 1.276 0 00-.543-.663 1.706 1.706 0 00-.93-.25c-.643 0-1.178.215-1.603.646-.425.425-.637 1.108-.637 2.05v5.316h-1.551V26.37c0-.689-.126-1.206-.379-1.55-.252-.345-.666-.517-1.24-.517a2.28 2.28 0 00-1.215.344c-.367.23-.635.566-.801 1.008-.167.442-.25 1.08-.25 1.913v4.747h-1.551zm14.68 0v-9.15h1.395v1.388c.356-.65.684-1.077.982-1.284.305-.207.638-.31 1-.31.522 0 1.054.166 1.593.5l-.534 1.438c-.379-.224-.758-.336-1.137-.336-.339 0-.643.104-.913.31-.27.201-.462.483-.577.845a6.05 6.05 0 00-.259 1.809v4.79h-1.55zm5.875 0v-9.15h1.396v1.388c.356-.65.683-1.077.982-1.284a1.74 1.74 0 01.999-.31c.523 0 1.054.166 1.594.5l-.534 1.438c-.379-.224-.759-.336-1.138-.336a1.47 1.47 0 00-.913.31c-.27.201-.462.483-.577.845a6.05 6.05 0 00-.258 1.809v4.79h-1.551zm5.315-4.575c0-1.694.471-2.949 1.413-3.764.787-.678 1.746-1.017 2.877-1.017 1.258 0 2.286.413 3.084 1.24.799.822 1.198 1.959 1.198 3.412 0 1.177-.178 2.105-.534 2.782a3.731 3.731 0 01-1.542 1.568 4.466 4.466 0 01-2.206.56c-1.28 0-2.317-.41-3.11-1.232-.786-.821-1.18-2.004-1.18-3.549zm1.594 0c0 1.172.256 2.05.767 2.636.511.58 1.154.87 1.929.87.77 0 1.41-.293 1.921-.878.512-.586.767-1.48.767-2.68 0-1.131-.258-1.987-.775-2.567-.511-.586-1.149-.878-1.913-.878-.775 0-1.418.29-1.929.87-.511.58-.767 1.456-.767 2.627zm8.227 0c0-1.694.471-2.949 1.413-3.764.787-.678 1.746-1.017 2.877-1.017 1.258 0 2.286.413 3.084 1.24.798.822 1.198 1.959 1.198 3.412 0 1.177-.178 2.105-.535 2.782a3.72 3.72 0 01-1.542 1.568 4.465 4.465 0 01-2.205.56c-1.281 0-2.317-.41-3.11-1.232-.787-.821-1.18-2.004-1.18-3.549zm1.594 0c0 1.172.255 2.05.766 2.636.512.58 1.155.87 1.93.87.77 0 1.41-.293 1.921-.878.511-.586.767-1.48.767-2.68 0-1.131-.259-1.987-.775-2.567-.512-.586-1.149-.878-1.913-.878-.775 0-1.418.29-1.93.87-.511.58-.766 1.456-.766 2.627zm12.189 3.188l.224 1.37a5.747 5.747 0 01-1.171.137c-.563 0-1-.089-1.31-.267a1.497 1.497 0 01-.654-.698c-.127-.293-.19-.904-.19-1.835v-5.263h-1.137v-1.206h1.137V20.9l1.542-.93v3.196h1.559v1.206h-1.559v5.35c0 .442.026.726.078.852a.674.674 0 00.267.302c.126.075.304.112.534.112.172 0 .399-.02.68-.06zm7.788-1.56l1.602.198c-.252.937-.72 1.663-1.404 2.18-.683.517-1.556.775-2.619.775-1.338 0-2.4-.41-3.187-1.232-.781-.827-1.172-1.984-1.172-3.471 0-1.54.397-2.734 1.189-3.584.793-.85 1.821-1.275 3.084-1.275 1.223 0 2.223.416 2.998 1.25.775.832 1.163 2.003 1.163 3.514 0 .092-.003.23-.009.413h-6.822c.057 1.005.341 1.775.852 2.31.512.533 1.149.8 1.913.8.569 0 1.054-.15 1.456-.448.402-.298.721-.775.956-1.43zm-5.091-2.507h5.108c-.069-.77-.264-1.346-.586-1.731-.493-.597-1.134-.896-1.921-.896-.712 0-1.312.238-1.8.715-.482.477-.75 1.114-.801 1.912zm8.632 5.454v-9.15h1.395v1.388c.356-.65.684-1.077.982-1.284.305-.207.638-.31 1-.31.522 0 1.053.166 1.593.5l-.534 1.438c-.379-.224-.758-.336-1.137-.336-.339 0-.643.104-.913.31-.27.201-.462.483-.577.845a6.018 6.018 0 00-.259 1.809v4.79h-1.55zm5.349 0v-1.767h1.766v1.767h-1.766zm10.441-3.352l1.525.198c-.166 1.051-.594 1.876-1.283 2.473-.684.591-1.525.887-2.525.887-1.252 0-2.259-.408-3.023-1.223-.758-.821-1.137-1.996-1.137-3.523 0-.988.163-1.853.491-2.593.327-.741.824-1.295 1.49-1.663a4.431 4.431 0 012.188-.56c.994 0 1.806.253 2.438.758.632.5 1.037 1.212 1.215 2.137l-1.508.232c-.143-.614-.399-1.077-.767-1.387-.361-.31-.801-.465-1.318-.465-.781 0-1.415.281-1.903.844-.489.557-.733 1.442-.733 2.654 0 1.229.236 2.122.707 2.679.471.557 1.085.835 1.843.835.609 0 1.117-.186 1.525-.56.408-.373.666-.947.775-1.723zm2.275-1.223c0-1.694.471-2.949 1.412-3.764.787-.678 1.746-1.017 2.878-1.017 1.257 0 2.285.413 3.084 1.24.798.822 1.197 1.959 1.197 3.412 0 1.177-.178 2.105-.534 2.782a3.72 3.72 0 01-1.542 1.568 4.465 4.465 0 01-2.205.56c-1.281 0-2.318-.41-3.11-1.232-.787-.821-1.18-2.004-1.18-3.549zm1.593 0c0 1.172.256 2.05.767 2.636.511.58 1.154.87 1.93.87.769 0 1.41-.293 1.921-.878.511-.586.766-1.48.766-2.68 0-1.131-.258-1.987-.775-2.567-.511-.586-1.148-.878-1.912-.878-.776 0-1.419.29-1.93.87-.511.58-.767 1.456-.767 2.627zm8.804 4.575v-9.15h1.387v1.284c.288-.448.67-.807 1.146-1.077.477-.275 1.02-.413 1.628-.413.678 0 1.232.14 1.663.422.436.282.744.675.922 1.18.723-1.068 1.665-1.602 2.825-1.602.908 0 1.606.253 2.094.758.488.5.732 1.272.732 2.317v6.28h-1.542v-5.763c0-.62-.052-1.065-.155-1.335a1.276 1.276 0 00-.543-.663 1.706 1.706 0 00-.93-.25c-.643 0-1.178.215-1.603.646-.425.425-.637 1.108-.637 2.05v5.316h-1.551V26.37c0-.689-.126-1.206-.379-1.55-.252-.345-.666-.517-1.24-.517a2.28 2.28 0 00-1.215.344c-.367.23-.635.566-.801 1.008-.167.442-.25 1.08-.25 1.913v4.747h-1.551zm13.534.215l3.661-13.06h1.241l-3.653 13.06h-1.249zm12.009-.215V31.16c-.58.908-1.433 1.361-2.559 1.361a3.605 3.605 0 01-2.015-.603c-.609-.402-1.083-.962-1.422-1.68-.333-.723-.5-1.553-.5-2.49 0-.913.153-1.74.457-2.48.304-.747.761-1.318 1.37-1.715a3.661 3.661 0 012.041-.594c.552 0 1.043.118 1.474.353.43.23.781.531 1.051.905v-4.532h1.542v12.63h-1.439zm-4.902-4.566c0 1.171.247 2.047.741 2.627.494.58 1.077.87 1.749.87.678 0 1.252-.275 1.723-.827.476-.557.715-1.404.715-2.541 0-1.252-.241-2.171-.724-2.757-.482-.586-1.077-.878-1.783-.878-.689 0-1.266.28-1.732.844-.459.563-.689 1.45-.689 2.662zm15.05 1.62l1.602.197c-.252.937-.72 1.663-1.404 2.18-.683.517-1.556.775-2.619.775-1.338 0-2.4-.41-3.187-1.232-.781-.827-1.172-1.984-1.172-3.471 0-1.54.397-2.734 1.189-3.584.793-.85 1.821-1.275 3.084-1.275 1.223 0 2.223.416 2.998 1.25.775.832 1.163 2.003 1.163 3.514 0 .092-.003.23-.009.413h-6.822c.057 1.005.341 1.775.852 2.31.512.533 1.149.8 1.913.8.568 0 1.054-.15 1.456-.448.402-.298.721-.775.956-1.43zm-5.091-2.508h5.108c-.069-.77-.264-1.346-.586-1.731-.493-.597-1.134-.896-1.921-.896-.712 0-1.312.238-1.8.715-.483.477-.75 1.114-.801 1.912zm12.034 4.066l.224 1.37a5.747 5.747 0 01-1.171.138c-.563 0-1-.089-1.31-.267a1.497 1.497 0 01-.654-.698c-.127-.293-.19-.904-.19-1.835v-5.263h-1.137v-1.206h1.137V20.9l1.542-.93v3.196h1.559v1.206h-1.559v5.35c0 .442.026.726.078.852a.674.674 0 00.267.302c.126.075.304.112.534.112.172 0 .399-.02.68-.06zm1.508 1.388v-9.15h1.396v1.388c.356-.65.683-1.077.982-1.284a1.74 1.74 0 01.999-.31c.523 0 1.054.166 1.594.5l-.534 1.438c-.38-.224-.759-.336-1.138-.336a1.47 1.47 0 00-.913.31c-.27.201-.462.483-.577.845a6.05 6.05 0 00-.258 1.809v4.79h-1.551zm5.315-4.575c0-1.694.471-2.949 1.413-3.764.787-.678 1.746-1.017 2.877-1.017 1.258 0 2.286.413 3.084 1.24.799.822 1.198 1.959 1.198 3.412 0 1.177-.178 2.105-.534 2.782a3.731 3.731 0 01-1.542 1.568 4.466 4.466 0 01-2.206.56c-1.28 0-2.317-.41-3.11-1.232-.786-.821-1.18-2.004-1.18-3.549zm1.594 0c0 1.172.255 2.05.767 2.636.511.58 1.154.87 1.929.87.77 0 1.41-.293 1.921-.878.512-.586.767-1.48.767-2.68 0-1.131-.258-1.987-.775-2.567-.511-.586-1.149-.878-1.913-.878-.775 0-1.418.29-1.929.87-.512.58-.767 1.456-.767 2.627zm8.813-6.271v-1.784h1.55v1.784h-1.55zm0 10.846v-9.15h1.55v9.15h-1.55zm7.305-1.387l.224 1.37a5.756 5.756 0 01-1.172.137c-.563 0-.999-.089-1.309-.267a1.504 1.504 0 01-.655-.698c-.126-.293-.189-.904-.189-1.835v-5.263h-1.137v-1.206H270V20.9l1.542-.93v3.196h1.559v1.206h-1.559v5.35c0 .442.026.726.077.852a.686.686 0 00.267.302c.127.075.305.112.534.112.173 0 .4-.02.681-.06zm.362 1.602l3.661-13.06h1.24l-3.652 13.06h-1.249z" fill="#3D4043"/><a><path d="M0-.144h205.037v20.288H0z"/></a><path d="M37.974 62.786h-2.23v-17.35h2.23L44.008 56h.097l6.034-10.565h2.229v17.35h-2.23V52.487l.098-2.907h-.097l-5.428 9.523h-1.309l-5.428-9.523h-.097l.097 2.907v10.299zm19.727 0h-2.23V50.912h2.133v1.939h.097c.226-.63.686-1.163 1.381-1.6.71-.452 1.405-.678 2.084-.678.646 0 1.196.097 1.648.29l-.679 2.157c-.274-.113-.71-.17-1.308-.17-.84 0-1.575.34-2.205 1.019a3.429 3.429 0 00-.921 2.374v6.543zm7.498-1.502c0 .452-.161.84-.484 1.163-.307.323-.695.484-1.164.484-.452 0-.84-.161-1.163-.484a1.586 1.586 0 01-.484-1.163c0-.469.161-.857.484-1.163a1.583 1.583 0 011.163-.485c.469 0 .857.161 1.163.484.324.307.485.695.485 1.164zm10.472-13.716v6.107h3.586c.905 0 1.672-.291 2.302-.873a2.92 2.92 0 00.945-2.205c0-.808-.298-1.51-.896-2.108-.582-.614-1.317-.92-2.205-.92H75.67zm0 15.218h-2.23v-17.35h5.913c1.503 0 2.779.5 3.829 1.502 1.066.986 1.6 2.205 1.6 3.66 0 1.195-.397 2.26-1.188 3.198-.775.92-1.761 1.51-2.956 1.769l-.049.073 4.87 7.051v.097h-2.64l-4.677-7.027H75.67v7.027zm10.477-5.937c0-1.825.574-3.336 1.72-4.531 1.164-1.196 2.626-1.793 4.386-1.793 1.761 0 3.215.597 4.362 1.793 1.163 1.195 1.745 2.706 1.745 4.531 0 1.842-.582 3.352-1.745 4.532-1.147 1.195-2.6 1.793-4.362 1.793-1.76 0-3.222-.598-4.386-1.793-1.146-1.196-1.72-2.706-1.72-4.532zm2.23 0c0 1.276.37 2.31 1.114 3.102.743.791 1.664 1.187 2.762 1.187 1.099 0 2.02-.396 2.763-1.187.743-.792 1.115-1.826 1.115-3.102 0-1.26-.372-2.286-1.115-3.077-.76-.808-1.68-1.212-2.763-1.212-1.082 0-2.003.404-2.762 1.212-.743.791-1.115 1.817-1.115 3.077zm11.33 0c0-1.825.573-3.336 1.72-4.531 1.163-1.196 2.625-1.793 4.386-1.793 1.761 0 3.215.597 4.362 1.793 1.163 1.195 1.744 2.706 1.744 4.531 0 1.842-.581 3.352-1.744 4.532-1.147 1.195-2.601 1.793-4.362 1.793-1.761 0-3.223-.598-4.386-1.793-1.147-1.196-1.72-2.706-1.72-4.532zm2.229 0c0 1.276.371 2.31 1.115 3.102.743.791 1.663 1.187 2.762 1.187s2.019-.396 2.762-1.187c.744-.792 1.115-1.826 1.115-3.102 0-1.26-.371-2.286-1.115-3.077-.759-.808-1.68-1.212-2.762-1.212s-2.003.404-2.762 1.212c-.744.791-1.115 1.817-1.115 3.077zm16.355 6.13c-.97 0-1.777-.298-2.424-.896-.63-.597-.953-1.43-.969-2.496v-6.64h-2.084v-2.035h2.084v-3.634h2.229v3.634h2.908v2.036h-2.908v5.912c0 .792.154 1.333.461 1.624a1.52 1.52 0 001.042.412c.178 0 .347-.016.509-.049a3.39 3.39 0 00.484-.17l.703 1.988c-.581.21-1.26.315-2.035.315zm9.078.195c-1.745 0-3.183-.598-4.314-1.793-1.13-1.196-1.696-2.706-1.696-4.532 0-1.81.549-3.312 1.648-4.507 1.098-1.212 2.504-1.817 4.216-1.817 1.761 0 3.159.573 4.192 1.72 1.051 1.13 1.576 2.722 1.576 4.774l-.025.242h-9.329c.032 1.163.42 2.1 1.163 2.811a3.722 3.722 0 002.666 1.066c1.421 0 2.536-.71 3.344-2.132l1.987.97a5.898 5.898 0 01-2.23 2.35c-.937.565-2.003.848-3.198.848zm-3.562-7.755h6.809c-.065-.823-.404-1.502-1.018-2.035-.598-.55-1.405-.824-2.423-.824-.84 0-1.567.259-2.181.776-.598.517-.994 1.211-1.187 2.084zm13.452 7.367h-2.23V50.912h2.133v1.939h.097c.226-.63.686-1.163 1.381-1.6.711-.452 1.405-.678 2.084-.678.646 0 1.195.097 1.648.29l-.679 2.157c-.275-.113-.711-.17-1.308-.17-.84 0-1.576.34-2.206 1.019a3.432 3.432 0 00-.92 2.374v6.543zm12.285 0v-17.35h5.307c2.65 0 4.774.8 6.373 2.399 1.616 1.6 2.424 3.691 2.424 6.276 0 2.6-.808 4.701-2.424 6.3-1.599 1.583-3.723 2.375-6.373 2.375h-5.307zm2.23-15.218v13.086h3.077c2.02 0 3.611-.574 4.774-1.72 1.163-1.164 1.745-2.771 1.745-4.823 0-2.036-.582-3.635-1.745-4.798-1.163-1.163-2.754-1.745-4.774-1.745h-3.077zm19.113 15.606c-1.745 0-3.182-.598-4.313-1.793-1.131-1.196-1.697-2.706-1.697-4.532 0-1.81.55-3.312 1.648-4.507 1.099-1.212 2.504-1.817 4.217-1.817 1.761 0 3.158.573 4.192 1.72 1.05 1.13 1.575 2.722 1.575 4.774l-.024.242h-9.33c.033 1.163.42 2.1 1.163 2.811a3.724 3.724 0 002.666 1.066c1.422 0 2.536-.71 3.344-2.132l1.987.97a5.896 5.896 0 01-2.229 2.35c-.937.565-2.004.848-3.199.848zm-3.562-7.755h6.809a2.892 2.892 0 00-1.018-2.035c-.597-.55-1.405-.824-2.423-.824-.84 0-1.567.259-2.181.776-.597.517-.993 1.211-1.187 2.084zm15.569 7.56c-.97 0-1.777-.298-2.424-.896-.63-.597-.953-1.43-.969-2.496v-6.64h-2.084v-2.035h2.084v-3.634h2.23v3.634h2.907v2.036h-2.907v5.912c0 .792.153 1.333.46 1.624a1.52 1.52 0 001.042.412c.178 0 .347-.016.509-.049a3.39 3.39 0 00.484-.17l.703 1.988c-.581.21-1.26.315-2.035.315zm6.094-.193h-2.229V50.912h2.132v1.939h.097c.227-.63.687-1.163 1.382-1.6.71-.452 1.405-.678 2.084-.678.646 0 1.195.097 1.647.29l-.678 2.157c-.275-.113-.711-.17-1.309-.17-.84 0-1.575.34-2.205 1.019a3.428 3.428 0 00-.921 2.374v6.543zm5.162-5.937c0-1.825.574-3.336 1.72-4.531 1.164-1.196 2.626-1.793 4.386-1.793 1.761 0 3.215.597 4.362 1.793 1.163 1.195 1.745 2.706 1.745 4.531 0 1.842-.582 3.352-1.745 4.532-1.147 1.195-2.601 1.793-4.362 1.793-1.76 0-3.222-.598-4.386-1.793-1.146-1.196-1.72-2.706-1.72-4.532zm2.229 0c0 1.276.372 2.31 1.115 3.102.743.791 1.664 1.187 2.762 1.187 1.099 0 2.02-.396 2.763-1.187.743-.792 1.115-1.826 1.115-3.102 0-1.26-.372-2.286-1.115-3.077-.759-.808-1.68-1.212-2.763-1.212-1.082 0-2.003.404-2.762 1.212-.743.791-1.115 1.817-1.115 3.077zm14.656-10.032c0 .436-.153.808-.46 1.115a1.52 1.52 0 01-1.115.46 1.52 1.52 0 01-1.115-.46 1.518 1.518 0 01-.46-1.115c0-.436.153-.808.46-1.115a1.52 1.52 0 011.115-.46c.436 0 .808.154 1.115.46.307.307.46.679.46 1.115zm-.46 4.095v11.874h-2.23V50.912h2.23zm7.484 12.068c-.97 0-1.777-.299-2.424-.897-.63-.597-.953-1.43-.969-2.496v-6.64h-2.084v-2.035h2.084v-3.634h2.229v3.634h2.908v2.036h-2.908v5.912c0 .792.154 1.333.461 1.624a1.52 1.52 0 001.042.412c.177 0 .347-.016.509-.049a3.39 3.39 0 00.484-.17l.703 1.988c-.582.21-1.26.315-2.035.315z" fill="#005BC2"/></svg>