<svg width="149" height="69" fill="none" xmlns="http://www.w3.org/2000/svg"><path d="M73.37 48.157a2.012 2.012 0 00-1.24-.264h-1.706v4.663h1.07V50.83h.693a1.83 1.83 0 001.314-.334 1.518 1.518 0 00.495-1.15 1.404 1.404 0 00-.597-1.15l-.029-.04zm-.608 1.662a.794.794 0 01-.66.201h-.609v-1.276h.603a.924.924 0 01.569.126.652.652 0 01.08.909l.017.04zm45.177 2.737h1.075v-4.663h-1.075v4.663zM77.402 36.61c-.239-.276-3.213 2.703-4.015-.926-.75-3.375 4.271-5.784.927-7.929-1.137-.724-2.195.99-4.197.54-2.002-.448-1.183-2.386-2.98-2.3-1.797.087-3.77 2.778-2.542 5.176.363.782.9 1.47 1.57 2.006.199.196-.296 1.403-1.308 2.806-1.803 2.525-2.844 2.1-2.844 2.1s-.12-8.844-.04-11.087c.08-2.242.347-6.492.637-8.625.29-2.133.666-1.92 1.707-2.455 1.04-.535 1.228-1.415.056-1.622-1.171-.207-5.874-.632-6.762.466-.887 1.098-5.044 14.214-5.283 14.76-.239.547-.569.547-.819-.16-.25-.708-2.746-10.8-3.025-11.708-.279-.908-.46-1.69-1.291-2.058-.83-.368-4.67.857-6.142 1.823-1.473.966.569 1.598.864 1.753a1.288 1.288 0 01.66 1.15c0 .627-2.957 19.182-3.048 19.907a1.83 1.83 0 00.142 1.07c.153.333.403.612.717.799 1.302.84 5.686 1.207 5.908.258.347-1.328-1.359-.776-1.359-2.185 0-.62 1.297-6.422 1.706-7.768 0 0 2.61 8.263 3.083 9.246.215.44.556.803.98 1.044a2.396 2.396 0 002.71-.233 2.45 2.45 0 00.791-1.196c.71-2.3 2.588-8.326 2.588-8.326s.767 12.075 1.08 13.121c.42 1.392 1.536 2.3 3.748 2.157.887-.046 2.843-.391 2.843-1.07 0-.678-.739-.69-1.171-1.087-.569-.517-.836-1.31-.944-2.995 0-.437 1.877-.138 3.884-2.875 1.61-2.174 2.49-5.175 2.81-5.848.124-.236.875-.207.824.287-.091.886-1.007 4.416 2.349 5.543 3.105 1.035 5.408-3.294 5.175-3.57l.011.011zm50.274 14.013l-1.542-2.743h-1.137v4.675h.83V49.45h.034l1.769 3.134h.904v-4.692h-.836l-.022 2.73zm-.728-24.88c.216 0 3.981-.363 4.93-.455 1.138-.103 3.521-3.806 3.521-3.806s.432-.575-.774-.53c-1.205.047-5.687.576-6.199.576-.512 0-.637.218-.438-.38s1.257-3.45 1.434-3.99c.136-.385.278-.776-.313-.736-.592.04-4.374.448-4.692.713-.319.264-1.427 3.939-1.592 4.381-.165.443-.438.478-.984.575-.546.098-5.778.644-5.977.995-.199.35.631 3.209 1.507 3.209.722 0 3.554-.207 3.981-.242.426-.034.568-.115.529.253-.04.368-.734 2.95-.916 3.594a3.019 3.019 0 01-1.291 1.805 4.24 4.24 0 01-2.4.248c-.853-.156-1.706-1.15-3.35-1-1.643.149-1.706 1.109-5.021 1.15-3.316.04-4.027-2.83-7.962-.702-3.037 1.638-3.77 6.468-2.434 8.665.836 1.374-2.275.489-4.408-3.962-.99-2.058-1.66-4.077-.147-5.043.665-.43 3.77-1.725 5.505-2.829 1.734-1.104 6.995-5.232 6.193-10.712-.438-3.042-3.526-8.234-14.468-5.94-5.784 1.208-9.07 2.588-9.793 3.393-.722.805-.808 7.44-.319 8.113.49.673 2.07-.546 2.463-.144.392.403-1.33 19.056-.569 21.333.472 1.426 4.874 1.524 6.825.874 1-.334.568-1.15-.762-1.564-1.331-.414-.83-7.475-.83-7.475 0-.46.227-.437.687.322.461.759 3.981 7.624 7.962 7.774 2.195.086 2.81-2.14 4.078-1.656a6.343 6.343 0 004.913-.575c2.116-1.282 2.48-4.025 2.599-5.543a6.405 6.405 0 00-.147-2.254c.432.148.895.178 1.342.086-.395.947-.643 1.95-.734 2.973-.262 2.076.478 4.554 3.06 5.066 2.582.511 4.453-.426 5.567-2.41 1.388-2.466 1.075-6.049 1.075-6.049.272.029.547.029.819 0a2 2 0 00.683-.19s-.029.167-.268 1.248c-.239 1.081-1.217 5.992-1.217 6.325a.81.81 0 00.415.65c.125.063 2.235 1.334 2.446.742.244-.742 5.118-16.405 5.181-16.6.062-.196.074-.219.295-.236l-.005-.04zm-37.927-.317c-.569-.362-.193-4.462.489-4.743 4.8-1.978 9.287-2.433 9.344-1.587.114 1.679-9.253 6.693-9.833 6.325v.005zm13.944 13.588c-1.632-.144-.983-2.962-.301-4.025.683-1.064 1.621-1.38 2.275-.219.842 1.495-.347 4.399-1.968 4.25l-.006-.006zm11.016-.49a1.573 1.573 0 01-1.378-.38 1.62 1.62 0 01-.521-1.344c0-1.49.671-2.927 1.899-2.875 1.866.086 1.974 4.025 0 4.6zm28.31.973c-.694-1.357 3.174-3.68 4.123-5.14a1.877 1.877 0 00-.069-2.122 1.843 1.843 0 00-.89-.654 1.821 1.821 0 00-1.099-.025c-1.672.397-2.412.368-2.719.052-.762-.765 1.052-3.14-1.598-3.45a3.377 3.377 0 00-3.042 1.017c-.95 1.041-.979 3.404-.319 3.95.33.282.415.242-.102 1.024-.518.782-3.412 4.37-5.835 5.394-2.423 1.023-1.956-1.49-1.956-1.49s1.2.161 3.11-.96c2.685-1.581 3.981-4.6 2.599-6.808-1.382-2.208-5.766-1.846-7.7.5-1.933 2.346-2.809 6.647-2.639 8.804.171 2.156 2.059 5.675 5.858 3.8 3.799-1.874 8.758-7.802 8.826-7.958.068-.155.478-.327 1.035-.086.558.242.069.65-.364 1.3-.432.65-2.007 2.42-2.155 4.6-.148 2.179 1.297 3.243 3.725 2.668 2.957-.702 4.248-3.772 3.696-4.6 0 0-1.78 1.552-2.485.195v-.011zM131.412 32.2c.756-.345.08 1.788-1.206 2.099-1.285.31.45-1.76 1.206-2.1zm4.794 16.474c.518 0 .762.396.808.868l1.023-.144a1.734 1.734 0 00-.578-1.175 1.696 1.696 0 00-1.23-.423c-1.388 0-1.996 1.15-1.996 2.438 0 1.288.568 2.357 1.905 2.357a1.45 1.45 0 001.251-.604l.165.54h.483V50.06h-1.893v.869h.87a.723.723 0 01-.449.774.711.711 0 01-.313.048c-.745 0-.922-.857-.922-1.46 0-.604.114-1.582.876-1.582v-.034zm-55.556-.77h-1.075v4.65h2.934v-.925h-1.86v-3.726zm.119-8.626a1.804 1.804 0 00-.471-1.287 1.77 1.77 0 00-1.235-.57c-.468.022-.909.23-1.228.577-.319.347-.49.806-.478 1.28 0 .458.18.896.5 1.22a1.697 1.697 0 002.412 0c.32-.324.5-.762.5-1.22zm30.539 10.85a1.01 1.01 0 00.594-.352 1.04 1.04 0 00.237-.654 1.16 1.16 0 00-.569-1.023 1.934 1.934 0 00-1.058-.202h-2.07v4.658h2.07a1.91 1.91 0 001.189-.23 1.298 1.298 0 00.568-1.006 1.156 1.156 0 00-.268-.757 1.135 1.135 0 00-.693-.393v-.04zm-1.774-1.38h.648c.209-.023.421 0 .62.07a.484.484 0 01.233.42.54.54 0 01-.204.425.913.913 0 01-.569.103h-.728V48.75zm1.359 2.875a1.08 1.08 0 01-.614.098h-.745v-1.15h.802c.194-.02.39.013.569.092a.579.579 0 01.261.454.568.568 0 01-.239.478l-.034.028zm-10.879-.931l-.802-2.795h-1.706v4.658h.887v-3.8l1.138 3.8h.739l1.137-3.8v3.8h1.075v-4.663h-1.706l-.762 2.8zm-9.287 0a1.44 1.44 0 01-.125.776.897.897 0 01-.666.259.743.743 0 01-.688-.322 1.504 1.504 0 01-.108-.713v-2.8h-1.137v2.823a1.796 1.796 0 00.472 1.5c.41.298.912.441 1.416.403a1.96 1.96 0 001.41-.483 1.83 1.83 0 00.387-1.42v-2.823h-.933l-.028 2.8zm56.142-8.924c.327-.005.647.09.921.27a1.663 1.663 0 01.716 1.706 1.67 1.67 0 01-.448.856 1.625 1.625 0 01-1.797.363 1.663 1.663 0 01-1.012-1.546 1.628 1.628 0 01.996-1.526c.198-.083.41-.125.624-.123zm0 .253a1.372 1.372 0 00-.789.199 1.398 1.398 0 00-.544.612 1.417 1.417 0 00.25 1.552 1.382 1.382 0 001.518.343c.258-.102.48-.281.636-.512.157-.232.241-.505.243-.785a1.375 1.375 0 00-.366-.982 1.356 1.356 0 00-.948-.427zm-.301 2.357h-.296V42.55c.154-.012.308-.012.461 0a.954.954 0 01.569.138.444.444 0 01.164.38.457.457 0 01-.352.448c.159 0 .261.172.301.448.018.154.056.305.114.449h-.301a1.28 1.28 0 01-.126-.466.348.348 0 00-.125-.249.34.34 0 00-.267-.073h-.199l.057.753zm0-1.017h.165c.239 0 .438-.087.438-.317s-.114-.322-.438-.322a.92.92 0 00-.211 0l.046.639zM25.963 21.138s.336.236.473.195c.136-.04.096-.115-.04-.253l-3.413-3.202-1.296-1.248s-.364-.293-.427-.236c-.062.058.08.259.2.374l3.082 2.967 1.421 1.403zm-14.308-7.51a17.026 17.026 0 016.375-2.173c.609-.052 3.611-.08 4.396 0 .785.08 2.173.34 2.173.34.04.01.078.032.108.062.119.161.284.54-.364.449a19.28 19.28 0 00-4.43-.288 14.116 14.116 0 00-4.135.633 15.425 15.425 0 00-4.396 2.064 8.488 8.488 0 00-1.791 1.576s-.188.31.108.103c0 0 .199-.224.273-.15.074.075.238.075.056.346a24.53 24.53 0 00-2.058 2.77 9.703 9.703 0 00-.848 1.725s-.159.368.057.075.82-1.65 1.348-2.346a17.331 17.331 0 011.655-1.794c.148-.115.483-.104.267.224-.216.328-.955 1.11-.955 1.11s-.745.966-.745 1.012c0 .046.13-.029.216-.138.085-.11.972-1.098 1.137-1.213.165-.115.438-.345.512-.282.074.063.165.195-.17.477-.47.473-.917.97-1.337 1.49-.332.383-.59.825-.762 1.305 0 .195.04.086.17-.046.131-.133.677-.765.973-1.041.296-.276 1.769-1.495 2.195-1.76.427-.264 2.144-1.098 2.542-1.247a27.718 27.718 0 014.55-1.242 34.437 34.437 0 014.578-.282c.728.04 3.543.575 3.981.707.438.132.802.316.802.127 0-.19-.262-2.352-.262-2.352a1.675 1.675 0 00-.637-.615 6.91 6.91 0 00-1.774-.851.234.234 0 01-.071-.17.24.24 0 01.071-.17c.16-.178.381-.207 0-.327-.381-.121-1.996-.575-1.996-.575a.526.526 0 01-.45-.38c-.164-.39-.46-1.823-.676-2.18-.216-.356-.46-.574-.603-.804a2.904 2.904 0 01-.233-1.777c.125-.34.335-.575.603-.575.3.025.578.17.773.403.213.265.403.547.569.845.195.328.433.63.705.897.472.431 1.558 1.357 1.791 1.633.269.362.481.764.632 1.19.053.35.212.676.455.932.324.299.773.695.995.948.257.396.449.83.569 1.288.147.46.278 1.064.352 1.19a.223.223 0 00.2.126.22.22 0 00.198-.125c.097-.173.154-.345-.09-1.07a4.84 4.84 0 00-.814-1.478 2.09 2.09 0 01-.392-1.725c.25-.575.648-.414.79-.31.252.32.469.668.648 1.035.103.213.342.236.484.282.307.132.6.296.876.488.136.092.244.161.273 0a1.255 1.255 0 00-.086-.695 3.51 3.51 0 00-.523-1.11c-.324-.477-1.598-1.88-1.803-2.087-.204-.207-1.422-1.306-1.706-1.69a81.68 81.68 0 00-1.706-2.151c-.136-.15-.898-1.076-1.262-1.438a2.1 2.1 0 00-1.28-.765 1.24 1.24 0 00-1.024.49 8.687 8.687 0 01-2.434 1.776c-1.262.535-2.667.891-6.13 1.19 0 0-1.962.15-2.958 1.098A6.612 6.612 0 008.42 9.34c-.293.806-.534 1.63-.722 2.467a20.281 20.281 0 01-.666 2.04c-.136.237-.96 1.818-1.194 2.111a3.87 3.87 0 00-.466 2.375.825.825 0 00.624.622.804.804 0 00.82-.312c.313-.488 1.058-1.638 1.37-2.012a11.77 11.77 0 013.458-3.002h.012zm-3.822-.816c-.17-.184.353-.748.649-.834.76-.36 1.494-.778 2.195-1.248.352-.264 1.967-1.69 2.371-1.926.404-.236 2.582-1.213 3.668-1.725a11.941 11.941 0 002.844-2.012 19.814 19.814 0 012.115-1.754c.234-.115.666-.115.762.184a3.102 3.102 0 01-.443 1.472c-.148.184-.523.034-.677.034-.153 0-.876.95-.967 1.093a46.015 46.015 0 01-2.9 3.565c-1.086 1.15-3.31 2.104-4.225 2.398-.916.293-4.55.828-4.55.828-.466.063-.614.092-.79-.08l-.052.005zm11.619 4.215l-.455-.432a.182.182 0 00-.142-.046c-.097 0-3.413.432-5.608 1.84 0 0-.512.236.21.685.723.448 2.008 1.184 2.275 1.305.915.407 1.867.72 2.844.931 1.013.175 2.038.27 3.065.282.569 0 1.672-.046 1.894-.086.222-.04.438-.046.29-.27-.148-.225-4.396-4.21-4.396-4.21h.023zm7.45 10.51l.307-.206a2.32 2.32 0 01.722-.305c.29-.075.529-.12.512-.224-.017-.104-.21-.265-.37-.31a1.125 1.125 0 00-.568-.035.99.99 0 00-.472.316c-.078.106-.145.22-.2.34a1.165 1.165 0 00-.09.344c0 .075 0 .161.13.086l.029-.005zm5.806 7.326c-.03-.89-.104-1.779-.221-2.662-.04-.35-.484-1.955-.57-2.266a26.172 26.172 0 00-.568-1.604c-.057-.12-.42-2.173-.529-3.168-.108-.995-.096-1.098-.148-1.15-.05-.052-.085 0-.085 0a4.86 4.86 0 01-.41.299c-.13.069-.466-.029-.688-.063a3.872 3.872 0 00-1.364.109c-.442.18-.803.514-1.018.943-.103.178-.57 1.035-.717 1.202-.148.166-.267.097-.41 0-.142-.098 0-.77 0-.77s-.045-.386.643-1.617c.688-1.23 1.189-1.38 1.456-1.53a2.612 2.612 0 011.098-.103c.165 0 .836.265 1.04.31.205.047.296-.057.455-.356.16-.299-.074-.35-.233-.385a11.55 11.55 0 00-1.189.086l-3.451.23c-1.382.08-3.572.161-5.449.098a12.62 12.62 0 01-3.98-.8 25.643 25.643 0 01-2.372-1.212c-.284-.15-1.012-.575-1.183-.639-.17-.063-.301.196-.45.863-.147.667.177 2.3.268 3.036.052.462.052.929 0 1.391 0 .3-.148 2.507-.165 2.79-.017.28-.148 2.96-.16 3.363-.01.402-.471.575-1.233.241a4.128 4.128 0 00-1.928-.494 3.963 3.963 0 00-1.882.908c-.444.397-.364 1.507-.205 1.898.384.7.81 1.376 1.274 2.024.317.6.589 1.222.813 1.863.156.526.382 1.03.671 1.495a1.139 1.139 0 001.064.454c.164 0 1.074-.144 1.268-.132.193.011.199.167.17.31-.028.144-.296.426-.37.656-.073.23.45.627 1.48 1.397.891.634 1.822 1.21 2.786 1.725.188.104 2.474 1.15 2.707 1.23.233.081 3.219 1.099 4.197 1.501.68.26 1.257.736 1.643 1.357.347.478.706 2.185.848 2.674.142.489.38-.15.426-.253.046-.103.944-2.46.944-2.46s.433-1.57.495-1.824c.063-.253-.074-.281-.16-.31-.084-.029-.568.057-1.028.057a16.78 16.78 0 01-2.201-.16c-.2-.04-1.104-.3-1.331-.357a23.506 23.506 0 01-1.4-.472.451.451 0 01-.272-.534c.085-.161.324-.075.466-.075.907.35 1.846.608 2.804.77a7.033 7.033 0 004.31-.626 4.551 4.551 0 001.451-1.053c.41-.444.729-.965.938-1.535a21.953 21.953 0 001.422-3.582 12.18 12.18 0 00.233-3.06v-.028zm-21.167 2.271a.64.64 0 01-.637.121c-.125-.075-.068-.287 0-.431.068-.144 0-.3-.102-.477a10.96 10.96 0 01-.671-1.214c-.103-.299.187-1.098.187-1.305a1.236 1.236 0 00-.523-1.08c-.489-.283-.665-.283-.955-.156a2.507 2.507 0 00-.796.627.754.754 0 00-.114.488.577.577 0 01-.205.374c-.09.086-.176-.063-.239-.15a2.772 2.772 0 01-.057-.638c0-.224.57-.908.751-1.023a2.25 2.25 0 011.302-.374 1.694 1.694 0 011.348.863c.277.549.375 1.173.279 1.782-.057.621-.074.661.034.817.278.275.475.624.569 1.006.102.575 0 .575-.188.77h.017zm14.627-8.826c.06-.5.202-.985.421-1.437.118-.284.327-.519.593-.667.266-.148.575-.201.874-.15a2.267 2.267 0 011.331 1.15 2.16 2.16 0 01.193 1.622 1.203 1.203 0 01-.367.572 1.182 1.182 0 01-.617.279 1.126 1.126 0 01-.91-.363c-.208-.279-.3-.63-.255-.977 0-.161-.052-.219-.12-.236-.068-.017-.256.144-.443.621a.65.65 0 00.165.857 7.86 7.86 0 001.609.627 1.324 1.324 0 01.893.891c.031.433-.105.862-.381 1.196-.23.251-.444.516-.643.793-.13.248 0 .54 0 .696 0 .155-.438.293-.455-.08-.017-.374-.102-.575.455-1.242.558-.667.495-.851.427-1.202-.069-.35-.79-.65-.893-.667a8.394 8.394 0 01-1.138-.414c-.506-.224-.739-1.024-.739-1.024a2.64 2.64 0 010-.845zm-.074 4.525c.154-.12.313-.234.478-.339.15-.083.318-.13.489-.138a.215.215 0 01.222.12.22.22 0 01.023.087c0 .132-.302.3-.484.362a.9.9 0 00-.38.294c-.063.069-.115.224-.223.304a.392.392 0 01-.426.11c-.068-.03-.068-.351-.068-.351.083-.18.21-.334.37-.449zm-11.203-.874a.299.299 0 01-.324-.207c.028-.074.449-.224.449-.224s.444-.15.569-.178c.125-.029.147.063.147.12a.892.892 0 01-.221.34c-.203.09-.421.141-.643.15h.023zm1.427.5a7.524 7.524 0 01-.387.944c-.062.069-.176 0-.267-.08-.09-.081-.045-.329-.045-.329l.426-1.15c.103-.178.177-.051.233.08.04.19.04.386 0 .576l.04-.04zM16 28.16a8.95 8.95 0 01-.836 1.322c-.213.211-.493.34-.79.362-.24 0-.308-.086-.308-.172s.262-.385.455-.575c.251-.3.394-.677.404-1.07a4.25 4.25 0 01.09-1.15 2.3 2.3 0 01.871-1.15 2.962 2.962 0 011.786-.207c.569.104 1.348.575 2.138.817a1.538 1.538 0 001.217 0 .93.93 0 01.438-.063c.108 0 .12.207.108.356-.011.15-.427.34-1.07.621a4.02 4.02 0 01-2.16.282 4.287 4.287 0 00-1.627-.086c-.41.103-.568.488-.716.724v-.011zm2.48 2.116a1.2 1.2 0 00-.9.43c-.26.287-.499.595-.71.92a.247.247 0 01-.23.154.243.243 0 01-.094-.02c-.148-.076-.12-.622-.12-.622.361-.473.79-.888 1.274-1.23.41-.234.867-.376 1.337-.414.353.046.701.124 1.04.235.342.056.69.072 1.035.046a.243.243 0 01.302.202c-.046.195-.387.42-.569.506a2.04 2.04 0 01-1.012 0 6.576 6.576 0 00-1.36-.225l.006.018zm10.287 9.487a3.54 3.54 0 01-.944.575 6.572 6.572 0 01-1.592.196c-.506 0-.569-.31-.569-.31-.057-.11.085-.168.16-.18.073-.01.426.047.892 0 .346-.018.685-.108.995-.264.306-.147.6-.316.882-.506.062-.051.239-.281.426-.086.188.196-.148.426-.261.575h.011zm2.343-4.49c-.04.103-.193.097-.233.074a3.465 3.465 0 01-.267-.356.154.154 0 00-.2-.058l-.454.35s-.762.576-1.058.789a.882.882 0 00-.41.73c0 .305 0 1.276-.386 1.725-.387.448-1.462.77-2.65.517-1.03-.218-2.406-1.604-2.508-1.725a186.86 186.86 0 00-1.814-1.868c-.109-.11-.165-.087-.353 0-.188.086-.279.471-.307.667-.029.195-.25.207-.25.207s-.222.074-.268-.3a2.11 2.11 0 01.387-1.184c.23-.282.507-.521.819-.707a.749.749 0 01.569 0c.125.08.102.299-.12.477-.222.178-.068.207-.068.207.216.282 1.706.696 1.706.696a8.53 8.53 0 004.47.167A5.885 5.885 0 0029.99 34.6a.228.228 0 00.09-.225c0-.057-.158-.293-.158-.373 0-.08.204-.19.318-.19.114 0 .569.443.648.575.133.258.207.543.216.834l.006.051zm-3.594 1.236c-.233 0-1.479.16-1.82.16-.341 0-1.774-.19-1.916-.218-.143-.029-.387-.103-.433-.046-.045.058-.17.15.194.431.45.41.95.76 1.49 1.041a3.215 3.215 0 001.757.282c.569-.115.79-.161.899-.65.058-.293.08-.592.068-.891 0 0 0-.12-.16-.092l-.079-.017zM21.658 46.96c-.307-.103-1.53-.65-1.837-.77-.307-.121-3.708-1.777-3.708-1.777s-2.758-1.587-3.025-1.765c-.267-.179-1.41-1.081-1.41-1.081s-.336-.34-.438-.207a1.684 1.684 0 00-.296.546c.125.163.273.309.438.431.324.247 2.735 1.984 2.787 2.03.05.046 1.603 1.213 1.791 1.345.188.133 2.246 2.013 2.246 2.013l.86.908c.056.052.124.098.386-.046.261-.143 2.275-1.46 2.275-1.46s.204-.11 0-.19l-.069.023zm6.398-29.595l-.182-.115a4.287 4.287 0 00-.273-.173s-.415-.224-.335-.028l1.854 1.782 2.064 1.869s.33.356.432.356c.103 0 .313.04.313-.063 0-.103-.335-.454-.512-.61l-2.07-1.92-1.29-1.098zm3.833 28.278l-1.433-.793s-.5-.293-.665-.19a5.172 5.172 0 00-.978.575s-.387 1.006-.5 1.334c-.115.328-.206.472-.12.546.085.075.096.064.41-.086.312-.15 1.978-.759 2.211-.8.325-.05.645-.13.956-.235.102-.075.279-.213.12-.299" fill="#fff"/><path d="M27.124 14.473a.236.236 0 00-.205-.39c-.222 0-.319 0-.353-.047-.034-.046.2-.373-.136-.46a.428.428 0 00-.41.07.449.449 0 00-.12.482c.04.04.052.04-.033.127a2.382 2.382 0 01-.848.575c-.335.075-.221-.23-.221-.23.14.024.286.004.415-.058.375-.143.569-.488.466-.793-.102-.305-.7-.345-.995-.092-.28.28-.46.646-.512 1.04 0 .277.154.754.677.576.47-.2.905-.478 1.285-.823a.13.13 0 01.137 0c.062.04 0 .08-.074.156a1.15 1.15 0 00-.364.529c-.063.264.096.43.42.408.325-.023.62-.391.57-.5 0 0-.257.16-.32-.03-.062-.189.479-.39.626-.574l-.005.034zm-1.871-.61c.102-.028 0 .225-.194.237-.193.011.091-.207.194-.236zm-.387-.873s.051-.063-.085-.058l-.717.052c-.063 0-.074 0-.051-.04s.153-.374.17-.431c.018-.058.035-.08-.034-.08a3.618 3.618 0 00-.54.074c-.076.152-.14.31-.193.471 0 .046-.046.052-.114.058-.231.018-.46.051-.688.098-.029.046.068.35.17.35h.518s-.091.322-.114.391l-.102.397-.034.132c0 .121-.148.65-.148.685a.08.08 0 00.045.069s.256.15.279.086c.023-.063.614-1.765.626-1.788.011-.023 0 0 .034 0l.568-.04c.131 0 .41-.409.41-.409v-.017zm-2.457.523a.852.852 0 00-.569-.16c-.273 0-.284.172-.853.172-.568 0-.676-.466-1.347-.133a1.162 1.162 0 00-.432 1.391c.097.168.239.306.409.398.277.08.573.051.83-.08a1.088 1.088 0 00.455-.886.905.905 0 000-.368.411.411 0 00.227 0 1.573 1.573 0 00-.13.477.685.685 0 00.264.713c.072.052.155.09.242.11a.787.787 0 00.933-.369 2.32 2.32 0 00.216-.977.575.575 0 00-.222-.305l-.023.017zM19.992 14.6c-.279 0-.165-.483-.045-.65.12-.167.278-.224.386-.034.108.19-.068.707-.34.684zm1.866-.058a.263.263 0 01-.228-.061.27.27 0 01-.091-.22c0-.242.12-.472.33-.46.318 0 .324.655 0 .741h-.011zm-6.683.409c-.227-.196.205-.639-.25-.575-.154 0-.193.19-.432.27-.24.08-.233-.104-.427 0-.193.103-.284.397-.045.5.083.033.172.05.261.052v.264c-.085.276-.221.305-.221.305s-.404-.61-.495-.77a5.924 5.924 0 01-.313-.633c-.068-.167 0-.172.074-.264.074-.092.068-.167-.063-.115-.13.051-.665.276-.716.402.003.438.031.876.085 1.311 0 .052-.04.075-.097.04-.056-.034-.779-.603-.847-.65a.297.297 0 00-.233-.074 1.96 1.96 0 00-.643.512c-.12.15.131.08.17.074a.123.123 0 01.126.046c.028.04.529 1.495.569 1.553.04.057.08.086.182.075.102-.012.66-.248.66-.328 0-.08-.183 0-.245-.075a4.23 4.23 0 01-.16-.632s.655.43.746.471c.09.04.494-.075.472-.276-.023-.201-.091-.719-.091-.719s.62.8.7.851c.079.052.272.075.505-.051.097-.058.29-.184.256-.23-.034-.046-.108 0-.17 0-.063 0-.148-.046-.24-.161-.09-.115.2-.11.296-.409.048-.187.064-.382.046-.575 0 0 .085-.063.102 0 .017.064.091.363.5.253a.518.518 0 00.405-.529c-.04 0-.228.363-.478.156l.011-.07zm.705.069c-.085.063-.119.155-.068.224a.214.214 0 00.262 0c.09-.063.125-.161.068-.224a.203.203 0 00-.262 0zm1.957-.679c.08-.046.472-.213.688-.34.216-.126.853-.574.67-1.063-.096-.27-.568-.69-1.984-.305a4.3 4.3 0 00-1.28.42c-.058.25-.032.514.075.748.073.051.261-.08.318-.052.057.029.08 1.725.205 1.926.125.201.665.058.915 0 .131-.046.063-.115-.12-.132-.181-.017-.21-.656-.21-.656s0-.046.097 0 .626.621 1.138.575c.29 0 .54-.143.517-.212a.495.495 0 00-.352-.179c-.143 0-.29.08-.632-.281-.159-.173-.273-.34-.085-.455l.04.006zm-.768-.471c-.08 0-.08-.397 0-.432.373-.2.79-.3 1.211-.293.04.15-1.137.748-1.217.725M80.65 63.127a.338.338 0 00-.251.107.354.354 0 00-.104.257.358.358 0 00.355.366.338.338 0 00.252-.107.358.358 0 00.104-.259c0-.1-.035-.186-.104-.257a.339.339 0 00-.252-.107zm.414.364c0 .117-.04.217-.12.3a.395.395 0 01-.294.124.393.393 0 01-.293-.124.414.414 0 01-.12-.3.41.41 0 01.122-.297.393.393 0 01.291-.123c.115 0 .212.04.293.123.081.081.121.18.121.297zm-.306-.092c0-.034-.01-.056-.03-.068a.202.202 0 00-.096-.017h-.069v.168h.072c.034 0 .06-.004.077-.01.03-.013.046-.037.046-.073zm-.116-.14c.057 0 .098.005.124.016.047.02.07.06.07.117 0 .042-.014.072-.044.092a.17.17 0 01-.066.022.11.11 0 01.079.045.13.13 0 01.024.072v.034a.612.612 0 00.006.059l.002.006h-.075v-.005l-.002-.005-.002-.015v-.037c0-.053-.014-.089-.042-.106a.19.19 0 00-.09-.015h-.063v.183h-.08v-.464h.16zm-32.795.276l-2.283-1.08a.093.093 0 00-.063 0 .062.062 0 00-.056 0l-1.125.535v-.352a.144.144 0 00-.143-.136h-.95a.142.142 0 00-.136.136v3.794a.142.142 0 00.135.136h.911a.145.145 0 00.143-.136v-2.113l1.197-.568 1.205.576v2.113a.142.142 0 00.135.136h.91a.142.142 0 00.144-.136v-2.785a.145.145 0 00-.08-.128m5.739-.473h-.944a.142.142 0 00-.134.137v3.249a.142.142 0 00.135.136h.942a.142.142 0 00.135-.136v-3.25a.145.145 0 00-.135-.136zm-.476-1.896a.7.7 0 00-.658.436.718.718 0 00.151.78.704.704 0 00.772.152.707.707 0 00.432-.664.703.703 0 00-.43-.653.684.684 0 00-.267-.051zm7.521 1.801a1.037 1.037 0 00-.872.368l-.055.064v-1.825a.137.137 0 00-.04-.096.134.134 0 00-.095-.04h-.943a.144.144 0 00-.143.136v4.882a.144.144 0 00.143.136h.935c.036 0 .07-.014.096-.04a.137.137 0 00.04-.096v-1.753c0-.528.332-.584.475-.584.412 0 .467.36.467.576v1.76a.142.142 0 00.143.136h.935a.144.144 0 00.143-.136V64.28c.01-.35-.112-.69-.341-.952a1.213 1.213 0 00-.896-.368m3.971-.001a1.185 1.185 0 00-.888.352l-.047.048v-1.785a.145.145 0 00-.135-.136h-.951a.142.142 0 00-.135.136v4.874a.142.142 0 00.135.136h.888a.142.142 0 00.142-.136v-.224l.048.056a1.173 1.173 0 00.943.4c.442-.066.846-.29 1.139-.631a1.892 1.892 0 000-2.46 1.858 1.858 0 00-1.14-.63zm.333 1.864a.669.669 0 01-.406.614.652.652 0 01-.86-.36.67.67 0 01.356-.867.652.652 0 01.717.144.664.664 0 01.193.47zm3.559-1.864a1.828 1.828 0 00-1.013.337c-.297.21-.527.505-.66.846a1.882 1.882 0 00.431 2.016 1.84 1.84 0 002.007.383 1.85 1.85 0 00.82-.687c.202-.305.309-.664.309-1.03a1.848 1.848 0 00-.548-1.347 1.813 1.813 0 00-1.346-.518zm.65 1.864a.67.67 0 01-.386.68.653.653 0 01-.895-.404.67.67 0 01-.027-.276.67.67 0 01.385-.68.652.652 0 01.895.404.67.67 0 01.028.276zM57.849 66.2v-3.001a.137.137 0 00-.089-.128.132.132 0 00-.054-.008h-.888a.137.137 0 00-.135.136v.224l-.047-.056a1.143 1.143 0 00-.92-.408 1.478 1.478 0 00-1.148.52 2.005 2.005 0 000 2.497 1.483 1.483 0 001.149.512 1.11 1.11 0 00.895-.376l.056-.056v.536a.807.807 0 01-.126.517.794.794 0 01-.947.308.794.794 0 01-.401-.345.136.136 0 00-.111-.064h-.064l-.792.4a.111.111 0 00-.072.088.122.122 0 000 .104c.17.297.413.546.704.724.29.178.621.278.96.293a1.98 1.98 0 001.416-.594 2.018 2.018 0 00.582-1.431V66.2h.032zm-1.823-.665a.707.707 0 01-.703-.399.727.727 0 01.115-.806.712.712 0 011.238.493.67.67 0 01-.39.655.653.653 0 01-.26.058zm16.992-2.561h-.158a.967.967 0 00-.912.449l-.055.08v-.288a.134.134 0 00-.135-.136h-.88a.136.136 0 00-.142.136v3.249a.144.144 0 00.142.136h.936a.142.142 0 00.142-.136V64.71c0-.384.183-.552.595-.552.124-.01.248-.01.372 0a.237.237 0 00.087 0 .161.161 0 00.048-.104l.055-.936a.145.145 0 00-.126-.145m1.854-1.535h-.927a.144.144 0 00-.143.136v4.874a.144.144 0 00.143.136h.927a.142.142 0 00.099-.04.145.145 0 00.044-.096v-4.874a.145.145 0 00-.044-.097.142.142 0 00-.099-.04zm3.535 3.113a.804.804 0 01-.21.544.79.79 0 01-.519.256.789.789 0 01-.56-.234.804.804 0 01-.233-.566v-1.344a.139.139 0 00-.039-.097.135.135 0 00-.095-.04h-.888a.127.127 0 00-.135.137v1.344a2.017 2.017 0 00.826 1.651 1.97 1.97 0 001.814.262v.088a.9.9 0 01-.26.634.883.883 0 01-1.042.16.914.914 0 01-.323-.282A.128.128 0 0076.6 67h-.056l-.792.392a.191.191 0 00-.072.088.137.137 0 000 .112 2.09 2.09 0 001.792 1.04 2.026 2.026 0 001.434-.592 2.09 2.09 0 00.634-1.432v-3.401a.137.137 0 00-.134-.136h-.896a.127.127 0 00-.135.136M50.2 62.95a1.738 1.738 0 00-1.307.529 1.91 1.91 0 00-.507 1.368 1.818 1.818 0 00.515 1.32c.366.342.85.523 1.347.505.523.02 1.035-.15 1.443-.48a.137.137 0 000-.208l-.618-.528a.15.15 0 00-.175 0 .977.977 0 01-.586.208.622.622 0 01-.666-.449h2.211a.142.142 0 00.143-.128v-.224a1.889 1.889 0 00-.5-1.344 1.749 1.749 0 00-1.283-.52l-.016-.049zm.666 1.553h-1.3c0-.172.068-.337.189-.458a.639.639 0 01.908 0c.12.121.188.286.188.458h.016zm-11.42 2.073v-.416a1.444 1.444 0 01-1.158.512c-.485 0-.95-.195-1.294-.541a1.858 1.858 0 010-2.615 1.822 1.822 0 011.294-.541 1.446 1.446 0 011.158.52v-.456h.689v3.537h-.69zm-1.158-2.953a1.16 1.16 0 00-.823.344 1.182 1.182 0 000 1.664 1.16 1.16 0 001.647 0 1.182 1.182 0 000-1.664 1.16 1.16 0 00-.824-.344zm47.237 2.169c-.21.344-.525.61-.898.757a1.822 1.822 0 01-2.135-.61 1.87 1.87 0 010-2.24 1.833 1.833 0 012.136-.61c.372.147.687.413.897.758l-.586.344a1.122 1.122 0 00-.951-.536 1.161 1.161 0 00-.761.375 1.183 1.183 0 000 1.594c.197.217.47.351.76.376a1.11 1.11 0 00.96-.553l.578.345zm2.235.88c-.485 0-.95-.195-1.294-.541a1.858 1.858 0 010-2.615 1.822 1.822 0 012.589 0 1.858 1.858 0 010 2.614 1.822 1.822 0 01-1.295.542zm0-3.017a1.157 1.157 0 00-.658.179 1.174 1.174 0 00-.528 1.204 1.162 1.162 0 001.588.881 1.18 1.18 0 00.724-1.096 1.164 1.164 0 00-.309-.837 1.142 1.142 0 00-.809-.363m7.117 2.953v-1.857c0-.696-.174-1.064-.713-1.064-.539 0-.792.368-.792 1.12v1.8h-.706V64.72c0-.704-.174-1.064-.705-1.064-.531 0-.793.376-.793 1.12v1.8h-.69v-3.537h.69v.385a1.158 1.158 0 01.943-.449 1.117 1.117 0 011.102.657 1.29 1.29 0 011.15-.657c.792 0 1.275.489 1.275 1.601v2h-.76zm1.745 1.849v-5.418h.697v.456a1.419 1.419 0 011.149-.52c.485 0 .951.194 1.294.541a1.857 1.857 0 010 2.614 1.82 1.82 0 01-1.294.542 1.398 1.398 0 01-1.15-.512v2.297h-.697zm1.838-2.401a1.16 1.16 0 00.76-.376 1.183 1.183 0 000-1.594 1.16 1.16 0 00-.76-.375 1.121 1.121 0 00-.813.346 1.147 1.147 0 00-.32.83 1.137 1.137 0 00.318.83 1.118 1.118 0 00.815.339zm5.333.552v-.416a1.405 1.405 0 01-1.149.512 1.82 1.82 0 01-1.294-.542 1.856 1.856 0 010-2.614 1.82 1.82 0 011.294-.541 1.416 1.416 0 011.149.52v-.456h.698v3.537h-.698zm-1.149-2.953a1.16 1.16 0 00-.824.344 1.184 1.184 0 000 1.664 1.16 1.16 0 001.648 0c.219-.22.341-.52.341-.832a1.18 1.18 0 00-.341-.832 1.16 1.16 0 00-.824-.344zm5.382 2.953v-1.857c0-.704-.27-1.064-.84-1.064-.571 0-.88.392-.88 1.12v1.8h-.69v-3.537h.69v.385a1.214 1.214 0 011.006-.449c.793 0 1.419.489 1.419 1.601v2h-.705zm3.923-3.538l-.927 2.658-.991-2.657h-.761l1.411 3.6-.634 1.818h.69l1.902-5.418h-.69z" fill="#fff"/></svg>