<svg width="346" height="59" fill="none" xmlns="http://www.w3.org/2000/svg"><g filter="url(#filter0_b_3601_2469)"><path fill="#fff" d="M0 .001h344.997V59H0z"/></g><path d="M286.098 0H346v59h-59.902V0z" fill="url(#paint0_linear_3601_2469)"/><path fill-rule="evenodd" clip-rule="evenodd" d="M311.472 31.97c3.397 0 6.151-2.79 6.151-6.232 0-3.441-2.754-6.231-6.151-6.231s-6.151 2.79-6.151 6.231c0 3.442 2.754 6.232 6.151 6.232zm0 3.425c5.264 0 9.531-4.324 9.531-9.657 0-5.332-4.267-9.656-9.531-9.656-5.263 0-9.531 4.324-9.531 9.656 0 5.333 4.268 9.657 9.531 9.657z" fill="#fff"/><path fill-rule="evenodd" clip-rule="evenodd" d="M320.093 32.11l7.277 7.373-2.39 2.422-7.277-7.373V32.11h2.39z" fill="#fff"/><path fill-rule="evenodd" clip-rule="evenodd" d="M261.262 37.215l-13.673-13.848 1.892-1.916 13.674 13.848-1.893 1.916z" fill="#79797A"/><path fill-rule="evenodd" clip-rule="evenodd" d="M247.589 35.299l13.673-13.848 1.893 1.916-13.674 13.848-1.892-1.916z" fill="#79797A"/><path d="M39.845 36.428c1.018 0 1.873-.386 2.567-1.157.694-.755 1.04-1.734 1.04-2.937 0-1.187-.346-2.166-1.04-2.937-.694-.77-1.55-1.156-2.567-1.156-1.033 0-1.896.385-2.59 1.156-.678.771-1.017 1.75-1.017 2.937 0 1.203.339 2.19 1.017 2.96.694.756 1.557 1.134 2.59 1.134zm.347 1.942a4.956 4.956 0 01-2.29-.532c-.678-.355-1.202-.825-1.572-1.41h-.092L36.33 38v4.995h-2.127V26.67h2.035v1.572h.092c.37-.586.894-1.056 1.573-1.41a4.956 4.956 0 012.289-.532c1.495 0 2.76.585 3.793 1.757 1.063 1.187 1.595 2.613 1.595 4.278 0 1.68-.532 3.107-1.595 4.278-1.033 1.172-2.297 1.758-3.793 1.758zm9.239-16.928V38h-2.128V21.442h2.128zM61.967 38h-2.035v-1.572h-.093c-.323.555-.824 1.017-1.503 1.387a4.211 4.211 0 01-2.08.555c-1.388 0-2.46-.393-3.215-1.18-.74-.801-1.11-1.934-1.11-3.399V26.67h2.127v6.983c.046 1.85.98 2.776 2.798 2.776.848 0 1.557-.34 2.128-1.018.57-.694.855-1.519.855-2.474V26.67h2.128V38zm4.718 0h-2.128V26.669h2.035v1.572h.093c.323-.555.817-1.017 1.48-1.387.678-.37 1.349-.555 2.011-.555.833 0 1.565.192 2.197.578a3.41 3.41 0 011.388 1.595c.94-1.449 2.243-2.174 3.908-2.174 1.31 0 2.32.401 3.03 1.203.709.802 1.063 1.942 1.063 3.423V38h-2.127v-6.753c0-1.063-.193-1.827-.578-2.29-.386-.477-1.033-.716-1.943-.716-.817 0-1.503.347-2.058 1.04-.555.694-.832 1.512-.832 2.452V38h-2.128v-6.753c0-1.063-.193-1.827-.578-2.29-.386-.477-1.033-.716-1.943-.716-.817 0-1.503.347-2.058 1.04-.555.694-.832 1.512-.832 2.452V38zm23.554.37a4.956 4.956 0 01-2.29-.532c-.677-.355-1.202-.825-1.572-1.41h-.092V38H84.25V21.442h2.127v5.227l-.092 1.572h.092c.37-.586.895-1.056 1.573-1.41a4.956 4.956 0 012.29-.532c1.495 0 2.759.585 3.792 1.757 1.064 1.187 1.596 2.613 1.596 4.278 0 1.68-.532 3.107-1.596 4.278-1.033 1.172-2.297 1.758-3.793 1.758zm-.347-1.942c1.018 0 1.874-.386 2.567-1.157.694-.755 1.041-1.734 1.041-2.937 0-1.187-.347-2.166-1.04-2.937-.694-.77-1.55-1.156-2.567-1.156-1.034 0-1.897.385-2.59 1.156-.679.771-1.018 1.75-1.018 2.937 0 1.203.34 2.19 1.017 2.96.694.756 1.557 1.134 2.59 1.134zm12.77 1.942c-1.665 0-3.037-.57-4.117-1.711-1.079-1.141-1.618-2.583-1.618-4.325 0-1.727.524-3.16 1.572-4.301 1.049-1.156 2.39-1.735 4.024-1.735 1.68 0 3.014.548 4.001 1.642 1.002 1.08 1.503 2.598 1.503 4.556l-.023.231H99.1c.031 1.11.401 2.005 1.11 2.683a3.554 3.554 0 002.544 1.018c1.357 0 2.421-.679 3.192-2.036l1.896.925a5.627 5.627 0 01-2.128 2.244c-.894.54-1.911.809-3.052.809zm-3.4-7.4h6.499a2.764 2.764 0 00-.972-1.943c-.57-.524-1.341-.786-2.312-.786-.802 0-1.496.247-2.082.74-.57.493-.948 1.156-1.133 1.989zM112.1 38h-2.128V26.669h2.036v1.85h.092c.216-.602.655-1.11 1.318-1.527.679-.431 1.341-.647 1.989-.647.617 0 1.141.092 1.573.277l-.648 2.058c-.262-.107-.678-.162-1.249-.162-.801 0-1.503.324-2.104.972a3.271 3.271 0 00-.879 2.266V38zm11.355-11.331h2.035v1.572h.092c.324-.555.818-1.017 1.48-1.387a4.343 4.343 0 012.105-.555c1.387 0 2.451.4 3.191 1.202.756.786 1.133 1.912 1.133 3.376V38h-2.127v-6.984c-.046-1.85-.979-2.775-2.798-2.775-.848 0-1.558.347-2.128 1.04-.57.679-.856 1.496-.856 2.452V38h-2.127V26.669zm17.621 11.701c-1.665 0-3.037-.57-4.116-1.711-1.079-1.141-1.619-2.583-1.619-4.325 0-1.727.524-3.16 1.573-4.301 1.048-1.156 2.389-1.735 4.024-1.735 1.68 0 3.014.548 4 1.642 1.002 1.08 1.503 2.598 1.503 4.556l-.023.231h-8.903c.031 1.11.401 2.005 1.11 2.683a3.55 3.55 0 002.544 1.018c1.357 0 2.42-.679 3.191-2.036l1.896.925a5.618 5.618 0 01-2.127 2.244c-.894.54-1.912.809-3.053.809zm-3.399-7.4h6.498a2.76 2.76 0 00-.971-1.943c-.571-.524-1.341-.786-2.313-.786-.801 0-1.495.247-2.081.74-.57.493-.948 1.156-1.133 1.989zm12.372 3.561c0 .555.232 1.018.694 1.388.478.37 1.033.555 1.665.555.894 0 1.688-.332 2.382-.995.709-.663 1.064-1.441 1.064-2.335-.663-.524-1.588-.787-2.775-.787-.863 0-1.588.209-2.174.625-.57.416-.856.932-.856 1.55zm2.752-8.232c1.573 0 2.814.423 3.724 1.271.909.833 1.364 1.982 1.364 3.446V38h-2.035v-1.572h-.093c-.878 1.294-2.05 1.942-3.515 1.942-1.248 0-2.297-.37-3.145-1.11-.832-.74-1.248-1.665-1.248-2.775 0-1.172.439-2.105 1.318-2.798.894-.694 2.081-1.04 3.561-1.04 1.264 0 2.305.23 3.122.693v-.486c0-.74-.293-1.364-.879-1.873a2.99 2.99 0 00-2.058-.786c-1.187 0-2.128.5-2.821 1.503l-1.873-1.18c1.032-1.48 2.559-2.22 4.578-2.22z" fill="#050708"/><path d="M165 47.5V13" stroke="#000"/><defs><linearGradient id="paint0_linear_3601_2469" x1="346" y1="0" x2="287.007" y2="59.895" gradientUnits="userSpaceOnUse"><stop stop-color="#0083FF"/><stop offset="1" stop-color="#2978FF"/></linearGradient><filter id="filter0_b_3601_2469" x="-49.749" y="-49.748" width="444.495" height="158.497" filterUnits="userSpaceOnUse" color-interpolation-filters="sRGB"><feFlood flood-opacity="0" result="BackgroundImageFix"/><feGaussianBlur in="BackgroundImageFix" stdDeviation="24.874"/><feComposite in2="SourceAlpha" operator="in" result="effect1_backgroundBlur_3601_2469"/><feBlend in="SourceGraphic" in2="effect1_backgroundBlur_3601_2469" result="shape"/></filter></defs></svg>