<svg width="345" height="59" fill="none" xmlns="http://www.w3.org/2000/svg"><g filter="url(#filter0_b_3601_2481)"><path fill="#fff" d="M0 0h344.997v58.999H0z"/></g><path fill-rule="evenodd" clip-rule="evenodd" d="M311.531 31.888c3.397 0 6.151-2.79 6.151-6.232s-2.754-6.232-6.151-6.232-6.151 2.79-6.151 6.232 2.754 6.232 6.151 6.232zm0 3.424c5.264 0 9.531-4.323 9.531-9.656S316.795 16 311.531 16 302 20.323 302 25.656s4.267 9.656 9.531 9.656z" fill="#4A4A4A"/><path fill-rule="evenodd" clip-rule="evenodd" d="M320.151 32.028l7.278 7.373-2.39 2.421-7.278-7.373v-2.421h2.39z" fill="#4A4A4A"/><path fill="#D9D9D9" d="M33 22h249v16H33z"/><defs><filter id="filter0_b_3601_2481" x="-49.749" y="-49.749" width="444.495" height="158.497" filterUnits="userSpaceOnUse" color-interpolation-filters="sRGB"><feFlood flood-opacity="0" result="BackgroundImageFix"/><feGaussianBlur in="BackgroundImageFix" stdDeviation="24.874"/><feComposite in2="SourceAlpha" operator="in" result="effect1_backgroundBlur_3601_2481"/><feBlend in="SourceGraphic" in2="effect1_backgroundBlur_3601_2481" result="shape"/></filter></defs></svg>