<svg width="35" height="35" fill="none" xmlns="http://www.w3.org/2000/svg"><g clip-path="url(#clip0_3439_26929)"><path d="M29.915 35H5.085A5.085 5.085 0 010 29.915V5.085A5.085 5.085 0 015.085 0h24.83a5.085 5.085 0 015.086 5.085v24.83A5.086 5.086 0 0129.915 35z" fill="#fff"/><path d="M29.435 11.504a3.12 3.12 0 00-2.202-2.202C25.29 8.78 17.5 8.78 17.5 8.78s-7.79 0-9.733.52a3.12 3.12 0 00-2.202 2.203c-.521 1.942-.521 5.996-.521 5.996s0 4.055.521 5.996A3.12 3.12 0 007.767 25.7c1.942.52 9.733.52 9.733.52s7.79 0 9.733-.52a3.12 3.12 0 002.202-2.203c.521-1.941.521-5.996.521-5.996s-.002-4.054-.521-5.996z" fill="#4A4A4A"/><path d="M15.007 21.237l6.472-3.737-6.472-3.736v7.473z" fill="#fff"/></g><defs><clipPath id="clip0_3439_26929"><path fill="#fff" d="M0 0h35v35H0z"/></clipPath></defs></svg>